{
.formatVersion = 3;
axes = (
{
name = Weight;
tag = wght;
}
);
classes = (
{
code = "Elcyr Decyr vecyr zhecyr yucyr kacyr Efcyr efcyr decyr elcyr zecyr";
name = locl;
},
{
code = "Elcyr.loclBGR Decyr.loclBGR vecyr.loclBGR zhecyr.loclBGR yucyr.loclBGR kacyr.loclBGR Efcyr.loclBGR efcyr.loclBGR decyr.loclBGR elcyr.loclBGR zecyr.loclBGR";
name = locl2;
}
);
familyName = Ruzland;
customParameters = (
{
name = glyphOrder;
value = (
.notdef,
.null,
CR,
space,
exclam,
quotedbl,
numbersign,
dollar,
percent,
ampersand,
quotesingle,
parenleft,
parenright,
asterisk,
plus,
comma,
hyphen,
period,
slash,
zero,
one,
two,
three,
four,
five,
six,
seven,
eight,
nine,
colon,
semicolon,
less,
equal,
greater,
question,
at,
A,
B,
C,
D,
E,
F,
G,
H,
I,
J,
K,
L,
M,
N,
O,
P,
Q,
R,
S,
T,
U,
V,
W,
X,
Y,
Z,
bracketleft,
backslash,
bracketright,
asciicircum,
underscore,
grave,
a,
b,
c,
d,
e,
f,
g,
h,
i,
j,
k,
l,
m,
n,
o,
p,
q,
r,
s,
t,
u,
v,
w,
x,
y,
z,
braceleft,
bar,
braceright,
asciitilde,
exclamdown,
cent,
sterling,
currency,
yen,
brokenbar,
section,
dieresis,
copyright,
ordfeminine,
guillemotleft,
logicalnot,
registered,
macron,
degree,
plusminus,
twosuperior,
threesuperior,
acute,
micro,
paragraph,
periodcentered,
cedilla,
onesuperior,
ordmasculine,
guillemotright,
onequarter,
onehalf,
threequarters,
questiondown,
Agrave,
Aacute,
Acircumflex,
Atilde,
Adieresis,
Aring,
AE,
Ccedilla,
Egrave,
Eacute,
Ecircumflex,
Edieresis,
Igrave,
Iacute,
Icircumflex,
Idieresis,
Eth,
Ntilde,
Ograve,
Oacute,
Ocircumflex,
Otilde,
Odieresis,
multiply,
Oslash,
Ugrave,
Uacute,
Ucircumflex,
Udieresis,
Yacute,
Thorn,
germandbls,
agrave,
aacute,
acircumflex,
atilde,
adieresis,
aring,
ae,
ccedilla,
egrave,
eacute,
ecircumflex,
edieresis,
igrave,
iacute,
icircumflex,
idieresis,
eth,
ntilde,
ograve,
oacute,
ocircumflex,
otilde,
odieresis,
divide,
oslash,
ugrave,
uacute,
ucircumflex,
udieresis,
yacute,
thorn,
ydieresis,
Amacron,
amacron,
Abreve,
abreve,
Aogonek,
aogonek,
Cacute,
cacute,
Ccircumflex,
ccircumflex,

glyphs = (
{
glyphname = .notdef;
layers = (
{
layerId = "F961D97E-EEA9-4A8D-9339-D33FF8C656AD";
shapes = (
{
closed = 1;
nodes = (
(280,0,l),
(1237,0,l),
(1239,1210,l),
(281,1210,l)
);
},
{
closed = 1;
nodes = (
(305,30,l),
(305,1180,l),
(1213,1180,l),
(1213,30,l)
);
}
);
width = 1593;
},
{
layerId = "459F892D-0193-436C-99B7-2A4FAD43389C";
shapes = (
{
closed = 1;
nodes = (
(280,0,l),
(1237,0,l),
(1239,1210,l),
(281,1210,l)
);
},
{
closed = 1;
nodes = (
(305,30,l),
(305,1180,l),
(1213,1180,l),
(1213,30,l)
);
}
);
width = 1593;
},
{
layerId = "DE55C86C-15D8-4D4C-BA82-540887FA286E";
shapes = (
{
closed = 1;
nodes = (
(280,0,l),
(1237,0,l),
(1239,1210,l),
(281,1210,l)
);
},
{
closed = 1;
nodes = (
(305,30,l),
(305,1180,l),
(1213,1180,l),
(1213,30,l)
);
}
);
width = 1593;
},
{
layerId = "5406E1A9-98D2-48B0-A3BF-3E9D89732E2E";
shapes = (
{
closed = 1;
nodes = (
(280,0,l),
(1237,0,l),
(1239,1210,l),
(281,1210,l)
);
},
{
closed = 1;
nodes = (
(305,30,l),
(305,1180,l),
(1213,1180,l),
(1213,30,l)
);
}
);
width = 1593;
}
);
},
{
glyphname = exclam;
layers = (
{
layerId = "F961D97E-EEA9-4A8D-9339-D33FF8C656AD";
shapes = (
{
closed = 1;
nodes = (
(447,1356,l),
(301,681,l),
(260,339,l),
(358,339,l),
(467,681,l),
(613,1356,l)
);
},
{
closed = 1;
nodes = (
(177,57,o),
(188,27,o),
(207,8,cs),
(227,-13,o),
(257,-25,o),
(294,-25,cs),
(329,-25,o),
(358,-13,o),
(378,9,c),
(399,29,o),
(410,57,o),
(411,87,c),
(411,157,o),
(362,199,o),
(294,199,cs),
(220,199,o),
(177,157,o),
(177,87,cs)
);
}
);
width = 645;
},
{
layerId = "459F892D-0193-436C-99B7-2A4FAD43389C";
shapes = (
{
closed = 1;
nodes = (
(427,1356,l),
(315,743,l),
(326,446,l),
(540,446,l),
(657,743,l),
(770,1356,l)
);
},
{
closed = 1;
nodes = (
(170,101,o),
(188,61,o),
(225,28,c),
(261,-6,o),
(308,-21,o),
(363,-21,cs),
(424,-21,o),
(473,-6,o),
(509,27,cs),
(545,61,o),
(563,101,o),
(562,153,c),
(562,262,o),
(485,328,o),
(363,328,cs),
(250,328,o),
(170,262,o),
(170,153,cs)
);
}
);
width = 874;
},
{
layerId = "DE55C86C-15D8-4D4C-BA82-540887FA286E";
shapes = (
{
closed = 1;
nodes = (
(434,1356,l),
(310,722,l),
(304,410,l),
(479,410,l),
(593,722,l),
(717,1356,l)
);
},
{
closed = 1;
nodes = (
(172,86,o),
(188,50,o),
(219,21,cs),
(250,-8,o),
(291,-22,o),
(340,-22,cs),
(392,-22,o),
(434,-8,o),
(465,21,cs),
(496,50,o),
(512,86,o),
(511,131,c),
(511,227,o),
(444,285,o),
(340,285,cs),
(240,285,o),
(172,227,o),
(172,131,cs)
);
}
);
width = 797;
},
{
layerId = "5406E1A9-98D2-48B0-A3BF-3E9D89732E2E";
shapes = (
{
closed = 1;
nodes = (
(444,1356,l),
(303,691,l),
(271,356,l),
(387,356,l),
(497,691,l),
(638,1356,l)
);
},
{
closed = 1;
nodes = (
(175,64,o),
(188,33,o),
(210,11,cs),
(233,-11,o),
(265,-24,o),
(305,-24,cs),
(344,-24,o),
(376,-11,o),
(399,12,cs),
(422,34,o),
(435,64,o),
(435,98,cs),
(435,174,o),
(382,220,o),
(305,220,cs),
(225,220,o),
(175,174,o),
(175,98,cs)
);
}
);
width = 682;
}
);
unicode = 33;
},
{
glyphname = quotedbl;
layers = (
{
layerId = "F961D97E-EEA9-4A8D-9339-D33FF8C656AD";
shapes = (
{
closed = 1;
nodes = (
(344,985,l),
(435,985,l),
(583,1356,l),
(426,1356,l)
);
},
{
closed = 1;
nodes = (
(611,985,l),
(704,985,l),
(852,1356,l),
(693,1356,l)
);
}
);
width = 771;
},
{
layerId = "459F892D-0193-436C-99B7-2A4FAD43389C";
shapes = (
{
closed = 1;
nodes = (
(341,907,l),
(545,907,l),
(705,1356,l),
(423,1356,l)
);
},
{
closed = 1;
nodes = (
(746,907,l),
(950,907,l),
(1110,1356,l),
(828,1356,l)
);
}
);
width = 1322;
},
{
layerId = "DE55C86C-15D8-4D4C-BA82-540887FA286E";
shapes = (
{
closed = 1;
nodes = (
(342,933,l),
(508,933,l),
(664,1356,l),
(424,1356,l)
);
},
{
closed = 1;
nodes = (
(701,933,l),
(867,933,l),
(1023,1356,l),
(783,1356,l)
);
}
);
width = 1137;
},
{
layerId = "5406E1A9-98D2-48B0-A3BF-3E9D89732E2E";
shapes = (
{
closed = 1;
nodes = (
(343,972,l),
(453,972,l),
(603,1356,l),
(425,1356,l)
);
},
{
closed = 1;
nodes = (
(633,972,l),
(743,972,l),
(893,1356,l),
(715,1356,l)
);
}
);
width = 860;
}
);
unicode = 34;
},
{
glyphname = numbersign;
layers = (
{
layerId = "F961D97E-EEA9-4A8D-9339-D33FF8C656AD";
shapes = (
{
closed = 1;
nodes = (
(625,440,l),
(542,116,l),
(676,116,l),
(763,440,l),
(927,440,l),
(960,560,l),
(795,560,l),
(861,815,l),
(1034,815,l),
(1067,936,l),
(892,936,l),
(972,1241,l),
(834,1241,l),
(754,936,l),
(526,936,l),
(606,1241,l),
(469,1241,l),
(389,936,l),
(217,936,l),
(188,815,l),
(357,815,l),
(291,560,l),
(109,560,l),
(80,440,l),
(258,440,l),
(175,116,l),
(312,116,l),
(395,440,l)
);
},
{
closed = 1;
nodes = (
(428,560,l),
(494,815,l),
(723,815,l),
(657,560,l)
);
}
);
width = 1024;
},
{
layerId = "459F892D-0193-436C-99B7-2A4FAD43389C";
shapes = (
{
closed = 1;
nodes = (
(571,370,l),
(502,86,l),
(759,86,l),
(826,370,l),
(917,370,l),
(975,604,l),
(886,604,l),
(932,771,l),
(1022,771,l),
(1082,1005,l),
(991,1005,l),
(1059,1268,l),
(802,1268,l),
(734,1005,l),
(568,1005,l),
(633,1268,l),
(377,1268,l),
(309,1005,l),
(208,1005,l),
(154,771,l),
(251,771,l),
(209,604,l),
(106,604,l),
(50,370,l),
(148,370,l),
(77,86,l),
(334,86,l),
(405,370,l)
);
},
{
closed = 1;
nodes = (
(464,604,l),
(506,771,l),
(675,771,l),
(633,604,l)
);
}
);
width = 1024;
},
{
layerId = "DE55C86C-15D8-4D4C-BA82-540887FA286E";
shapes = (
{
closed = 1;
nodes = (
(589,393,l),
(515,96,l),
(731,96,l),
(805,393,l),
(920,393,l),
(970,589,l),
(855,589,l),
(908,786,l),
(1026,786,l),
(1077,982,l),
(958,982,l),
(1030,1259,l),
(813,1259,l),
(741,982,l),
(554,982,l),
(624,1259,l),
(408,1259,l),
(336,982,l),
(211,982,l),
(165,786,l),
(286,786,l),
(236,589,l),
(107,589,l),
(60,393,l),
(185,393,l),
(110,96,l),
(327,96,l),
(402,393,l)
);
},
{
closed = 1;
nodes = (
(452,589,l),
(502,786,l),
(691,786,l),
(641,589,l)
);
}
);
width = 1024;
},
{
layerId = "5406E1A9-98D2-48B0-A3BF-3E9D89732E2E";
shapes = (
{
closed = 1;
nodes = (
(616,428,l),
(535,111,l),
(689,111,l),
(773,428,l),
(925,428,l),
(962,567,l),
(809,567,l),
(872,808,l),
(1032,808,l),
(1069,947,l),
(908,947,l),
(986,1245,l),
(829,1245,l),
(751,947,l),
(533,947,l),
(610,1245,l),
(454,1245,l),
(376,947,l),
(215,947,l),
(182,808,l),
(339,808,l),
(277,567,l),
(108,567,l),
(75,428,l),
(240,428,l),
(159,111,l),
(316,111,l),
(397,428,l)
);
},
{
closed = 1;
nodes = (
(434,567,l),
(496,808,l),
(715,808,l),
(653,567,l)
);
}
);
width = 1024;
}
);
unicode = 35;
},
{
glyphname = dollar;
layers = (
{
layerId = "F961D97E-EEA9-4A8D-9339-D33FF8C656AD";
shapes = (
{
closed = 1;
nodes = (
(291,-194,l),
(422,-194,l),
(461,-16,l),
(730,20,o),
(925,205,o),
(925,449,cs),
(925,620,o),
(778,692,o),
(631,767,c),
(734,1241,l),
(858,1234,o),
(917,1197,o),
(965,1172,c),
(1042,1309,l),
(973,1339,o),
(920,1376,o),
(765,1379,c),
(802,1549,l),
(671,1549,l),
(633,1376,l),
(323,1343,o),
(199,1173,o),
(199,954,cs),
(199,774,o),
(349,689,o),
(472,633,c),
(358,114,l),
(204,121,o),
(135,178,o),
(80,207,c),
(-4,69,l),
(69,27,o),
(170,-21,o),
(327,-26,c)
);
},
{
closed = 1;
nodes = (
(566,587,l),
(674,536,o),
(757,477,o),
(757,386,cs),
(757,225,o),
(633,144,o),
(464,120,c)
);
},
{
closed = 1;
nodes = (
(539,815,l),
(468,851,o),
(368,907,o),
(368,1008,cs),
(368,1164,o),
(494,1222,o),
(630,1238,c)
);
}
);
width = 1024;
},
{
layerId = "459F892D-0193-436C-99B7-2A4FAD43389C";
shapes = (
{
closed = 1;
nodes = (
(329,-194,l),
(591,-194,l),
(624,-12,l),
(869,23,o),
(1044,183,o),
(1044,461,cs),
(1044,646,o),
(873,767,o),
(776,805,c),
(823,1089,l),
(897,1073,o),
(919,1054,o),
(956,1038,c),
(1108,1312,l),
(1039,1351,o),
(954,1369,o),
(876,1379,c),
(909,1549,l),
(647,1549,l),
(613,1372,l),
(398,1328,o),
(184,1193,o),
(184,922,cs),
(184,720,o),
(381,597,o),
(463,561,c),
(412,260,l),
(345,270,o),
(286,289,o),
(243,318,c),
(94,35,l),
(114,23,o),
(204,-21,o),
(359,-26,c)
);
},
{
closed = 1;
nodes = (
(593,515,l),
(628,500,o),
(691,468,o),
(691,364,cs),
(691,324,o),
(663,249,o),
(550,254,c)
);
},
{
closed = 1;
nodes = (
(642,853,l),
(571,878,o),
(535,921,o),
(535,992,cs),
(535,1023,o),
(548,1103,o),
(686,1103,c)
);
}
);
width = 1024;
},
{
layerId = "DE55C86C-15D8-4D4C-BA82-540887FA286E";
shapes = (
{
closed = 1;
nodes = (
(316,-194,l),
(534,-194,l),
(569,-13,l),
(822,22,o),
(1004,190,o),
(1004,457,cs),
(1004,637,o),
(841,742,o),
(727,792,c),
(793,1140,l),
(884,1127,o),
(918,1102,o),
(959,1083,c),
(1086,1311,l),
(1017,1347,o),
(943,1371,o),
(839,1379,c),
(873,1549,l),
(655,1549,l),
(620,1373,l),
(373,1333,o),
(189,1186,o),
(189,933,cs),
(189,738,o),
(370,628,o),
(466,585,c),
(394,211,l),
(298,220,o),
(235,252,o),
(188,281,c),
(61,46,l),
(99,24,o),
(193,-21,o),
(348,-26,c)
);
},
{
closed = 1;
nodes = (
(584,539,l),
(643,512,o),
(713,471,o),
(713,371,cs),
(713,291,o),
(653,214,o),
(521,209,c)
);
},
{
closed = 1;
nodes = (
(607,840,l),
(536,869,o),
(479,916,o),
(479,997,cs),
(479,1070,o),
(530,1143,o),
(667,1148,c)
);
}
);
width = 1024;
},
{
layerId = "5406E1A9-98D2-48B0-A3BF-3E9D89732E2E";
shapes = (
{
closed = 1;
nodes = (
(297,-194,l),
(449,-194,l),
(487,-15,l),
(752,20,o),
(944,201,o),
(944,451,cs),
(944,624,o),
(793,704,o),
(654,773,c),
(748,1216,l),
(864,1208,o),
(917,1174,o),
(963,1150,c),
(1053,1309,l),
(984,1341,o),
(926,1374,o),
(783,1379,c),
(819,1549,l),
(667,1549,l),
(630,1375,l),
(335,1340,o),
(196,1176,o),
(196,949,cs),
(196,765,o),
(354,674,o),
(470,621,c),
(367,137,l),
(227,145,o),
(159,196,o),
(106,225,c),
(12,63,l),
(76,26,o),
(176,-21,o),
(332,-26,c)
);
},
{
closed = 1;
nodes = (
(570,575,l),
(666,530,o),
(746,475,o),
(746,382,cs),
(746,241,o),
(638,161,o),
(478,142,c)
);
},
{
closed = 1;
nodes = (
(555,821,l),
(484,855,o),
(395,909,o),
(395,1005,cs),
(395,1141,o),
(503,1203,o),
(639,1216,c)
);
}
);
width = 1024;
}
);
unicode = 36;
},
{
glyphname = percent;
layers = (
{
layerId = "F961D97E-EEA9-4A8D-9339-D33FF8C656AD";
shapes = (
{
closed = 1;
nodes = (
(295,815,o),
(386,721,o),
(548,721,cs),
(677,721,o),
(809,815,o),
(809,1050,cs),
(809,1287,o),
(689,1379,o),
(548,1379,cs),
(419,1379,o),
(295,1290,o),
(295,1050,cs)
);
},
{
closed = 1;
nodes = (
(447,1198,o),
(462,1269,o),
(548,1269,cs),
(637,1269,o),
(659,1214,o),
(659,1050,cs),
(659,887,o),
(624,831,o),
(548,831,cs),
(471,831,o),
(447,896,o),
(447,1050,cs)
);
},
{
closed = 1;
nodes = (
(1440,1382,l),
(259,77,l),
(355,-17,l),
(1537,1295,l)
);
},
{
closed = 1;
nodes = (
(1020,94,o),
(1112,0,o),
(1273,0,cs),
(1402,0,o),
(1534,94,o),
(1534,329,cs),
(1534,566,o),
(1415,658,o),
(1273,658,cs),
(1145,658,o),
(1020,569,o),
(1020,329,cs)
);
},
{
closed = 1;
nodes = (
(1172,477,o),
(1188,548,o),
(1273,548,cs),
(1362,548,o),
(1384,493,o),
(1384,329,cs),
(1384,166,o),
(1349,110,o),
(1273,110,cs),
(1196,110,o),
(1172,175,o),
(1172,329,cs)
);
}
);
width = 1706;
},
{
layerId = "459F892D-0193-436C-99B7-2A4FAD43389C";
shapes = (
{
closed = 1;
nodes = (
(143,808,o),
(276,721,o),
(458,721,cs),
(653,721,o),
(769,808,o),
(769,1050,cs),
(769,1290,o),
(647,1379,o),
(458,1379,cs),
(260,1379,o),
(143,1275,o),
(143,1050,cs)
);
},
{
closed = 1;
nodes = (
(363,1150,o),
(399,1182,o),
(458,1182,cs),
(514,1182,o),
(545,1142,o),
(545,1050,cs),
(545,958,o),
(520,918,o),
(458,918,cs),
(389,918,o),
(363,976,o),
(363,1050,cs)
);
},
{
closed = 1;
nodes = (
(1147,1378,l),
(428,33,l),
(617,-76,l),
(1336,1256,l)
);
},
{
closed = 1;
nodes = (
(1026,87,o),
(1159,0,o),
(1341,0,cs),
(1536,0,o),
(1651,87,o),
(1651,329,cs),
(1651,569,o),
(1530,658,o),
(1341,658,cs),
(1142,658,o),
(1026,554,o),
(1026,329,cs)
);
},
{
closed = 1;
nodes = (
(1246,429,o),
(1281,461,o),
(1341,461,cs),
(1396,461,o),
(1428,421,o),
(1428,329,cs),
(1428,237,o),
(1403,197,o),
(1341,197,cs),
(1271,197,o),
(1246,255,o),
(1246,329,cs)
);
}
);
width = 1706;
},
{
layerId = "DE55C86C-15D8-4D4C-BA82-540887FA286E";
shapes = (
{
closed = 1;
nodes = (
(194,810,o),
(313,721,o),
(488,721,cs),
(661,721,o),
(782,810,o),
(782,1050,cs),
(782,1289,o),
(661,1379,o),
(488,1379,cs),
(313,1379,o),
(194,1280,o),
(194,1050,cs)
);
},
{
closed = 1;
nodes = (
(391,1166,o),
(420,1211,o),
(488,1211,cs),
(555,1211,o),
(583,1166,o),
(583,1050,cs),
(583,934,o),
(555,889,o),
(488,889,cs),
(416,889,o),
(391,949,o),
(391,1050,cs)
);
},
{
closed = 1;
nodes = (
(1245,1379,l),
(371,48,l),
(529,-56,l),
(1403,1269,l)
);
},
{
closed = 1;
nodes = (
(1024,89,o),
(1143,0,o),
(1318,0,cs),
(1491,0,o),
(1612,89,o),
(1612,329,cs),
(1612,568,o),
(1491,658,o),
(1318,658,cs),
(1143,658,o),
(1024,559,o),
(1024,329,cs)
);
},
{
closed = 1;
nodes = (
(1221,445,o),
(1250,490,o),
(1318,490,cs),
(1385,490,o),
(1413,445,o),
(1413,329,cs),
(1413,213,o),
(1385,168,o),
(1318,168,cs),
(1246,168,o),
(1221,228,o),
(1221,329,cs)
);
}
);
width = 1706;
},
{
layerId = "5406E1A9-98D2-48B0-A3BF-3E9D89732E2E";
shapes = (
{
closed = 1;
nodes = (
(270,813,o),
(368,721,o),
(533,721,cs),
(673,721,o),
(802,813,o),
(802,1050,cs),
(802,1287,o),
(682,1379,o),
(533,1379,cs),
(393,1379,o),
(270,1287,o),
(270,1050,cs)
);
},
{
closed = 1;
nodes = (
(433,1190,o),
(452,1255,o),
(533,1255,cs),
(617,1255,o),
(640,1202,o),
(640,1050,cs),
(640,898,o),
(607,845,o),
(533,845,cs),
(457,845,o),
(433,909,o),
(433,1050,cs)
);
},
{
closed = 1;
nodes = (
(1392,1381,l),
(286,70,l),
(397,-26,l),
(1504,1288,l)
);
},
{
closed = 1;
nodes = (
(1021,92,o),
(1119,0,o),
(1284,0,cs),
(1424,0,o),
(1553,92,o),
(1553,329,cs),
(1553,566,o),
(1433,658,o),
(1284,658,cs),
(1144,658,o),
(1021,566,o),
(1021,329,cs)
);
},
{
closed = 1;
nodes = (
(1184,469,o),
(1203,534,o),
(1284,534,cs),
(1368,534,o),
(1391,481,o),
(1391,329,cs),
(1391,177,o),
(1358,124,o),
(1284,124,cs),
(1208,124,o),
(1184,188,o),
(1184,329,cs)
);
}
);
width = 1706;
}
);
unicode = 37;
},
{
glyphname = ampersand;
layers = (
{
layerId = "F961D97E-EEA9-4A8D-9339-D33FF8C656AD";
shapes = (
{
closed = 1;
nodes = (
(99,199,o),
(186,93,o),
(265,45,cs),
(331,5,o),
(417,-15,o),
(501,-23,cs),
(519,-25,o),
(537,-26,o),
(556,-26,cs),
(794,-28,o),
(977,57,o),
(1085,155,c),
(1205,40,o),
(1314,-7,o),
(1354,-26,c),
(1474,87,l),
(1342,138,o),
(1271,186,o),
(1189,258,c),
(1277,338,o),
(1426,524,o),
(1469,602,c),
(1363,662,l),
(1308,559,o),
(1184,403,o),
(1109,339,c),
(978,454,o),
(833,631,o),
(751,818,c),
(1043,923,o),
(1145,1090,o),
(1145,1192,c),
(1145,1188,o),
(1145,1183,o),
(1146,1179,c),
(1151,1278,o),
(1078,1381,o),
(875,1381,cs),
(624,1381,o),
(505,1224,o),
(505,1082,cs),
(505,1001,o),
(535,924,o),
(571,849,c),
(296,716,o),
(99,542,o),
(99,308,cs)
);
},
{
closed = 1;
nodes = (
(899,155,o),
(723,108,o),
(575,108,cs),
(397,108,o),
(261,191,o),
(261,329,cs),
(261,405,o),
(287,499,o),
(390,586,cs),
(460,645,o),
(526,701,o),
(622,750,c),
(693,603,o),
(848,380,o),
(1000,240,c)
);
},
{
closed = 1;
nodes = (
(661,1184,o),
(715,1260,o),
(852,1260,cs),
(946,1260,o),
(990,1220,o),
(990,1156,cs),
(990,1072,o),
(900,1008,o),
(711,905,c),
(683,963,o),
(661,1025,o),
(661,1084,cs)
);
}
);
width = 1593;
},
{
layerId = "459F892D-0193-436C-99B7-2A4FAD43389C";
shapes = (
{
closed = 1;
nodes = (
(107,205,o),
(140,108,o),
(241,41,cs),
(309,-5,o),
(397,-33,o),
(515,-29,cs),
(531,-28,o),
(547,-28,o),
(564,-26,c),
(714,-16,o),
(819,3,o),
(1027,145,c),
(1062,99,o),
(1179,11,o),
(1258,-28,c),
(1482,212,l),
(1469,227,o),
(1334,311,o),
(1287,363,c),
(1351,418,o),
(1402,472,o),
(1501,614,c),
(1288,753,l),
(1214,640,o),
(1174,580,o),
(1097,516,c),
(1032,581,o),
(1002,643,o),
(928,766,c),
(1075,833,o),
(1280,927,o),
(1280,1141,cs),
(1280,1161,o),
(1279,1183,o),
(1275,1203,c),
(1249,1300,o),
(1158,1383,o),
(956,1383,cs),
(639,1383,o),
(483,1197,o),
(483,1042,cs),
(483,962,o),
(508,872,o),
(561,815,c),
(266,713,o),
(107,552,o),
(107,334,cs)
);
},
{
closed = 1;
nodes = (
(734,246,o),
(683,247,o),
(597,247,cs),
(507,247,o),
(449,330,o),
(449,412,cs),
(449,473,o),
(472,507,o),
(485,532,c),
(516,571,o),
(577,599,o),
(646,619,c),
(699,519,o),
(770,425,o),
(854,331,c)
);
},
{
closed = 1;
nodes = (
(806,1112,o),
(880,1150,o),
(933,1150,cs),
(990,1150,o),
(1024,1124,o),
(1024,1078,cs),
(1024,1036,o),
(983,948,o),
(857,911,c),
(810,977,o),
(806,1013,o),
(806,1054,cs)
);
}
);
width = 1593;
},
{
layerId = "DE55C86C-15D8-4D4C-BA82-540887FA286E";
shapes = (
{
closed = 1;
nodes = (
(104,203,o),
(155,103,o),
(249,42,cs),
(316,-2,o),
(404,-27,o),
(510,-27,cs),
(527,-27,o),
(544,-27,o),
(561,-26,cs),
(741,-20,o),
(872,21,o),
(1046,148,c),
(1110,79,o),
(1224,5,o),
(1290,-27,c),
(1479,170,l),
(1426,197,o),
(1313,269,o),
(1254,328,c),
(1326,391,o),
(1410,489,o),
(1490,610,c),
(1313,722,l),
(1245,613,o),
(1177,521,o),
(1101,457,c),
(1014,538,o),
(945,639,o),
(869,783,c),
(1064,863,o),
(1235,982,o),
(1235,1158,cs),
(1235,1170,o),
(1234,1183,o),
(1232,1195,cs),
(1216,1293,o),
(1131,1382,o),
(929,1382,cs),
(634,1382,o),
(490,1206,o),
(490,1055,cs),
(490,975,o),
(517,889,o),
(564,826,c),
(276,714,o),
(104,549,o),
(104,325,cs)
);
},
{
closed = 1;
nodes = (
(789,215,o),
(696,200,o),
(590,200,cs),
(470,200,o),
(386,283,o),
(386,384,cs),
(386,450,o),
(410,504,o),
(453,550,cs),
(497,596,o),
(560,633,o),
(638,663,c),
(697,547,o),
(796,410,o),
(903,300,c)
);
},
{
closed = 1;
nodes = (
(757,1136,o),
(825,1187,o),
(906,1187,cs),
(975,1187,o),
(1013,1156,o),
(1013,1104,cs),
(1013,1048,o),
(955,968,o),
(808,909,c),
(767,972,o),
(757,1017,o),
(757,1064,cs)
);
}
);
width = 1593;
},
{
layerId = "5406E1A9-98D2-48B0-A3BF-3E9D89732E2E";
shapes = (
{
closed = 1;
nodes = (
(100,200,o),
(178,95,o),
(261,44,cs),
(327,3,o),
(414,-18,o),
(503,-24,cs),
(521,-25,o),
(539,-26,o),
(557,-26,cs),
(781,-26,o),
(951,48,o),
(1075,153,c),
(1182,49,o),
(1292,-4,o),
(1338,-26,c),
(1475,107,l),
(1362,152,o),
(1281,206,o),
(1205,275,c),
(1289,351,o),
(1422,515,o),
(1474,604,c),
(1351,676,l),
(1292,572,o),
(1182,432,o),
(1107,368,c),
(987,474,o),
(860,633,o),
(780,809,c),
(1048,908,o),
(1167,1064,o),
(1167,1183,c),
(1167,1183,o),
(1167,1183,o),
(1167,1183,c),
(1167,1282,o),
(1091,1381,o),
(888,1381,cs),
(626,1381,o),
(501,1219,o),
(501,1075,cs),
(501,994,o),
(530,915,o),
(569,843,c),
(291,715,o),
(100,544,o),
(100,312,cs)
);
},
{
closed = 1;
nodes = (
(872,169,o),
(716,130,o),
(579,130,cs),
(415,130,o),
(291,213,o),
(291,342,cs),
(291,416,o),
(317,500,o),
(405,577,cs),
(469,633,o),
(534,684,o),
(626,729,c),
(694,589,o),
(835,387,o),
(976,254,c)
);
},
{
closed = 1;
nodes = (
(684,1172,o),
(742,1242,o),
(865,1242,cs),
(953,1242,o),
(996,1204,o),
(996,1143,cs),
(996,1066,o),
(913,998,o),
(734,906,c),
(703,965,o),
(684,1023,o),
(684,1079,cs)
);
}
);
width = 1593;
}
);
unicode = 38;
},
{
glyphname = quotesingle;
layers = (
{
layerId = "F961D97E-EEA9-4A8D-9339-D33FF8C656AD";
shapes = (
{
closed = 1;
nodes = (
(349,1356,l),
(267,985,l),
(358,985,l),
(506,1356,l)
);
}
);
width = 396;
},
{
layerId = "459F892D-0193-436C-99B7-2A4FAD43389C";
shapes = (
{
closed = 1;
nodes = (
(359,1356,l),
(277,907,l),
(481,907,l),
(641,1356,l)
);
}
);
width = 656;
},
{
layerId = "DE55C86C-15D8-4D4C-BA82-540887FA286E";
shapes = (
{
closed = 1;
nodes = (
(356,1356,l),
(274,933,l),
(440,933,l),
(596,1356,l)
);
}
);
width = 569;
},
{
layerId = "5406E1A9-98D2-48B0-A3BF-3E9D89732E2E";
shapes = (
{
closed = 1;
nodes = (
(351,1356,l),
(269,972,l),
(378,972,l),
(528,1356,l)
);
}
);
width = 438;
}
);
unicode = 39;
},
{
glyphname = parenleft;
layers = (
{
layerId = "F961D97E-EEA9-4A8D-9339-D33FF8C656AD";
shapes = (
{
closed = 1;
nodes = (
(470,-350,l),
(415,-273,o),
(378,-172,o),
(354,-66,cs),
(329,41,o),
(320,150,o),
(320,246,cs),
(320,376,o),
(341,543,o),
(416,727,cs),
(489,909,o),
(617,1112,o),
(830,1307,c),
(754,1379,l),
(542,1206,o),
(395,1008,o),
(300,806,cs),
(205,605,o),
(162,403,o),
(162,224,cs),
(162,118,o),
(175,-2,o),
(206,-118,cs),
(237,-233,o),
(285,-344,o),
(355,-426,c)
);
}
);
width = 682;
},
{
layerId = "459F892D-0193-436C-99B7-2A4FAD43389C";
shapes = (
{
closed = 1;
nodes = (
(583,-284,l),
(537,-210,o),
(505,-116,o),
(483,-20,cs),
(463,79,o),
(451,184,o),
(451,276,cs),
(451,423,o),
(478,588,o),
(543,754,cs),
(608,921,o),
(708,1084,o),
(852,1237,c),
(664,1379,l),
(470,1214,o),
(335,1022,o),
(246,828,cs),
(157,635,o),
(118,439,o),
(118,258,cs),
(118,145,o),
(133,18,o),
(166,-103,cs),
(198,-224,o),
(249,-337,o),
(327,-426,c)
);
}
);
width = 682;
},
{
layerId = "DE55C86C-15D8-4D4C-BA82-540887FA286E";
shapes = (
{
closed = 1;
nodes = (
(545,-306,l),
(496,-231,o),
(462,-135,o),
(440,-35,cs),
(418,66,o),
(407,173,o),
(407,266,cs),
(407,407,o),
(432,573,o),
(500,745,cs),
(568,917,o),
(677,1093,o),
(845,1260,c),
(694,1379,l),
(494,1211,o),
(355,1017,o),
(264,821,cs),
(173,625,o),
(133,427,o),
(133,247,cs),
(133,136,o),
(147,11,o),
(179,-108,cs),
(211,-227,o),
(261,-339,o),
(336,-426,c)
);
}
);
width = 682;
},
{
layerId = "5406E1A9-98D2-48B0-A3BF-3E9D89732E2E";
shapes = (
{
closed = 1;
nodes = (
(488,-339,l),
(435,-263,o),
(398,-163,o),
(375,-58,cs),
(351,47,o),
(341,156,o),
(341,251,cs),
(341,383,o),
(363,550,o),
(436,731,cs),
(508,911,o),
(631,1107,o),
(834,1295,c),
(739,1379,l),
(530,1207,o),
(385,1010,o),
(291,810,cs),
(197,610,o),
(155,409,o),
(155,230,cs),
(155,122,o),
(168,1,o),
(199,-115,cs),
(230,-231,o),
(279,-342,o),
(350,-426,c)
);
}
);
width = 682;
}
);
unicode = 40;
},
{
glyphname = parenright;
layers = (
{
layerId = "F961D97E-EEA9-4A8D-9339-D33FF8C656AD";
shapes = (
{
closed = 1;
nodes = (
(-57,-426,l),
(355,-101,o),
(527,357,o),
(527,713,cs),
(527,924,o),
(473,1201,o),
(331,1379,c),
(223,1307,l),
(333,1137,o),
(375,901,o),
(375,718,cs),
(375,359,o),
(191,-66,o),
(-140,-350,c)
);
}
);
width = 682;
},
{
layerId = "459F892D-0193-436C-99B7-2A4FAD43389C";
shapes = (
{
closed = 1;
nodes = (
(120,-426,l),
(510,-115,o),
(654,341,o),
(654,671,cs),
(654,900,o),
(596,1183,o),
(442,1379,c),
(199,1237,l),
(293,1091,o),
(327,873,o),
(327,691,cs),
(327,347,o),
(184,-15,o),
(-82,-284,c)
);
}
);
width = 682;
},
{
layerId = "DE55C86C-15D8-4D4C-BA82-540887FA286E";
shapes = (
{
closed = 1;
nodes = (
(61,-426,l),
(458,-110,o),
(611,346,o),
(611,685,cs),
(611,908,o),
(555,1189,o),
(405,1379,c),
(207,1260,l),
(306,1106,o),
(343,882,o),
(343,700,cs),
(343,351,o),
(186,-32,o),
(-101,-306,c)
);
}
);
width = 682;
},
{
layerId = "5406E1A9-98D2-48B0-A3BF-3E9D89732E2E";
shapes = (
{
closed = 1;
nodes = (
(-28,-426,l),
(380,-103,o),
(547,354,o),
(547,706,cs),
(547,920,o),
(493,1198,o),
(349,1379,c),
(219,1295,l),
(326,1129,o),
(367,896,o),
(367,713,cs),
(367,357,o),
(189,-57,o),
(-130,-339,c)
);
}
);
width = 682;
}
);
unicode = 41;
},
{
glyphname = asterisk;
layers = (
{
layerId = "F961D97E-EEA9-4A8D-9339-D33FF8C656AD";
shapes = (
{
closed = 1;
nodes = (
(515,1395,l),
(388,1324,l),
(460,1207,l),
(580,1089,l),
(409,1122,l),
(278,1122,l),
(278,975,l),
(409,975,l),
(567,1008,l),
(454,899,l),
(381,793,l),
(515,720,l),
(580,827,l),
(629,975,l),
(693,821,l),
(763,713,l),
(884,784,l),
(824,884,l),
(702,1007,l),
(874,975,l),
(995,975,l),
(995,1122,l),
(870,1122,l),
(683,1089,l),
(807,1214,l),
(877,1326,l),
(750,1395,l),
(686,1288,l),
(631,1146,l),
(583,1288,l)
);
}
);
width = 1024;
},
{
layerId = "459F892D-0193-436C-99B7-2A4FAD43389C";
shapes = (
{
closed = 1;
nodes = (
(581,1437,l),
(447,1358,l),
(499,1270,l),
(595,1199,l),
(498,1235,l),
(381,1235,l),
(381,1082,l),
(495,1082,l),
(589,1115,l),
(508,1062,l),
(450,963,l),
(581,887,l),
(639,984,l),
(655,1082,l),
(684,970,l),
(733,883,l),
(869,959,l),
(821,1039,l),
(728,1118,l),
(832,1082,l),
(939,1082,l),
(939,1232,l),
(826,1232,l),
(717,1199,l),
(804,1264,l),
(862,1365,l),
(730,1437,l),
(676,1344,l),
(657,1249,l),
(634,1354,l)
);
}
);
width = 1024;
},
{
layerId = "DE55C86C-15D8-4D4C-BA82-540887FA286E";
shapes = (
{
closed = 1;
nodes = (
(559,1423,l),
(427,1347,l),
(486,1249,l),
(590,1162,l),
(468,1197,l),
(346,1197,l),
(346,1046,l),
(466,1046,l),
(582,1079,l),
(490,1007,l),
(427,906,l),
(559,831,l),
(619,931,l),
(646,1046,l),
(687,920,l),
(743,826,l),
(874,900,l),
(822,987,l),
(719,1081,l),
(846,1046,l),
(958,1046,l),
(958,1195,l),
(841,1195,l),
(706,1162,l),
(805,1247,l),
(867,1352,l),
(737,1423,l),
(679,1325,l),
(648,1214,l),
(617,1332,l)
);
}
);
width = 1024;
},
{
layerId = "5406E1A9-98D2-48B0-A3BF-3E9D89732E2E";
shapes = (
{
closed = 1;
nodes = (
(526,1402,l),
(397,1330,l),
(466,1217,l),
(582,1107,l),
(423,1140,l),
(294,1140,l),
(294,992,l),
(423,992,l),
(571,1025,l),
(463,925,l),
(392,820,l),
(526,747,l),
(589,852,l),
(633,992,l),
(691,845,l),
(758,740,l),
(881,812,l),
(823,909,l),
(706,1025,l),
(867,992,l),
(986,992,l),
(986,1140,l),
(863,1140,l),
(689,1107,l),
(806,1222,l),
(874,1332,l),
(747,1402,l),
(684,1297,l),
(635,1162,l),
(591,1299,l)
);
}
);
width = 1024;
}
);
unicode = 42;
},
{
glyphname = plus;
layers = (
{
layerId = "F961D97E-EEA9-4A8D-9339-D33FF8C656AD";
shapes = (
{
closed = 1;
nodes = (
(318,723,l),
(318,583,l),
(695,583,l),
(695,206,l),
(839,206,l),
(839,583,l),
(1218,583,l),
(1218,723,l),
(839,723,l),
(839,1097,l),
(695,1097,l),
(695,723,l)
);
}
);
width = 1451;
},
{
layerId = "459F892D-0193-436C-99B7-2A4FAD43389C";
shapes = (
{
closed = 1;
nodes = (
(111,792,l),
(111,513,l),
(433,513,l),
(433,176,l),
(722,176,l),
(722,513,l),
(1043,513,l),
(1043,792,l),
(722,792,l),
(722,1129,l),
(433,1129,l),
(433,792,l)
);
}
);
width = 1024;
},
{
layerId = "DE55C86C-15D8-4D4C-BA82-540887FA286E";
shapes = (
{
closed = 1;
nodes = (
(180,769,l),
(180,536,l),
(521,536,l),
(521,186,l),
(761,186,l),
(761,536,l),
(1102,536,l),
(1102,769,l),
(761,769,l),
(761,1118,l),
(521,1118,l),
(521,769,l)
);
}
);
width = 1167;
},
{
layerId = "5406E1A9-98D2-48B0-A3BF-3E9D89732E2E";
shapes = (
{
closed = 1;
nodes = (
(284,734,l),
(284,571,l),
(653,571,l),
(653,201,l),
(820,201,l),
(820,571,l),
(1190,571,l),
(1190,734,l),
(820,734,l),
(820,1102,l),
(653,1102,l),
(653,734,l)
);
}
);
width = 1382;
}
);
unicode = 43;
},
{
glyphname = comma;
layers = (
{
layerId = "F961D97E-EEA9-4A8D-9339-D33FF8C656AD";
shapes = (
{
closed = 1;
nodes = (
(70,32,o),
(78,9,o),
(95,-4,cs),
(118,-21,o),
(148,-23,o),
(188,-10,c),
(181,-49,o),
(159,-91,o),
(123,-131,cs),
(116,-139,o),
(108,-147,o),
(101,-153,cs),
(73,-176,o),
(38,-195,o),
(-4,-208,c),
(27,-291,l),
(208,-242,o),
(327,-103,o),
(327,65,cs),
(327,98,o),
(319,124,o),
(307,143,c),
(287,171,o),
(255,188,o),
(214,188,cs),
(174,188,o),
(132,171,o),
(105,143,cs),
(84,121,o),
(70,91,o),
(70,57,cs)
);
}
);
width = 512;
},
{
layerId = "459F892D-0193-436C-99B7-2A4FAD43389C";
shapes = (
{
closed = 1;
nodes = (
(18,81,o),
(24,51,o),
(45,33,c),
(69,8,o),
(96,-5,o),
(124,-7,c),
(114,-26,o),
(105,-42,o),
(96,-56,c),
(87,-66,o),
(77,-75,o),
(68,-86,c),
(30,-124,o),
(-6,-146,o),
(-41,-156,c),
(29,-285,l),
(131,-257,o),
(417,-172,o),
(417,145,cs),
(417,181,o),
(411,225,o),
(385,260,cs),
(356,301,o),
(309,322,o),
(240,322,cs),
(189,322,o),
(147,311,o),
(108,284,cs),
(47,242,o),
(18,194,o),
(18,118,cs)
);
}
);
width = 512;
},
{
layerId = "DE55C86C-15D8-4D4C-BA82-540887FA286E";
shapes = (
{
closed = 1;
nodes = (
(36,64,o),
(43,36,o),
(62,20,cs),
(86,-2,o),
(114,-11,o),
(146,-8,c),
(137,-34,o),
(124,-59,o),
(105,-82,cs),
(97,-91,o),
(88,-100,o),
(79,-109,cs),
(45,-142,o),
(9,-163,o),
(-28,-174,c),
(28,-287,l),
(158,-252,o),
(386,-148,o),
(386,117,cs),
(386,152,o),
(379,190,o),
(358,219,cs),
(332,256,o),
(290,275,o),
(231,275,cs),
(184,275,o),
(142,262,o),
(107,235,cs),
(60,200,o),
(36,158,o),
(36,97,cs)
);
}
);
width = 512;
},
{
layerId = "5406E1A9-98D2-48B0-A3BF-3E9D89732E2E";
shapes = (
{
closed = 1;
nodes = (
(63,38,o),
(71,14,o),
(88,1,cs),
(111,-17,o),
(141,-20,o),
(179,-9,c),
(172,-46,o),
(152,-84,o),
(119,-121,cs),
(112,-129,o),
(104,-137,o),
(96,-144,cs),
(67,-169,o),
(32,-188,o),
(-9,-201,c),
(27,-290,l),
(198,-244,o),
(339,-112,o),
(339,75,cs),
(339,109,o),
(331,137,o),
(317,158,cs),
(296,188,o),
(262,205,o),
(217,205,cs),
(176,205,o),
(134,189,o),
(105,161,cs),
(79,137,o),
(63,104,o),
(63,65,cs)
);
}
);
width = 512;
}
);
unicode = 44;
},
{
glyphname = hyphen;
layers = (
{
layerId = "F961D97E-EEA9-4A8D-9339-D33FF8C656AD";
shapes = (
{
closed = 1;
nodes = (
(92,638,l),
(92,484,l),
(627,484,l),
(627,638,l)
);
}
);
width = 682;
},
{
layerId = "459F892D-0193-436C-99B7-2A4FAD43389C";
shapes = (
{
closed = 1;
nodes = (
(160,668,l),
(160,445,l),
(579,445,l),
(579,668,l)
);
}
);
width = 682;
},
{
layerId = "DE55C86C-15D8-4D4C-BA82-540887FA286E";
shapes = (
{
closed = 1;
nodes = (
(137,658,l),
(137,458,l),
(595,458,l),
(595,658,l)
);
}
);
width = 682;
},
{
layerId = "5406E1A9-98D2-48B0-A3BF-3E9D89732E2E";
shapes = (
{
closed = 1;
nodes = (
(103,643,l),
(103,477,l),
(619,477,l),
(619,643,l)
);
}
);
width = 682;
}
);
unicode = (45,173);
},
{
glyphname = period;
layers = (
{
layerId = "F961D97E-EEA9-4A8D-9339-D33FF8C656AD";
shapes = (
{
closed = 1;
nodes = (
(80,19,o),
(131,-25,o),
(198,-25,cs),
(262,-25,o),
(314,23,o),
(315,87,cs),
(315,157,o),
(266,199,o),
(198,199,cs),
(125,199,o),
(80,157,o),
(80,87,cs)
);
}
);
width = 512;
},
{
layerId = "459F892D-0193-436C-99B7-2A4FAD43389C";
shapes = (
{
closed = 1;
nodes = (
(-6,43,o),
(83,-21,o),
(188,-21,cs),
(294,-21,o),
(389,37,o),
(386,153,c),
(386,262,o),
(310,328,o),
(188,328,cs),
(74,328,o),
(-6,262,o),
(-6,153,cs)
);
}
);
width = 512;
},
{
layerId = "DE55C86C-15D8-4D4C-BA82-540887FA286E";
shapes = (
{
closed = 1;
nodes = (
(23,35,o),
(99,-22,o),
(191,-22,cs),
(283,-22,o),
(364,32,o),
(362,131,c),
(362,227,o),
(295,285,o),
(191,285,cs),
(91,285,o),
(23,227,o),
(23,131,cs)
);
}
);
width = 512;
},
{
layerId = "5406E1A9-98D2-48B0-A3BF-3E9D89732E2E";
shapes = (
{
closed = 1;
nodes = (
(66,23,o),
(123,-24,o),
(196,-24,cs),
(267,-24,o),
(326,25,o),
(326,98,cs),
(326,174,o),
(273,220,o),
(196,220,cs),
(116,220,o),
(66,174,o),
(66,98,cs)
);
}
);
width = 512;
}
);
unicode = 46;
},
{
glyphname = slash;
layers = (
{
layerId = "F961D97E-EEA9-4A8D-9339-D33FF8C656AD";
shapes = (
{
closed = 1;
nodes = (
(650,1380,l),
(-205,-178,l),
(-90,-249,l),
(769,1314,l)
);
}
);
width = 569;
},
{
layerId = "459F892D-0193-436C-99B7-2A4FAD43389C";
shapes = (
{
closed = 1;
nodes = (
(534,1376,l),
(-211,-319,l),
(72,-383,l),
(808,1311,l)
);
}
);
width = 569;
},
{
layerId = "DE55C86C-15D8-4D4C-BA82-540887FA286E";
shapes = (
{
closed = 1;
nodes = (
(559,1377,l),
(-196,-272,l),
(31,-338,l),
(781,1312,l)
);
}
);
width = 569;
},
{
layerId = "5406E1A9-98D2-48B0-A3BF-3E9D89732E2E";
shapes = (
{
closed = 1;
nodes = (
(597,1379,l),
(-173,-201,l),
(-31,-271,l),
(741,1313,l)
);
}
);
width = 569;
}
);
unicode = 47;
},
{
glyphname = zero;
layers = (
{
layerId = "F961D97E-EEA9-4A8D-9339-D33FF8C656AD";
shapes = (
{
closed = 1;
nodes = (
(142,167,o),
(248,-26,o),
(446,-26,cs),
(640,-26,o),
(790,104,o),
(901,340,cs),
(963,476,o),
(1020,703,o),
(1020,964,cs),
(1020,1178,o),
(927,1381,o),
(707,1381,cs),
(540,1381,o),
(409,1264,o),
(325,1130,cs),
(200,928,o),
(142,651,o),
(142,401,cs)
);
},
{
closed = 1;
nodes = (
(307,665,o),
(359,861,o),
(409,989,cs),
(478,1168,o),
(572,1248,o),
(676,1248,cs),
(822,1248,o),
(859,1114,o),
(859,946,cs),
(859,711,o),
(806,506,o),
(756,378,cs),
(656,120,o),
(534,108,o),
(466,108,cs),
(345,108,o),
(307,249,o),
(307,426,cs)
);
}
);
width = 1024;
},
{
layerId = "459F892D-0193-436C-99B7-2A4FAD43389C";
shapes = (
{
closed = 1;
nodes = (
(84,123,o),
(212,-29,o),
(422,-29,cs),
(620,-29,o),
(770,88,o),
(867,250,c),
(973,440,o),
(1022,663,o),
(1022,892,cs),
(1022,1235,o),
(887,1383,o),
(687,1383,cs),
(470,1383,o),
(325,1248,o),
(219,1050,c),
(154,925,o),
(84,683,o),
(84,457,cs)
);
},
{
closed = 1;
nodes = (
(402,522,o),
(425,714,o),
(456,826,c),
(512,1018,o),
(563,1110,o),
(637,1110,cs),
(676,1110,o),
(700,1054,o),
(700,936,cs),
(700,729,o),
(668,589,o),
(630,477,cs),
(586,349,o),
(558,243,o),
(476,243,cs),
(436,243,o),
(402,294,o),
(402,410,cs)
);
}
);
width = 1024;
},
{
layerId = "DE55C86C-15D8-4D4C-BA82-540887FA286E";
shapes = (
{
closed = 1;
nodes = (
(103,138,o),
(224,-28,o),
(430,-28,cs),
(627,-28,o),
(777,93,o),
(878,280,cs),
(970,452,o),
(1021,676,o),
(1021,916,cs),
(1021,1216,o),
(900,1382,o),
(694,1382,cs),
(493,1382,o),
(353,1253,o),
(254,1077,cs),
(169,926,o),
(103,672,o),
(103,438,cs)
);
},
{
closed = 1;
nodes = (
(370,570,o),
(403,763,o),
(440,881,cs),
(501,1068,o),
(566,1156,o),
(650,1156,cs),
(725,1156,o),
(753,1074,o),
(753,939,cs),
(753,723,o),
(714,561,o),
(672,444,cs),
(609,272,o),
(550,198,o),
(473,198,cs),
(405,198,o),
(370,279,o),
(370,415,cs)
);
}
);
width = 1024;
},
{
layerId = "5406E1A9-98D2-48B0-A3BF-3E9D89732E2E";
shapes = (
{
closed = 1;
nodes = (
(132,160,o),
(242,-26,o),
(442,-26,cs),
(637,-26,o),
(787,101,o),
(895,325,cs),
(965,470,o),
(1020,696,o),
(1020,952,cs),
(1020,1187,o),
(920,1381,o),
(704,1381,cs),
(528,1381,o),
(395,1261,o),
(307,1117,cs),
(192,927,o),
(132,656,o),
(132,410,cs)
);
},
{
closed = 1;
nodes = (
(322,642,o),
(370,837,o),
(416,963,cs),
(484,1143,o),
(570,1225,o),
(669,1225,cs),
(798,1225,o),
(833,1104,o),
(833,944,cs),
(833,714,o),
(783,519,o),
(735,394,cs),
(644,157,o),
(538,130,o),
(468,130,cs),
(359,130,o),
(322,256,o),
(322,423,cs)
);
}
);
width = 1024;
}
);
unicode = 48;
},
{
glyphname = one;
layers = (
{
layerId = "F961D97E-EEA9-4A8D-9339-D33FF8C656AD";
shapes = (
{
closed = 1;
nodes = (
(129,143,l),
(97,0,l),
(869,0,l),
(901,143,l),
(592,143,l),
(861,1356,l),
(798,1356,l),
(244,1019,l),
(296,920,l),
(595,1097,l),
(699,1192,l),
(649,1079,l),
(441,143,l)
);
}
);
width = 1024;
},
{
layerId = "459F892D-0193-436C-99B7-2A4FAD43389C";
shapes = (
{
closed = 1;
nodes = (
(149,270,l),
(99,0,l),
(817,0,l),
(867,270,l),
(670,270,l),
(871,1356,l),
(672,1356,l),
(216,1029,l),
(304,840,l),
(380,882,l),
(488,981,l),
(458,838,l),
(354,270,l)
);
}
);
width = 1024;
},
{
layerId = "DE55C86C-15D8-4D4C-BA82-540887FA286E";
shapes = (
{
closed = 1;
nodes = (
(142,227,l),
(98,0,l),
(834,0,l),
(878,227,l),
(644,227,l),
(868,1356,l),
(714,1356,l),
(225,1026,l),
(301,867,l),
(452,954,l),
(559,1052,l),
(522,919,l),
(383,227,l)
);
}
);
width = 1024;
},
{
layerId = "5406E1A9-98D2-48B0-A3BF-3E9D89732E2E";
shapes = (
{
closed = 1;
nodes = (
(132,163,l),
(97,0,l),
(860,0,l),
(895,163,l),
(605,163,l),
(863,1356,l),
(777,1356,l),
(239,1021,l),
(297,907,l),
(560,1062,l),
(665,1158,l),
(618,1040,l),
(427,163,l)
);
}
);
width = 1024;
}
);
unicode = 49;
},
{
glyphname = two;
layers = (
{
layerId = "F961D97E-EEA9-4A8D-9339-D33FF8C656AD";
shapes = (
{
closed = 1;
nodes = (
(957,1275,o),
(815,1381,o),
(644,1381,cs),
(478,1381,o),
(379,1335,o),
(270,1244,c),
(278,1226,o),
(306,1155,o),
(313,1135,c),
(411,1200,o),
(465,1243,o),
(579,1243,cs),
(691,1243,o),
(789,1171,o),
(789,1047,cs),
(789,707,o),
(292,215,o),
(91,49,c),
(80,0,l),
(855,0,l),
(888,143,l),
(439,143,l),
(299,124,l),
(301,131,l),
(422,217,l),
(746,514,o),
(957,805,o),
(957,1080,cs)
);
}
);
width = 1024;
},
{
layerId = "459F892D-0193-436C-99B7-2A4FAD43389C";
shapes = (
{
closed = 1;
nodes = (
(987,1255,o),
(849,1383,o),
(652,1383,cs),
(496,1383,o),
(369,1328,o),
(222,1232,c),
(239,1187,o),
(296,1041,o),
(313,995,c),
(341,1023,o),
(443,1091,o),
(525,1091,cs),
(611,1091,o),
(628,1037,o),
(628,963,cs),
(628,763,o),
(441,487,o),
(5,178,c),
(-28,0,l),
(792,0,l),
(842,270,l),
(581,270,l),
(419,234,l),
(421,241,l),
(546,320,l),
(709,472,o),
(987,759,o),
(987,1060,cs)
);
}
);
width = 1024;
},
{
layerId = "DE55C86C-15D8-4D4C-BA82-540887FA286E";
shapes = (
{
closed = 1;
nodes = (
(977,1262,o),
(838,1382,o),
(649,1382,cs),
(490,1382,o),
(372,1330,o),
(238,1236,c),
(252,1200,o),
(299,1079,o),
(313,1042,c),
(364,1082,o),
(450,1142,o),
(543,1142,cs),
(638,1142,o),
(682,1082,o),
(682,991,cs),
(682,744,o),
(391,396,o),
(34,135,c),
(8,0,l),
(813,0,l),
(857,227,l),
(526,227,l),
(371,197,l),
(373,204,l),
(497,285,l),
(714,486,o),
(977,774,o),
(977,1067,cs)
);
}
);
width = 1024;
},
{
layerId = "5406E1A9-98D2-48B0-A3BF-3E9D89732E2E";
shapes = (
{
closed = 1;
nodes = (
(962,1272,o),
(821,1381,o),
(645,1381,cs),
(481,1381,o),
(377,1333,o),
(262,1242,c),
(271,1219,o),
(304,1136,o),
(313,1112,c),
(399,1171,o),
(461,1218,o),
(570,1218,cs),
(678,1218,o),
(763,1149,o),
(763,1033,cs),
(763,716,o),
(316,259,o),
(77,70,c),
(62,0,l),
(845,0,l),
(880,163,l),
(443,163,l),
(299,142,l),
(301,149,l),
(423,233,l),
(721,507,o),
(962,797,o),
(962,1077,cs)
);
}
);
width = 1024;
}
);
unicode = 50;
},
{
glyphname = three;
layers = (
{
layerId = "F961D97E-EEA9-4A8D-9339-D33FF8C656AD";
shapes = (
{
closed = 1;
nodes = (
(261,116,o),
(180,136,o),
(111,170,c),
(37,28,l),
(106,-4,o),
(200,-26,o),
(327,-26,cs),
(652,-26,o),
(907,167,o),
(907,483,cs),
(907,666,o),
(755,756,o),
(600,772,c),
(522,761,l),
(523,767,l),
(604,822,l),
(1028,1298,l),
(1040,1356,l),
(317,1356,l),
(284,1209,l),
(689,1209,l),
(836,1228,l),
(715,1142,l),
(341,714,l),
(330,659,l),
(468,659,ls),
(650,659,o),
(738,567,o),
(738,438,cs),
(738,250,o),
(595,116,o),
(374,116,cs)
);
}
);
width = 1024;
},
{
layerId = "459F892D-0193-436C-99B7-2A4FAD43389C";
shapes = (
{
closed = 1;
nodes = (
(234,245,o),
(154,295,o),
(145,306,c),
(4,39,l),
(102,-6,o),
(252,-28,o),
(369,-28,cs),
(644,-28,o),
(930,141,o),
(930,504,cs),
(930,695,o),
(804,800,o),
(690,816,c),
(625,818,l),
(626,824,l),
(784,917,l),
(1018,1163,l),
(1055,1356,l),
(334,1356,l),
(284,1086,l),
(499,1086,l),
(648,1095,l),
(546,1012,l),
(303,779,l),
(266,587,l),
(396,587,ls),
(561,587,o),
(596,538,o),
(596,452,cs),
(596,365,o),
(537,245,o),
(343,245,cs)
);
}
);
width = 1024;
},
{
layerId = "DE55C86C-15D8-4D4C-BA82-540887FA286E";
shapes = (
{
closed = 1;
nodes = (
(243,200,o),
(163,240,o),
(133,259,c),
(15,35,l),
(103,-5,o),
(234,-27,o),
(354,-27,cs),
(647,-27,o),
(922,150,o),
(922,497,cs),
(922,685,o),
(787,785,o),
(659,801,c),
(589,798,l),
(590,804,l),
(721,884,l),
(1021,1210,l),
(1050,1356,l),
(328,1356,l),
(284,1129,l),
(565,1129,l),
(713,1141,l),
(605,1057,l),
(316,756,l),
(288,612,l),
(421,612,ls),
(592,612,o),
(645,548,o),
(645,447,cs),
(645,325,o),
(557,200,o),
(354,200,cs)
);
}
);
width = 1024;
},
{
layerId = "5406E1A9-98D2-48B0-A3BF-3E9D89732E2E";
shapes = (
{
closed = 1;
nodes = (
(257,133,o),
(176,157,o),
(115,188,c),
(32,29,l),
(105,-4,o),
(207,-26,o),
(332,-26,cs),
(651,-26,o),
(910,163,o),
(910,486,cs),
(910,670,o),
(761,762,o),
(612,778,c),
(535,768,l),
(536,774,l),
(627,834,l),
(1026,1280,l),
(1042,1356,l),
(319,1356,l),
(284,1193,l),
(664,1193,l),
(811,1210,l),
(693,1125,l),
(336,722,l),
(321,649,l),
(458,649,ls),
(638,649,o),
(719,563,o),
(719,440,cs),
(719,265,o),
(587,133,o),
(370,133,cs)
);
}
);
width = 1024;
}
);
unicode = 51;
},
{
glyphname = four;
layers = (
{
layerId = "F961D97E-EEA9-4A8D-9339-D33FF8C656AD";
shapes = (
{
closed = 1;
nodes = (
(979,419,l),
(1008,553,l),
(824,553,l),
(1001,1356,l),
(901,1356,l),
(81,479,l),
(67,419,l),
(642,419,l),
(550,0,l),
(703,0,l),
(795,419,l)
);
},
{
closed = 1;
nodes = (
(760,936,l),
(671,553,l),
(426,553,l),
(268,533,l),
(377,628,l),
(706,968,l),
(816,1093,l)
);
}
);
width = 1024;
},
{
layerId = "459F892D-0193-436C-99B7-2A4FAD43389C";
shapes = (
{
closed = 1;
nodes = (
(993,351,l),
(1040,600,l),
(892,600,l),
(1029,1356,l),
(741,1356,l),
(72,548,l),
(35,351,l),
(538,351,l),
(475,0,l),
(781,0,l),
(845,351,l)
);
},
{
closed = 1;
nodes = (
(619,813,l),
(585,600,l),
(492,600,l),
(390,599,l),
(457,670,l),
(569,827,l),
(644,955,l)
);
}
);
width = 1024;
},
{
layerId = "DE55C86C-15D8-4D4C-BA82-540887FA286E";
shapes = (
{
closed = 1;
nodes = (
(988,374,l),
(1029,584,l),
(869,584,l),
(1023,1356,l),
(798,1356,l),
(75,525,l),
(46,374,l),
(573,374,l),
(500,0,l),
(755,0,l),
(828,374,l)
);
},
{
closed = 1;
nodes = (
(670,854,l),
(614,584,l),
(470,584,l),
(349,577,l),
(430,656,l),
(618,874,l),
(705,1001,l)
);
}
);
width = 1024;
},
{
layerId = "5406E1A9-98D2-48B0-A3BF-3E9D89732E2E";
shapes = (
{
closed = 1;
nodes = (
(981,408,l),
(1013,560,l),
(835,560,l),
(1005,1356,l),
(875,1356,l),
(79,490,l),
(62,408,l),
(625,408,l),
(538,0,l),
(716,0,l),
(803,408,l)
);
},
{
closed = 1;
nodes = (
(737,916,l),
(657,560,l),
(437,560,l),
(288,544,l),
(390,635,l),
(683,945,l),
(788,1070,l)
);
}
);
width = 1024;
}
);
unicode = 52;
},
{
glyphname = five;
layers = (
{
layerId = "F961D97E-EEA9-4A8D-9339-D33FF8C656AD";
shapes = (
{
closed = 1;
nodes = (
(201,118,o),
(145,154,o),
(121,160,c),
(47,23,l),
(64,13,o),
(144,-26,o),
(247,-26,cs),
(621,-26,o),
(900,181,o),
(900,538,cs),
(900,747,o),
(740,832,o),
(543,832,cs),
(516,832,o),
(489,830,o),
(462,828,c),
(544,1206,l),
(990,1206,l),
(1022,1356,l),
(423,1356,l),
(278,686,l),
(336,689,o),
(391,693,o),
(449,694,cs),
(664,696,o),
(732,618,o),
(732,472,cs),
(732,227,o),
(508,118,o),
(291,118,cs)
);
}
);
width = 1024;
},
{
layerId = "459F892D-0193-436C-99B7-2A4FAD43389C";
shapes = (
{
closed = 1;
nodes = (
(284,264,o),
(225,294,o),
(190,312,c),
(49,38,l),
(185,-22,o),
(288,-28,o),
(393,-28,cs),
(732,-28,o),
(932,176,o),
(932,511,cs),
(932,718,o),
(817,884,o),
(658,884,cs),
(627,884,o),
(595,882,o),
(563,882,c),
(592,1050,l),
(934,1050,l),
(991,1356,l),
(369,1356,l),
(232,611,l),
(305,616,o),
(385,626,o),
(458,619,c),
(506,606,o),
(597,572,o),
(597,454,cs),
(597,336,o),
(527,264,o),
(404,264,cs)
);
}
);
width = 1024;
},
{
layerId = "DE55C86C-15D8-4D4C-BA82-540887FA286E";
shapes = (
{
closed = 1;
nodes = (
(255,213,o),
(197,245,o),
(166,259,c),
(48,33,l),
(143,-10,o),
(238,-27,o),
(342,-27,cs),
(679,-27,o),
(921,174,o),
(921,520,cs),
(921,728,o),
(790,866,o),
(618,866,cs),
(588,866,o),
(558,864,o),
(528,863,c),
(575,1104,l),
(953,1104,l),
(1002,1356,l),
(388,1356,l),
(248,637,l),
(316,641,o),
(387,649,o),
(455,645,c),
(561,637,o),
(644,588,o),
(644,460,cs),
(644,298,o),
(520,213,o),
(365,213,cs)
);
}
);
width = 1024;
},
{
layerId = "5406E1A9-98D2-48B0-A3BF-3E9D89732E2E";
shapes = (
{
closed = 1;
nodes = (
(212,137,o),
(155,172,o),
(130,180,c),
(47,25,l),
(80,8,o),
(163,-26,o),
(266,-26,cs),
(600,-26,o),
(904,171,o),
(904,534,cs),
(904,743,o),
(750,839,o),
(558,839,cs),
(530,839,o),
(503,837,o),
(475,835,c),
(550,1185,l),
(982,1185,l),
(1018,1356,l),
(416,1356,l),
(272,676,l),
(332,679,o),
(390,684,o),
(450,684,cs),
(643,684,o),
(714,612,o),
(714,469,cs),
(714,241,o),
(510,137,o),
(306,137,cs)
);
}
);
width = 1024;
}
);
unicode = 53;
},
{
glyphname = six;
layers = (
{
layerId = "F961D97E-EEA9-4A8D-9339-D33FF8C656AD";
shapes = (
{
closed = 1;
nodes = (
(955,214,o),
(729,-26,o),
(459,-26,cs),
(240,-26,o),
(117,136,o),
(117,361,cs),
(117,839,o),
(481,1278,o),
(964,1356,c),
(985,1356,l),
(988,1233,l),
(633,1173,o),
(396,922,o),
(320,659,c),
(371,726,o),
(496,801,o),
(627,801,cs),
(828,801,o),
(955,655,o),
(955,472,cs)
);
},
{
closed = 1;
nodes = (
(794,561,o),
(748,670,o),
(572,670,cs),
(452,670,o),
(389,631,o),
(299,513,c),
(286,476,o),
(272,427,o),
(272,365,cs),
(272,209,o),
(346,107,o),
(476,107,cs),
(670,107,o),
(794,255,o),
(794,460,cs)
);
}
);
width = 1024;
},
{
layerId = "459F892D-0193-436C-99B7-2A4FAD43389C";
shapes = (
{
closed = 1;
nodes = (
(931,252,o),
(754,-28,o),
(399,-28,cs),
(222,-28,o),
(75,114,o),
(75,373,cs),
(75,925,o),
(482,1280,o),
(970,1356,c),
(991,1356,l),
(1012,1107,l),
(705,1041,o),
(538,960,o),
(439,752,c),
(478,786,o),
(584,861,o),
(669,861,cs),
(883,861,o),
(931,705,o),
(931,538,cs)
);
},
{
closed = 1;
nodes = (
(603,564,o),
(563,586,o),
(524,586,cs),
(462,586,o),
(383,495,o),
(402,509,c),
(394,485,o),
(375,412,o),
(375,386,cs),
(375,305,o),
(403,247,o),
(462,247,cs),
(560,247,o),
(603,375,o),
(603,463,cs)
);
}
);
width = 1024;
},
{
layerId = "DE55C86C-15D8-4D4C-BA82-540887FA286E";
shapes = (
{
closed = 1;
nodes = (
(940,239,o),
(747,-27,o),
(420,-27,cs),
(229,-27,o),
(93,121,o),
(93,369,cs),
(93,896,o),
(483,1279,o),
(969,1356,c),
(990,1356,l),
(1005,1149,l),
(682,1085,o),
(497,947,o),
(406,721,c),
(449,766,o),
(556,841,o),
(656,841,cs),
(866,841,o),
(940,688,o),
(940,516,cs)
);
},
{
closed = 1;
nodes = (
(668,563,o),
(626,614,o),
(541,614,cs),
(460,614,o),
(386,540,o),
(369,510,c),
(359,482,o),
(342,417,o),
(342,379,cs),
(342,286,o),
(375,200,o),
(468,200,cs),
(599,200,o),
(668,345,o),
(668,462,cs)
);
}
);
width = 1024;
},
{
layerId = "5406E1A9-98D2-48B0-A3BF-3E9D89732E2E";
shapes = (
{
closed = 1;
nodes = (
(951,220,o),
(733,-26,o),
(449,-26,cs),
(237,-26,o),
(111,132,o),
(111,363,cs),
(111,853,o),
(481,1278,o),
(965,1356,c),
(986,1356,l),
(992,1212,l),
(645,1151,o),
(421,928,o),
(341,674,c),
(390,736,o),
(511,811,o),
(634,811,cs),
(837,811,o),
(951,663,o),
(951,483,cs)
);
},
{
closed = 1;
nodes = (
(762,561,o),
(717,656,o),
(564,656,cs),
(454,656,o),
(388,608,o),
(316,512,c),
(304,477,o),
(289,424,o),
(289,368,cs),
(289,228,o),
(353,130,o),
(474,130,cs),
(652,130,o),
(762,277,o),
(762,460,cs)
);
}
);
width = 1024;
}
);
unicode = 54;
},
{
glyphname = seven;
layers = (
{
layerId = "F961D97E-EEA9-4A8D-9339-D33FF8C656AD";
shapes = (
{
closed = 1;
nodes = (
(119,0,l),
(279,0,l),
(1127,1306,l),
(1138,1356,l),
(280,1356,l),
(249,1213,l),
(847,1213,l),
(970,1236,l),
(864,1154,l)
);
}
);
width = 1024;
},
{
layerId = "459F892D-0193-436C-99B7-2A4FAD43389C";
shapes = (
{
closed = 1;
nodes = (
(77,0,l),
(396,0,l),
(1111,1267,l),
(1128,1356,l),
(324,1356,l),
(264,1043,l),
(521,1043,l),
(684,1047,l),
(568,882,l)
);
}
);
width = 1024;
},
{
layerId = "DE55C86C-15D8-4D4C-BA82-540887FA286E";
shapes = (
{
closed = 1;
nodes = (
(91,0,l),
(357,0,l),
(1116,1280,l),
(1131,1356,l),
(309,1356,l),
(259,1100,l),
(630,1100,l),
(780,1110,l),
(667,973,l)
);
}
);
width = 1024;
},
{
layerId = "5406E1A9-98D2-48B0-A3BF-3E9D89732E2E";
shapes = (
{
closed = 1;
nodes = (
(112,0,l),
(298,0,l),
(1124,1299,l),
(1136,1356,l),
(287,1356,l),
(251,1185,l),
(794,1185,l),
(924,1205,l),
(816,1110,l)
);
}
);
width = 1024;
}
);
unicode = 55;
},
{
glyphname = eight;
layers = (
{
layerId = "F961D97E-EEA9-4A8D-9339-D33FF8C656AD";
shapes = (
{
closed = 1;
nodes = (
(82,210,o),
(115,128,o),
(189,63,cs),
(244,15,o),
(351,-26,o),
(450,-26,cs),
(767,-26,o),
(931,179,o),
(931,417,cs),
(931,561,o),
(815,648,o),
(731,699,c),
(902,781,o),
(1054,912,o),
(1054,1100,cs),
(1054,1182,o),
(1019,1259,o),
(954,1313,c),
(899,1354,o),
(816,1381,o),
(724,1381,cs),
(600,1381,o),
(483,1339,o),
(398,1265,cs),
(317,1196,o),
(268,1104,o),
(268,994,cs),
(268,859,o),
(374,758,o),
(459,712,c),
(206,625,o),
(82,466,o),
(82,287,cs)
);
},
{
closed = 1;
nodes = (
(775,274,o),
(737,208,o),
(675,164,cs),
(620,126,o),
(552,108,o),
(471,108,cs),
(397,108,o),
(341,131,o),
(303,167,cs),
(259,208,o),
(239,263,o),
(239,320,cs),
(239,480,o),
(388,575,o),
(540,648,c),
(668,579,o),
(775,475,o),
(775,351,cs)
);
},
{
closed = 1;
nodes = (
(428,1146,o),
(528,1248,o),
(700,1248,cs),
(812,1248,o),
(894,1183,o),
(894,1076,cs),
(894,959,o),
(832,867,o),
(645,758,c),
(521,824,o),
(428,896,o),
(428,1023,cs)
);
}
);
width = 1024;
},
{
layerId = "459F892D-0193-436C-99B7-2A4FAD43389C";
shapes = (
{
closed = 1;
nodes = (
(43,206,o),
(71,125,o),
(126,71,cs),
(190,6,o),
(276,-28,o),
(414,-28,cs),
(731,-28,o),
(957,159,o),
(957,432,cs),
(957,539,o),
(944,633,o),
(824,726,c),
(989,805,o),
(1034,915,o),
(1034,1084,cs),
(1034,1150,o),
(1019,1211,o),
(986,1261,c),
(929,1336,o),
(836,1383,o),
(692,1383,cs),
(537,1383,o),
(427,1341,o),
(352,1279,c),
(254,1196,o),
(210,1076,o),
(210,952,cs),
(210,832,o),
(248,746,o),
(309,680,c),
(208,635,o),
(43,520,o),
(43,302,cs)
);
},
{
closed = 1;
nodes = (
(635,357,o),
(626,319,o),
(605,293,c),
(580,265,o),
(536,247,o),
(477,247,cs),
(442,247,o),
(410,254,o),
(389,274,cs),
(370,291,o),
(358,320,o),
(358,364,cs),
(358,464,o),
(422,555,o),
(484,582,c),
(574,535,o),
(635,490,o),
(635,402,cs)
);
},
{
closed = 1;
nodes = (
(521,1008,o),
(512,1110,o),
(632,1110,cs),
(704,1110,o),
(723,1067,o),
(723,1001,cs),
(723,947,o),
(716,863,o),
(659,805,c),
(577,839,o),
(521,896,o),
(521,971,cs)
);
}
);
width = 1024;
},
{
layerId = "DE55C86C-15D8-4D4C-BA82-540887FA286E";
shapes = (
{
closed = 1;
nodes = (
(56,207,o),
(86,126,o),
(147,68,cs),
(208,9,o),
(301,-27,o),
(426,-27,cs),
(743,-27,o),
(948,166,o),
(948,427,cs),
(948,546,o),
(901,638,o),
(793,717,c),
(960,797,o),
(1041,914,o),
(1041,1089,cs),
(1041,1161,o),
(1019,1227,o),
(975,1278,cs),
(919,1342,o),
(829,1382,o),
(703,1382,cs),
(558,1382,o),
(446,1340,o),
(367,1274,cs),
(275,1196,o),
(229,1085,o),
(229,966,cs),
(229,841,o),
(290,750,o),
(359,691,c),
(207,632,o),
(56,502,o),
(56,297,cs)
);
},
{
closed = 1;
nodes = (
(682,329,o),
(663,282,o),
(628,250,cs),
(593,218,o),
(541,200,o),
(475,200,cs),
(427,200,o),
(387,213,o),
(360,238,cs),
(333,263,o),
(318,301,o),
(318,349,cs),
(318,469,o),
(411,562,o),
(503,604,c),
(605,550,o),
(682,485,o),
(682,385,cs)
);
},
{
closed = 1;
nodes = (
(490,1054,o),
(517,1156,o),
(655,1156,cs),
(740,1156,o),
(780,1106,o),
(780,1026,cs),
(780,951,o),
(755,864,o),
(654,789,c),
(558,834,o),
(490,896,o),
(490,988,cs)
);
}
);
width = 1024;
},
{
layerId = "5406E1A9-98D2-48B0-A3BF-3E9D89732E2E";
shapes = (
{
closed = 1;
nodes = (
(75,209,o),
(108,127,o),
(179,64,cs),
(235,13,o),
(339,-26,o),
(444,-26,cs),
(761,-26,o),
(935,176,o),
(935,419,cs),
(935,557,o),
(836,645,o),
(746,703,c),
(916,785,o),
(1051,912,o),
(1051,1097,cs),
(1051,1177,o),
(1019,1251,o),
(959,1304,cs),
(904,1351,o),
(819,1381,o),
(719,1381,cs),
(590,1381,o),
(474,1339,o),
(390,1267,cs),
(307,1196,o),
(258,1099,o),
(258,987,cs),
(258,854,o),
(353,756,o),
(434,707,c),
(206,627,o),
(75,475,o),
(75,289,cs)
);
},
{
closed = 1;
nodes = (
(752,287,o),
(719,226,o),
(663,185,cs),
(613,148,o),
(549,130,o),
(472,130,cs),
(404,130,o),
(352,151,o),
(317,184,cs),
(277,221,o),
(258,272,o),
(258,327,cs),
(258,477,o),
(394,572,o),
(531,637,c),
(652,572,o),
(752,477,o),
(752,359,cs)
);
},
{
closed = 1;
nodes = (
(443,1123,o),
(525,1225,o),
(689,1225,cs),
(794,1225,o),
(866,1164,o),
(866,1064,cs),
(866,957,o),
(813,866,o),
(647,765,c),
(530,826,o),
(443,896,o),
(443,1014,cs)
);
}
);
width = 1024;
}
);
unicode = 56;
},
{
glyphname = nine;
layers = (
{
layerId = "F961D97E-EEA9-4A8D-9339-D33FF8C656AD";
shapes = (
{
closed = 1;
nodes = (
(213,1143,o),
(439,1382,o),
(709,1382,cs),
(928,1382,o),
(1046,1221,o),
(1046,995,cs),
(1046,518,o),
(687,79,o),
(204,0,c),
(183,0,l),
(180,123,l),
(535,183,o),
(772,435,o),
(848,698,c),
(797,630,o),
(672,555,o),
(541,555,cs),
(340,555,o),
(213,702,o),
(213,884,cs)
);
},
{
closed = 1;
nodes = (
(374,796,o),
(420,686,o),
(596,686,cs),
(716,686,o),
(779,726,o),
(869,844,c),
(882,881,o),
(896,930,o),
(896,992,cs),
(896,1148,o),
(821,1250,o),
(692,1250,cs),
(497,1250,o),
(374,1102,o),
(374,897,cs)
);
}
);
width = 1024;
},
{
layerId = "459F892D-0193-436C-99B7-2A4FAD43389C";
shapes = (
{
closed = 1;
nodes = (
(168,1104,o),
(345,1384,o),
(700,1384,cs),
(877,1384,o),
(1024,1242,o),
(1024,983,cs),
(1024,431,o),
(617,76,o),
(129,0,c),
(108,0,l),
(87,249,l),
(394,315,o),
(561,396,o),
(660,604,c),
(621,570,o),
(515,495,o),
(430,495,cs),
(216,495,o),
(168,651,o),
(168,818,cs)
);
},
{
closed = 1;
nodes = (
(496,792,o),
(536,770,o),
(575,770,cs),
(637,770,o),
(716,861,o),
(697,847,c),
(705,871,o),
(724,944,o),
(724,970,cs),
(724,1051,o),
(696,1109,o),
(637,1109,cs),
(539,1109,o),
(496,981,o),
(496,893,cs)
);
}
);
width = 1024;
},
{
layerId = "DE55C86C-15D8-4D4C-BA82-540887FA286E";
shapes = (
{
closed = 1;
nodes = (
(181,1117,o),
(374,1383,o),
(701,1383,cs),
(892,1383,o),
(1028,1235,o),
(1028,987,cs),
(1028,460,o),
(638,77,o),
(152,0,c),
(131,0,l),
(116,207,l),
(439,271,o),
(624,409,o),
(715,635,c),
(672,590,o),
(565,515,o),
(465,515,cs),
(255,515,o),
(181,668,o),
(181,840,cs)
);
},
{
closed = 1;
nodes = (
(453,793,o),
(495,742,o),
(580,742,cs),
(661,742,o),
(735,816,o),
(752,846,c),
(762,874,o),
(779,939,o),
(779,977,cs),
(779,1070,o),
(746,1156,o),
(653,1156,cs),
(522,1156,o),
(453,1011,o),
(453,894,cs)
);
}
);
width = 1024;
},
{
layerId = "5406E1A9-98D2-48B0-A3BF-3E9D89732E2E";
shapes = (
{
closed = 1;
nodes = (
(205,1136,o),
(423,1382,o),
(707,1382,cs),
(919,1382,o),
(1045,1224,o),
(1045,993,cs),
(1045,503,o),
(675,78,o),
(191,0,c),
(170,0,l),
(164,144,l),
(511,205,o),
(735,428,o),
(815,682,c),
(766,620,o),
(645,545,o),
(522,545,cs),
(319,545,o),
(205,693,o),
(205,873,cs)
);
},
{
closed = 1;
nodes = (
(394,795,o),
(439,700,o),
(592,700,cs),
(702,700,o),
(768,748,o),
(840,844,c),
(852,879,o),
(867,932,o),
(867,988,cs),
(867,1128,o),
(802,1226,o),
(682,1226,cs),
(503,1226,o),
(394,1079,o),
(394,896,cs)
);
}
);
width = 1024;
}
);
unicode = 57;
},
{
glyphname = colon;
layers = (
{
layerId = "F961D97E-EEA9-4A8D-9339-D33FF8C656AD";
shapes = (
{
closed = 1;
nodes = (
(168,19,o),
(219,-25,o),
(286,-25,cs),
(350,-25,o),
(402,23,o),
(403,87,cs),
(403,157,o),
(354,199,o),
(286,199,cs),
(212,199,o),
(168,157,o),
(168,87,cs)
);
},
{
closed = 1;
nodes = (
(338,805,o),
(389,762,o),
(456,762,cs),
(520,762,o),
(572,809,o),
(572,873,cs),
(572,943,o),
(524,985,o),
(456,985,cs),
(382,985,o),
(338,943,o),
(338,873,cs)
);
}
);
width = 682;
},
{
layerId = "459F892D-0193-436C-99B7-2A4FAD43389C";
shapes = (
{
closed = 1;
nodes = (
(100,43,o),
(189,-21,o),
(294,-21,cs),
(400,-21,o),
(495,37,o),
(492,153,c),
(492,262,o),
(416,328,o),
(294,328,cs),
(180,328,o),
(100,262,o),
(100,153,cs)
);
},
{
closed = 1;
nodes = (
(204,688,o),
(293,624,o),
(398,624,cs),
(504,624,o),
(599,682,o),
(596,798,c),
(596,907,o),
(520,973,o),
(398,973,cs),
(284,973,o),
(204,907,o),
(204,798,cs)
);
}
);
width = 682;
},
{
layerId = "DE55C86C-15D8-4D4C-BA82-540887FA286E";
shapes = (
{
closed = 1;
nodes = (
(123,35,o),
(199,-22,o),
(291,-22,cs),
(383,-22,o),
(464,32,o),
(462,131,c),
(462,227,o),
(395,285,o),
(291,285,cs),
(191,285,o),
(123,227,o),
(123,131,cs)
);
},
{
closed = 1;
nodes = (
(249,727,o),
(325,670,o),
(417,670,cs),
(509,670,o),
(590,724,o),
(588,823,c),
(588,919,o),
(521,977,o),
(417,977,cs),
(317,977,o),
(249,919,o),
(249,823,cs)
);
}
);
width = 682;
},
{
layerId = "5406E1A9-98D2-48B0-A3BF-3E9D89732E2E";
shapes = (
{
closed = 1;
nodes = (
(157,23,o),
(214,-24,o),
(287,-24,cs),
(358,-24,o),
(417,25,o),
(417,98,cs),
(417,174,o),
(364,220,o),
(287,220,cs),
(207,220,o),
(157,174,o),
(157,98,cs)
);
},
{
closed = 1;
nodes = (
(316,786,o),
(373,739,o),
(446,739,cs),
(517,739,o),
(576,788,o),
(576,861,cs),
(576,937,o),
(523,983,o),
(446,983,cs),
(366,983,o),
(316,937,o),
(316,861,cs)
);
}
);
width = 682;
}
);
unicode = 58;
},
{
glyphname = semicolon;
layers = (
{
layerId = "F961D97E-EEA9-4A8D-9339-D33FF8C656AD";
shapes = (
{
closed = 1;
nodes = (
(106,-292,l),
(237,-257,o),
(403,-140,o),
(403,62,cs),
(403,137,o),
(361,183,o),
(291,183,cs),
(223,183,o),
(151,131,o),
(151,55,cs),
(151,-18,o),
(208,-31,o),
(269,-10,c),
(265,-44,o),
(244,-87,o),
(211,-125,cs),
(180,-162,o),
(134,-191,o),
(76,-210,c)
);
},
{
closed = 1;
nodes = (
(344,814,o),
(386,762,o),
(462,762,cs),
(534,762,o),
(578,816,o),
(578,874,cs),
(578,944,o),
(530,986,o),
(462,986,cs),
(388,986,o),
(344,944,o),
(344,874,cs)
);
}
);
width = 682;
},
{
layerId = "459F892D-0193-436C-99B7-2A4FAD43389C";
shapes = (
{
closed = 1;
nodes = (
(114,-285,l),
(243,-250,o),
(502,-152,o),
(502,145,cs),
(502,254,o),
(442,322,o),
(325,322,cs),
(207,322,o),
(103,242,o),
(103,118,cs),
(103,54,o),
(134,-7,o),
(209,-7,c),
(187,-59,o),
(170,-71,o),
(137,-101,cs),
(102,-132,o),
(71,-149,o),
(44,-156,c)
);
},
{
closed = 1;
nodes = (
(198,680,o),
(292,621,o),
(392,621,cs),
(494,621,o),
(593,675,o),
(590,794,c),
(590,904,o),
(514,970,o),
(392,970,cs),
(278,970,o),
(198,904,o),
(198,794,cs)
);
}
);
width = 682;
},
{
layerId = "DE55C86C-15D8-4D4C-BA82-540887FA286E";
shapes = (
{
closed = 1;
nodes = (
(111,-287,l),
(241,-252,o),
(469,-148,o),
(469,117,cs),
(469,215,o),
(415,275,o),
(314,275,cs),
(212,275,o),
(119,205,o),
(119,97,cs),
(119,30,o),
(159,-15,o),
(229,-8,c),
(213,-54,o),
(195,-76,o),
(162,-109,cs),
(128,-142,o),
(92,-163,o),
(55,-174,c)
);
},
{
closed = 1;
nodes = (
(247,725,o),
(323,668,o),
(415,668,cs),
(507,668,o),
(588,722,o),
(586,821,c),
(586,917,o),
(519,975,o),
(415,975,cs),
(315,975,o),
(247,917,o),
(247,821,cs)
);
}
);
width = 682;
},
{
layerId = "5406E1A9-98D2-48B0-A3BF-3E9D89732E2E";
shapes = (
{
closed = 1;
nodes = (
(107,-290,l),
(238,-255,o),
(419,-142,o),
(419,75,cs),
(419,156,o),
(374,205,o),
(297,205,cs),
(220,205,o),
(143,149,o),
(143,65,cs),
(143,-6,o),
(196,-27,o),
(259,-9,c),
(252,-46,o),
(232,-84,o),
(199,-121,cs),
(167,-157,o),
(124,-184,o),
(71,-201,c)
);
},
{
closed = 1;
nodes = (
(320,792,o),
(370,739,o),
(450,739,cs),
(527,739,o),
(580,793,o),
(580,861,cs),
(580,937,o),
(527,983,o),
(450,983,cs),
(370,983,o),
(320,937,o),
(320,861,cs)
);
}
);
width = 682;
}
);
unicode = (59,894);
},
{
glyphname = less;
layers = (
{
layerId = "F961D97E-EEA9-4A8D-9339-D33FF8C656AD";
shapes = (
{
closed = 1;
nodes = (
(329,592,l),
(1149,160,l),
(1218,277,l),
(702,559,l),
(509,621,l),
(704,694,l),
(1208,977,l),
(1137,1101,l),
(329,642,l)
);
}
);
width = 1451;
},
{
layerId = "459F892D-0193-436C-99B7-2A4FAD43389C";
shapes = (
{
closed = 1;
nodes = (
(75,526,l),
(914,86,l),
(1045,311,l),
(588,567,l),
(399,624,l),
(590,690,l),
(1037,950,l),
(902,1172,l),
(75,716,l)
);
}
);
width = 1024;
},
{
layerId = "DE55C86C-15D8-4D4C-BA82-540887FA286E";
shapes = (
{
closed = 1;
nodes = (
(160,548,l),
(993,111,l),
(1103,300,l),
(626,564,l),
(436,623,l),
(628,691,l),
(1094,959,l),
(981,1148,l),
(160,691,l)
);
}
);
width = 1167;
},
{
layerId = "5406E1A9-98D2-48B0-A3BF-3E9D89732E2E";
shapes = (
{
closed = 1;
nodes = (
(288,581,l),
(1111,148,l),
(1190,283,l),
(683,560,l),
(491,621,l),
(685,693,l),
(1180,972,l),
(1099,1112,l),
(288,654,l)
);
}
);
width = 1382;
}
);
unicode = 60;
},
{
glyphname = equal;
layers = (
{
layerId = "F961D97E-EEA9-4A8D-9339-D33FF8C656AD";
shapes = (
{
closed = 1;
nodes = (
(316,882,l),
(316,743,l),
(1216,743,l),
(1216,882,l)
);
},
{
closed = 1;
nodes = (
(316,563,l),
(316,423,l),
(1216,423,l),
(1216,563,l)
);
}
);
width = 1451;
},
{
layerId = "459F892D-0193-436C-99B7-2A4FAD43389C";
shapes = (
{
closed = 1;
nodes = (
(81,995,l),
(81,715,l),
(1017,715,l),
(1017,995,l)
);
},
{
closed = 1;
nodes = (
(81,590,l),
(81,312,l),
(1017,312,l),
(1017,590,l)
);
}
);
width = 1024;
},
{
layerId = "DE55C86C-15D8-4D4C-BA82-540887FA286E";
shapes = (
{
closed = 1;
nodes = (
(160,957,l),
(160,724,l),
(1084,724,l),
(1084,957,l)
);
},
{
closed = 1;
nodes = (
(160,581,l),
(160,349,l),
(1084,349,l),
(1084,581,l)
);
}
);
width = 1167;
},
{
layerId = "5406E1A9-98D2-48B0-A3BF-3E9D89732E2E";
shapes = (
{
closed = 1;
nodes = (
(278,900,l),
(278,738,l),
(1184,738,l),
(1184,900,l)
);
},
{
closed = 1;
nodes = (
(278,567,l),
(278,405,l),
(1184,405,l),
(1184,567,l)
);
}
);
width = 1382;
}
);
unicode = 61;
},
{
glyphname = greater;
layers = (
{
layerId = "F961D97E-EEA9-4A8D-9339-D33FF8C656AD";
shapes = (
{
closed = 1;
nodes = (
(1176,662,l),
(367,1099,l),
(287,979,l),
(803,698,l),
(994,635,l),
(801,563,l),
(296,279,l),
(365,158,l),
(1176,611,l)
);
}
);
width = 1451;
},
{
layerId = "459F892D-0193-436C-99B7-2A4FAD43389C";
shapes = (
{
closed = 1;
nodes = (
(1096,736,l),
(250,1177,l),
(126,952,l),
(586,694,l),
(776,638,l),
(584,569,l),
(137,313,l),
(266,84,l),
(1096,545,l)
);
}
);
width = 1024;
},
{
layerId = "DE55C86C-15D8-4D4C-BA82-540887FA286E";
shapes = (
{
closed = 1;
nodes = (
(1123,711,l),
(289,1151,l),
(180,961,l),
(659,695,l),
(849,637,l),
(657,567,l),
(190,302,l),
(299,109,l),
(1123,567,l)
);
}
);
width = 1167;
},
{
layerId = "5406E1A9-98D2-48B0-A3BF-3E9D89732E2E";
shapes = (
{
closed = 1;
nodes = (
(1163,674,l),
(348,1112,l),
(261,974,l),
(768,697,l),
(959,635,l),
(766,564,l),
(270,285,l),
(349,146,l),
(1163,600,l)
);
}
);
width = 1382;
}
);
unicode = 62;
},
{
glyphname = question;
layers = (
{
layerId = "F961D97E-EEA9-4A8D-9339-D33FF8C656AD";
shapes = (
{
closed = 1;
nodes = (
(438,339,l),
(473,505,o),
(600,592,o),
(719,687,cs),
(731,696,o),
(742,706,o),
(754,716,cs),
(886,821,o),
(987,937,o),
(987,1119,cs),
(987,1249,o),
(906,1381,o),
(676,1381,cs),
(540,1381,o),
(437,1349,o),
(298,1280,c),
(319,1160,l),
(425,1207,o),
(491,1248,o),
(605,1248,cs),
(715,1248,o),
(815,1211,o),
(815,1083,cs),
(815,922,o),
(696,837,o),
(582,744,cs),
(463,648,o),
(338,542,o),
(309,339,c)
);
},
{
closed = 1;
nodes = (
(247,57,o),
(259,27,o),
(278,8,cs),
(299,-13,o),
(327,-25,o),
(365,-25,cs),
(399,-25,o),
(428,-13,o),
(449,9,cs),
(469,29,o),
(481,57,o),
(481,87,cs),
(481,157,o),
(433,199,o),
(365,199,cs),
(291,199,o),
(247,157,o),
(247,87,cs)
);
}
);
width = 1024;
},
{
layerId = "459F892D-0193-436C-99B7-2A4FAD43389C";
shapes = (
{
closed = 1;
nodes = (
(601,446,l),
(631,615,o),
(687,672,o),
(776,725,c),
(787,730,o),
(799,738,o),
(810,743,c),
(913,803,o),
(1056,859,o),
(1056,1085,cs),
(1056,1332,o),
(824,1383,o),
(679,1383,cs),
(513,1383,o),
(386,1355,o),
(223,1250,c),
(312,1008,l),
(374,1061,o),
(509,1110,o),
(581,1110,cs),
(681,1110,o),
(701,1059,o),
(701,1027,cs),
(701,935,o),
(625,910,o),
(524,851,c),
(427,791,o),
(326,693,o),
(309,446,c)
);
},
{
closed = 1;
nodes = (
(211,101,o),
(229,61,o),
(266,28,c),
(302,-6,o),
(349,-21,o),
(404,-21,cs),
(465,-21,o),
(514,-6,o),
(550,27,cs),
(586,61,o),
(604,101,o),
(603,153,c),
(603,262,o),
(526,328,o),
(404,328,cs),
(291,328,o),
(211,262,o),
(211,153,cs)
);
}
);
width = 1024;
},
{
layerId = "DE55C86C-15D8-4D4C-BA82-540887FA286E";
shapes = (
{
closed = 1;
nodes = (
(546,410,l),
(578,578,o),
(658,645,o),
(757,712,cs),
(768,719,o),
(780,727,o),
(791,734,cs),
(904,809,o),
(1033,885,o),
(1033,1096,cs),
(1033,1304,o),
(851,1382,o),
(678,1382,cs),
(522,1382,o),
(403,1353,o),
(248,1260,c),
(314,1059,l),
(391,1110,o),
(503,1156,o),
(589,1156,cs),
(692,1156,o),
(739,1110,o),
(739,1046,c),
(739,930,o),
(647,884,o),
(543,815,c),
(439,743,o),
(330,642,o),
(309,410,c)
);
},
{
closed = 1;
nodes = (
(223,86,o),
(239,50,o),
(270,21,cs),
(301,-8,o),
(342,-22,o),
(391,-22,cs),
(443,-22,o),
(485,-8,o),
(516,21,cs),
(547,50,o),
(563,86,o),
(562,131,c),
(562,227,o),
(495,285,o),
(391,285,cs),
(291,285,o),
(223,227,o),
(223,131,cs)
);
}
);
width = 1024;
},
{
layerId = "5406E1A9-98D2-48B0-A3BF-3E9D89732E2E";
shapes = (
{
closed = 1;
nodes = (
(464,356,l),
(498,523,o),
(614,605,o),
(728,693,cs),
(740,702,o),
(751,711,o),
(763,720,cs),
(890,818,o),
(998,924,o),
(998,1113,cs),
(998,1262,o),
(892,1381,o),
(676,1381,cs),
(535,1381,o),
(428,1350,o),
(286,1275,c),
(317,1135,l),
(416,1183,o),
(494,1225,o),
(601,1225,cs),
(709,1225,o),
(796,1186,o),
(796,1074,cs),
(796,922,o),
(680,845,o),
(572,761,cs),
(457,671,o),
(336,566,o),
(309,356,c)
);
},
{
closed = 1;
nodes = (
(241,64,o),
(254,33,o),
(276,11,cs),
(299,-11,o),
(331,-24,o),
(371,-24,cs),
(410,-24,o),
(442,-11,o),
(465,12,cs),
(488,34,o),
(501,64,o),
(501,98,cs),
(501,174,o),
(448,220,o),
(371,220,cs),
(291,220,o),
(241,174,o),
(241,98,cs)
);
}
);
width = 1024;
}
);
unicode = 63;
},
{
glyphname = at;
layers = (
{
layerId = "F961D97E-EEA9-4A8D-9339-D33FF8C656AD";
shapes = (
{
closed = 1;
nodes = (
(1329,853,l),
(1263,795,l),
(1234,814,o),
(1206,830,o),
(1176,844,cs),
(1149,857,o),
(1112,864,o),
(1067,864,cs),
(803,864,o),
(561,549,o),
(566,274,c),
(566,114,o),
(669,5,o),
(790,5,cs),
(945,5,o),
(1066,137,o),
(1145,247,c),
(1150,247,l),
(1145,214,o),
(1142,186,o),
(1142,160,cs),
(1142,43,o),
(1204,5,o),
(1317,5,cs),
(1459,5,o),
(1585,65,o),
(1678,162,cs),
(1689,174,o),
(1700,186,o),
(1710,199,cs),
(1791,300,o),
(1842,435,o),
(1842,559,cs),
(1842,732,o),
(1780,906,o),
(1649,1038,cs),
(1638,1049,o),
(1626,1059,o),
(1615,1069,cs),
(1469,1195,o),
(1265,1268,o),
(1034,1268,cs),
(904,1268,o),
(785,1246,o),
(674,1202,cs),
(576,1163,o),
(490,1108,o),
(413,1038,c),
(401,1026,o),
(388,1014,o),
(376,1002,cs),
(249,872,o),
(145,647,o),
(145,402,cs),
(145,143,o),
(241,-59,o),
(404,-191,cs),
(555,-312,o),
(761,-379,o),
(995,-379,cs),
(1109,-379,o),
(1191,-368,o),
(1303,-321,c),
(1269,-205,l),
(1192,-237,o),
(1091,-256,o),
(1022,-256,cs),
(777,-256,o),
(584,-188,o),
(454,-62,cs),
(342,47,o),
(280,203,o),
(280,398,cs),
(280,597,o),
(361,794,o),
(475,915,cs),
(616,1063,o),
(800,1143,o),
(1023,1143,cs),
(1211,1143,o),
(1367,1096,o),
(1487,1009,cs),
(1499,1000,o),
(1511,989,o),
(1524,978,cs),
(1638,878,o),
(1712,742,o),
(1712,564,cs),
(1712,449,o),
(1668,335,o),
(1623,273,c),
(1549,177,o),
(1453,126,o),
(1345,126,cs),
(1290,126,o),
(1271,158,o),
(1271,221,cs),
(1271,256,o),
(1279,320,o),
(1287,358,cs),
(1386,853,l)
);
},
{
closed = 1;
nodes = (
(1165,424,ls),
(1140,313,o),
(975,126,o),
(853,126,cs),
(798,126,o),
(760,143,o),
(740,177,cs),
(720,210,o),
(709,247,o),
(709,291,cs),
(709,489,o),
(869,742,o),
(1072,742,cs),
(1138,742,o),
(1176,723,o),
(1221,676,c)
);
}
);
width = 1930;
},
{
layerId = "459F892D-0193-436C-99B7-2A4FAD43389C";
shapes = (
{
closed = 1;
nodes = (
(1118,864,l),
(1061,806,l),
(1042,822,o),
(1024,836,o),
(1001,846,cs),
(961,865,o),
(916,875,o),
(856,875,cs),
(596,875,o),
(417,601,o),
(414,316,c),
(414,160,o),
(502,59,o),
(626,59,cs),
(789,59,o),
(855,134,o),
(935,247,c),
(943,247,l),
(941,229,o),
(943,212,o),
(946,198,c),
(966,91,o),
(1074,59,o),
(1158,59,cs),
(1263,59,o),
(1372,102,o),
(1459,188,c),
(1470,200,o),
(1481,211,o),
(1491,224,cs),
(1576,329,o),
(1623,500,o),
(1623,639,cs),
(1623,868,o),
(1552,1021,o),
(1434,1130,cs),
(1423,1141,o),
(1413,1151,o),
(1400,1161,cs),
(1282,1258,o),
(1121,1310,o),
(905,1310,cs),
(779,1310,o),
(643,1271,o),
(522,1205,cs),
(440,1160,o),
(361,1102,o),
(301,1038,cs),
(291,1028,o),
(281,1017,o),
(272,1005,c),
(116,828,o),
(35,620,o),
(35,399,cs),
(35,125,o),
(143,-67,o),
(291,-206,cs),
(425,-333,o),
(615,-385,o),
(834,-385,cs),
(959,-385,o),
(1102,-368,o),
(1207,-315,c),
(1134,-92,l),
(1057,-122,o),
(956,-143,o),
(858,-143,cs),
(677,-143,o),
(547,-92,o),
(462,-6,cs),
(348,108,o),
(294,247,o),
(294,401,cs),
(294,554,o),
(334,722,o),
(472,874,c),
(583,999,o),
(746,1068,o),
(908,1068,cs),
(1059,1068,o),
(1162,1038,o),
(1239,968,cs),
(1249,959,o),
(1260,951,o),
(1268,941,c),
(1330,874,o),
(1364,774,o),
(1364,621,cs),
(1364,541,o),
(1355,464,o),
(1337,411,c),
(1316,341,o),
(1274,293,o),
(1256,293,cs),
(1223,293,o),
(1198,304,o),
(1198,351,cs),
(1198,362,o),
(1200,375,o),
(1203,396,c),
(1296,864,l)
);
},
{
closed = 1;
nodes = (
(955,470,ls),
(938,398,o),
(840,293,o),
(769,293,cs),
(731,293,o),
(714,306,o),
(705,324,c),
(694,342,o),
(697,373,o),
(697,408,cs),
(697,504,o),
(750,640,o),
(880,640,cs),
(931,640,o),
(959,631,o),
(988,612,c)
);
}
);
width = 1584;
},
{
layerId = "DE55C86C-15D8-4D4C-BA82-540887FA286E";
shapes = (
{
closed = 1;
nodes = (
(1191,860,l),
(1131,802,l),
(1109,819,o),
(1087,834,o),
(1062,845,cs),
(1026,862,o),
(984,871,o),
(929,871,cs),
(668,871,o),
(467,583,o),
(467,301,cs),
(467,144,o),
(560,40,o),
(683,40,cs),
(843,40,o),
(928,135,o),
(1008,247,c),
(1015,247,l),
(1012,224,o),
(1012,203,o),
(1014,185,cs),
(1027,74,o),
(1119,40,o),
(1213,40,cs),
(1331,40,o),
(1446,89,o),
(1535,179,cs),
(1546,191,o),
(1557,202,o),
(1567,215,cs),
(1651,319,o),
(1699,477,o),
(1699,611,cs),
(1699,821,o),
(1631,981,o),
(1509,1098,cs),
(1498,1109,o),
(1487,1119,o),
(1475,1129,cs),
(1347,1236,o),
(1171,1295,o),
(950,1295,cs),
(822,1295,o),
(692,1262,o),
(575,1204,cs),
(487,1161,o),
(406,1104,o),
(340,1038,cs),
(329,1027,o),
(318,1016,o),
(308,1004,cs),
(162,843,o),
(73,629,o),
(73,400,cs),
(73,131,o),
(177,-64,o),
(330,-201,cs),
(470,-326,o),
(666,-383,o),
(890,-383,cs),
(1011,-383,o),
(1133,-368,o),
(1240,-317,c),
(1181,-131,l),
(1104,-162,o),
(1003,-182,o),
(915,-182,cs),
(712,-182,o),
(560,-125,o),
(459,-25,cs),
(346,87,o),
(289,232,o),
(289,400,cs),
(289,569,o),
(343,747,o),
(473,888,cs),
(594,1021,o),
(765,1094,o),
(948,1094,cs),
(1112,1094,o),
(1233,1058,o),
(1325,982,cs),
(1336,973,o),
(1347,964,o),
(1357,954,cs),
(1437,875,o),
(1485,763,o),
(1485,601,cs),
(1485,509,o),
(1464,419,o),
(1436,363,cs),
(1397,284,o),
(1336,235,o),
(1287,235,cs),
(1246,235,o),
(1223,253,o),
(1223,306,cs),
(1223,325,o),
(1227,356,o),
(1232,383,cs),
(1327,860,l)
);
},
{
closed = 1;
nodes = (
(1028,454,ls),
(1011,371,o),
(887,235,o),
(798,235,cs),
(754,235,o),
(730,249,o),
(717,273,c),
(703,296,o),
(701,329,o),
(701,367,cs),
(701,499,o),
(791,675,o),
(947,675,cs),
(1003,675,o),
(1034,663,o),
(1069,634,c)
);
}
);
width = 1704;
},
{
layerId = "5406E1A9-98D2-48B0-A3BF-3E9D89732E2E";
shapes = (
{
closed = 1;
nodes = (
(1301,854,l),
(1236,796,l),
(1209,815,o),
(1182,831,o),
(1153,844,cs),
(1124,858,o),
(1086,865,o),
(1039,865,cs),
(776,865,o),
(542,556,o),
(546,279,c),
(546,120,o),
(647,12,o),
(768,12,cs),
(924,12,o),
(1038,136,o),
(1117,247,c),
(1123,247,l),
(1118,216,o),
(1116,189,o),
(1116,165,c),
(1119,49,o),
(1187,12,o),
(1296,12,cs),
(1433,12,o),
(1557,70,o),
(1649,165,cs),
(1660,177,o),
(1671,189,o),
(1681,202,cs),
(1763,304,o),
(1813,443,o),
(1813,569,cs),
(1813,750,o),
(1750,921,o),
(1621,1050,cs),
(1610,1061,o),
(1598,1071,o),
(1587,1081,cs),
(1444,1203,o),
(1246,1273,o),
(1017,1273,cs),
(887,1273,o),
(766,1249,o),
(654,1202,cs),
(558,1162,o),
(473,1107,o),
(398,1038,cs),
(386,1026,o),
(374,1014,o),
(362,1002,cs),
(231,866,o),
(130,643,o),
(130,401,cs),
(130,140,o),
(228,-60,o),
(389,-193,cs),
(538,-315,o),
(742,-380,o),
(974,-380,cs),
(1089,-380,o),
(1179,-368,o),
(1290,-320,c),
(1251,-190,l),
(1174,-222,o),
(1073,-241,o),
(1000,-241,cs),
(764,-241,o),
(579,-175,o),
(455,-54,cs),
(343,55,o),
(282,209,o),
(282,398,cs),
(282,591,o),
(357,784,o),
(474,909,cs),
(611,1054,o),
(793,1133,o),
(1008,1133,cs),
(1191,1133,o),
(1340,1088,o),
(1454,1003,cs),
(1466,994,o),
(1478,984,o),
(1490,973,cs),
(1597,877,o),
(1666,746,o),
(1666,571,cs),
(1666,461,o),
(1627,352,o),
(1585,291,c),
(1518,198,o),
(1429,148,o),
(1333,148,cs),
(1281,148,o),
(1261,177,o),
(1261,238,cs),
(1261,270,o),
(1268,327,o),
(1276,363,c),
(1374,854,l)
);
},
{
closed = 1;
nodes = (
(1137,430,ls),
(1114,325,o),
(957,148,o),
(842,148,cs),
(789,148,o),
(754,164,o),
(735,196,cs),
(716,227,o),
(707,263,o),
(707,306,cs),
(707,491,o),
(853,728,o),
(1047,728,cs),
(1111,728,o),
(1147,711,o),
(1190,667,c)
);
}
);
width = 1884;
}
);
unicode = 64;
},
{
glyphname = A;
layers = (
{
layerId = "F961D97E-EEA9-4A8D-9339-D33FF8C656AD";
shapes = (
{
closed = 1;
nodes = (
(93,0,l),
(257,0,l),
(468,377,l),
(962,377,l),
(1012,0,l),
(1156,0,l),
(956,1356,l),
(890,1356,l)
);
},
{
closed = 1;
nodes = (
(546,518,l),
(803,956,l),
(870,1099,l),
(872,1099,l),
(880,953,l),
(947,518,l)
);
}
);
width = 1214;
},
{
layerId = "459F892D-0193-436C-99B7-2A4FAD43389C";
shapes = (
{
closed = 1;
nodes = (
(-137,0,l),
(230,0,l),
(382,243,l),
(958,243,l),
(1030,0,l),
(1397,0,l),
(1004,1356,l),
(719,1356,l)
);
},
{
closed = 1;
nodes = (
(546,514,l),
(667,704,l),
(778,896,l),
(789,896,l),
(826,709,l),
(889,514,l)
);
}
);
width = 1443;
},
{
layerId = "DE55C86C-15D8-4D4C-BA82-540887FA286E";
shapes = (
{
closed = 1;
nodes = (
(-60,0,l),
(239,0,l),
(411,288,l),
(959,288,l),
(1024,0,l),
(1316,0,l),
(989,1356,l),
(778,1356,l)
);
},
{
closed = 1;
nodes = (
(546,515,l),
(714,796,l),
(810,964,l),
(818,964,l),
(845,798,l),
(908,515,l)
);
}
);
width = 1366;
},
{
layerId = "5406E1A9-98D2-48B0-A3BF-3E9D89732E2E";
shapes = (
{
closed = 1;
nodes = (
(56,0,l),
(252,0,l),
(454,355,l),
(961,355,l),
(1015,0,l),
(1195,0,l),
(963,1356,l),
(862,1356,l)
);
},
{
closed = 1;
nodes = (
(546,517,l),
(780,915,l),
(854,1066,l),
(858,1066,l),
(870,913,l),
(937,517,l)
);
}
);
width = 1251;
}
);
unicode = 65;
},
{
glyphname = B;
layers = (
{
layerId = "F961D97E-EEA9-4A8D-9339-D33FF8C656AD";
shapes = (
{
closed = 1;
nodes = (
(1190,1294,o),
(977,1373,o),
(797,1373,cs),
(627,1373,o),
(509,1364,o),
(402,1344,c),
(111,9,l),
(208,-13,o),
(317,-17,o),
(473,-17,cs),
(744,-17,o),
(1107,100,o),
(1109,441,cs),
(1111,610,o),
(1020,687,o),
(881,708,c),
(883,714,l),
(1093,782,o),
(1190,925,o),
(1190,1084,cs)
);
},
{
closed = 1;
nodes = (
(407,624,l),
(573,624,ls),
(742,624,o),
(929,602,o),
(929,425,cs),
(929,208,o),
(707,124,o),
(510,124,cs),
(438,124,o),
(336,125,o),
(302,138,c)
);
},
{
closed = 1;
nodes = (
(436,754,l),
(537,1222,l),
(579,1227,o),
(566,1232,o),
(674,1232,cs),
(874,1232,o),
(1018,1190,o),
(1018,1064,cs),
(1018,896,o),
(863,811,o),
(702,766,c),
(614,755,o),
(576,754,o),
(537,754,cs)
);
}
);
width = 1214;
},
{
layerId = "459F892D-0193-436C-99B7-2A4FAD43389C";
shapes = (
{
closed = 1;
nodes = (
(1402,1332,o),
(1146,1376,o),
(841,1376,cs),
(708,1376,o),
(461,1361,o),
(346,1347,c),
(102,9,l),
(264,-25,o),
(504,-20,o),
(590,-20,cs),
(1197,-20,o),
(1333,261,o),
(1320,486,cs),
(1311,628,o),
(1201,709,o),
(1056,718,c),
(1058,732,l),
(1305,758,o),
(1402,957,o),
(1402,1072,cs)
);
},
{
closed = 1;
nodes = (
(534,554,l),
(728,554,l),
(840,554,o),
(956,542,o),
(956,431,cs),
(956,347,o),
(884,258,o),
(700,258,cs),
(650,258,o),
(501,256,o),
(484,269,c)
);
},
{
closed = 1;
nodes = (
(582,810,l),
(632,1091,l),
(666,1096,o),
(799,1097,o),
(853,1097,cs),
(924,1097,o),
(1030,1088,o),
(1030,950,cs),
(1030,878,o),
(949,825,o),
(839,811,c),
(828,809,o),
(757,810,o),
(716,810,cs)
);
}
);
width = 1443;
},
{
layerId = "DE55C86C-15D8-4D4C-BA82-540887FA286E";
shapes = (
{
closed = 1;
nodes = (
(1331,1319,o),
(1089,1375,o),
(826,1375,cs),
(681,1375,o),
(477,1362,o),
(365,1346,c),
(105,9,l),
(245,-21,o),
(441,-19,o),
(551,-19,cs),
(1045,-19,o),
(1257,207,o),
(1249,471,cs),
(1244,622,o),
(1140,702,o),
(997,715,c),
(999,726,l),
(1234,766,o),
(1331,946,o),
(1331,1076,cs)
);
},
{
closed = 1;
nodes = (
(491,577,l),
(676,577,l),
(807,577,o),
(947,562,o),
(947,429,cs),
(947,300,o),
(825,213,o),
(636,213,cs),
(579,213,o),
(446,212,o),
(423,225,c)
);
},
{
closed = 1;
nodes = (
(533,791,l),
(600,1135,l),
(637,1140,o),
(721,1142,o),
(793,1142,cs),
(907,1142,o),
(1026,1122,o),
(1026,988,cs),
(1026,884,o),
(920,820,o),
(793,796,c),
(756,791,o),
(696,791,o),
(656,791,cs)
);
}
);
width = 1366;
},
{
layerId = "5406E1A9-98D2-48B0-A3BF-3E9D89732E2E";
shapes = (
{
closed = 1;
nodes = (
(1224,1300,o),
(1004,1373,o),
(804,1373,cs),
(640,1373,o),
(501,1363,o),
(393,1344,c),
(109,9,l),
(217,-15,o),
(347,-17,o),
(492,-17,cs),
(817,-17,o),
(1143,126,o),
(1143,448,cs),
(1143,613,o),
(1049,691,o),
(909,710,c),
(911,717,l),
(1127,778,o),
(1224,930,o),
(1224,1082,cs)
);
},
{
closed = 1;
nodes = (
(427,612,l),
(598,612,ls),
(758,612,o),
(933,592,o),
(933,426,cs),
(933,230,o),
(736,146,o),
(540,146,cs),
(472,146,o),
(363,146,o),
(331,159,c)
);
},
{
closed = 1;
nodes = (
(459,763,l),
(552,1201,l),
(593,1206,o),
(604,1210,o),
(703,1210,cs),
(882,1210,o),
(1020,1173,o),
(1020,1045,cs),
(1020,893,o),
(877,813,o),
(724,773,c),
(648,764,o),
(605,763,o),
(566,763,cs)
);
}
);
width = 1251;
}
);
unicode = 66;
},
{
glyphname = C;
layers = (
{
layerId = "F961D97E-EEA9-4A8D-9339-D33FF8C656AD";
shapes = (
{
closed = 1;
nodes = (
(1212,236,l),
(1084,142,o),
(959,121,o),
(800,121,cs),
(536,121,o),
(310,293,o),
(310,586,cs),
(310,751,o),
(358,882,o),
(446,988,c),
(573,1149,o),
(774,1236,o),
(934,1236,cs),
(1149,1236,o),
(1297,1172,o),
(1342,1130,c),
(1439,1243,l),
(1394,1292,o),
(1222,1381,o),
(950,1381,cs),
(773,1381,o),
(550,1319,o),
(385,1172,cs),
(236,1041,o),
(132,842,o),
(132,549,cs),
(132,227,o),
(370,-26,o),
(798,-26,cs),
(984,-26,o),
(1175,49,o),
(1266,107,c)
);
}
);
width = 1366;
},
{
layerId = "459F892D-0193-436C-99B7-2A4FAD43389C";
shapes = (
{
closed = 1;
nodes = (
(1180,375,l),
(1098,336,o),
(956,278,o),
(845,278,cs),
(611,278,o),
(527,382,o),
(527,601,cs),
(527,717,o),
(591,848,o),
(634,914,c),
(707,1015,o),
(800,1078,o),
(1000,1078,cs),
(1091,1078,o),
(1183,1056,o),
(1330,977,c),
(1471,1269,l),
(1308,1363,o),
(1166,1383,o),
(1049,1383,cs),
(725,1383,o),
(528,1277,o),
(381,1116,cs),
(239,961,o),
(150,752,o),
(150,563,cs),
(150,122,o),
(427,-26,o),
(836,-26,cs),
(945,-26,o),
(1103,3,o),
(1257,95,c)
);
}
);
width = 1366;
},
{
layerId = "DE55C86C-15D8-4D4C-BA82-540887FA286E";
shapes = (
{
closed = 1;
nodes = (
(1191,328,l),
(1093,271,o),
(957,225,o),
(830,225,cs),
(586,225,o),
(454,352,o),
(454,596,cs),
(454,728,o),
(513,859,o),
(571,939,c),
(662,1060,o),
(791,1131,o),
(978,1131,cs),
(1110,1131,o),
(1221,1095,o),
(1334,1028,c),
(1460,1260,l),
(1337,1339,o),
(1185,1382,o),
(1016,1382,cs),
(741,1382,o),
(535,1291,o),
(382,1135,cs),
(238,988,o),
(144,782,o),
(144,558,cs),
(144,145,o),
(435,-26,o),
(823,-26,cs),
(958,-26,o),
(1127,18,o),
(1260,99,c)
);
}
);
width = 1366;
},
{
layerId = "5406E1A9-98D2-48B0-A3BF-3E9D89732E2E";
shapes = (
{
closed = 1;
nodes = (
(1207,258,l),
(1086,173,o),
(958,146,o),
(807,146,cs),
(548,146,o),
(345,307,o),
(345,588,cs),
(345,745,o),
(396,876,o),
(476,976,cs),
(595,1127,o),
(778,1210,o),
(945,1210,cs),
(1139,1210,o),
(1278,1153,o),
(1340,1105,c),
(1444,1247,l),
(1380,1303,o),
(1213,1381,o),
(966,1381,cs),
(765,1381,o),
(546,1312,o),
(384,1163,cs),
(236,1028,o),
(135,827,o),
(135,551,cs),
(135,216,o),
(384,-26,o),
(804,-26,cs),
(977,-26,o),
(1163,41,o),
(1264,105,c)
);
}
);
width = 1366;
}
);
unicode = 67;
},
{
glyphname = D;
layers = (
{
layerId = "F961D97E-EEA9-4A8D-9339-D33FF8C656AD";
shapes = (
{
closed = 1;
nodes = (
(126,-2,l),
(174,-10,o),
(382,-18,o),
(506,-18,cs),
(1058,-18,o),
(1438,344,o),
(1438,850,cs),
(1438,1145,o),
(1265,1373,o),
(801,1373,cs),
(677,1373,o),
(528,1372,o),
(423,1356,c)
);
},
{
closed = 1;
nodes = (
(1122,1229,o),
(1261,1063,o),
(1261,851,cs),
(1261,450,o),
(973,126,o),
(531,126,cs),
(427,126,o),
(347,129,o),
(320,134,c),
(556,1218,l),
(591,1223,o),
(709,1229,o),
(826,1229,cs)
);
}
);
width = 1479;
},
{
layerId = "459F892D-0193-436C-99B7-2A4FAD43389C";
shapes = (
{
closed = 1;
nodes = (
(96,-2,l),
(174,-10,o),
(378,-24,o),
(536,-24,cs),
(1263,-24,o),
(1504,344,o),
(1504,796,cs),
(1504,1184,o),
(1267,1376,o),
(801,1376,cs),
(650,1376,o),
(462,1372,o),
(343,1356,c)
);
},
{
closed = 1;
nodes = (
(1020,1070,o),
(1126,967,o),
(1126,752,cs),
(1126,434,o),
(955,284,o),
(672,284,cs),
(656,284,o),
(520,286,o),
(499,291,c),
(637,1068,l),
(672,1071,o),
(715,1070,o),
(772,1070,cs)
);
}
);
width = 1479;
},
{
layerId = "DE55C86C-15D8-4D4C-BA82-540887FA286E";
shapes = (
{
closed = 1;
nodes = (
(106,-2,l),
(174,-10,o),
(379,-22,o),
(526,-22,cs),
(1194,-22,o),
(1482,344,o),
(1482,814,cs),
(1482,1171,o),
(1266,1375,o),
(801,1375,cs),
(659,1375,o),
(484,1372,o),
(370,1356,c)
);
},
{
closed = 1;
nodes = (
(1054,1123,o),
(1171,999,o),
(1171,785,cs),
(1171,439,o),
(961,231,o),
(625,231,cs),
(579,231,o),
(462,233,o),
(439,238,c),
(610,1118,l),
(645,1122,o),
(713,1123,o),
(790,1123,cs)
);
}
);
width = 1479;
},
{
layerId = "5406E1A9-98D2-48B0-A3BF-3E9D89732E2E";
shapes = (
{
closed = 1;
nodes = (
(121,-2,l),
(174,-10,o),
(381,-19,o),
(511,-19,cs),
(1091,-19,o),
(1449,344,o),
(1449,841,cs),
(1449,1151,o),
(1265,1373,o),
(801,1373,cs),
(672,1373,o),
(517,1372,o),
(410,1356,c)
);
},
{
closed = 1;
nodes = (
(1105,1203,o),
(1239,1047,o),
(1239,835,cs),
(1239,447,o),
(970,151,o),
(554,151,cs),
(464,151,o),
(375,154,o),
(349,159,c),
(569,1193,l),
(604,1198,o),
(710,1203,o),
(817,1203,cs)
);
}
);
width = 1479;
}
);
unicode = 68;
},
{
glyphname = E;
layers = (
{
layerId = "F961D97E-EEA9-4A8D-9339-D33FF8C656AD";
shapes = (
{
closed = 1;
nodes = (
(429,1356,l),
(134,0,l),
(973,0,l),
(1004,139,l),
(328,139,l),
(434,627,l),
(1050,627,l),
(1080,765,l),
(465,765,l),
(563,1217,l),
(1230,1217,l),
(1260,1356,l)
);
}
);
width = 1214;
},
{
layerId = "459F892D-0193-436C-99B7-2A4FAD43389C";
shapes = (
{
closed = 1;
nodes = (
(373,1356,l),
(125,0,l),
(1239,0,l),
(1298,309,l),
(533,309,l),
(568,523,l),
(1252,523,l),
(1310,831,l),
(626,831,l),
(664,1047,l),
(1420,1047,l),
(1478,1356,l)
);
}
);
width = 1443;
},
{
layerId = "DE55C86C-15D8-4D4C-BA82-540887FA286E";
shapes = (
{
closed = 1;
nodes = (
(392,1356,l),
(128,0,l),
(1150,0,l),
(1199,252,l),
(464,252,l),
(523,558,l),
(1184,558,l),
(1233,809,l),
(572,809,l),
(630,1104,l),
(1356,1104,l),
(1405,1356,l)
);
}
);
width = 1366;
},
{
layerId = "5406E1A9-98D2-48B0-A3BF-3E9D89732E2E";
shapes = (
{
closed = 1;
nodes = (
(420,1356,l),
(132,0,l),
(1016,0,l),
(1051,166,l),
(361,166,l),
(456,610,l),
(1082,610,l),
(1117,776,l),
(491,776,l),
(579,1189,l),
(1260,1189,l),
(1295,1356,l)
);
}
);
width = 1251;
}
);
unicode = 69;
},
{
glyphname = F;
layers = (
{
layerId = "F961D97E-EEA9-4A8D-9339-D33FF8C656AD";
shapes = (
{
closed = 1;
nodes = (
(400,1356,l),
(104,0,l),
(267,0,l),
(400,609,l),
(966,609,l),
(996,747,l),
(431,747,l),
(532,1217,l),
(1136,1217,l),
(1166,1356,l)
);
}
);
width = 1214;
},
{
layerId = "459F892D-0193-436C-99B7-2A4FAD43389C";
shapes = (
{
closed = 1;
nodes = (
(376,1356,l),
(128,0,l),
(478,0,l),
(567,499,l),
(1302,499,l),
(1360,810,l),
(625,810,l),
(667,1047,l),
(1482,1047,l),
(1540,1356,l)
);
}
);
width = 1443;
},
{
layerId = "DE55C86C-15D8-4D4C-BA82-540887FA286E";
shapes = (
{
closed = 1;
nodes = (
(384,1356,l),
(120,0,l),
(407,0,l),
(511,536,l),
(1189,536,l),
(1238,789,l),
(560,789,l),
(622,1104,l),
(1366,1104,l),
(1415,1356,l)
);
}
);
width = 1366;
},
{
layerId = "5406E1A9-98D2-48B0-A3BF-3E9D89732E2E";
shapes = (
{
closed = 1;
nodes = (
(396,1356,l),
(108,0,l),
(301,0,l),
(427,591,l),
(1020,591,l),
(1055,757,l),
(462,757,l),
(554,1189,l),
(1192,1189,l),
(1227,1356,l)
);
}
);
width = 1251;
}
);
unicode = 70;
},
{
glyphname = G;
layers = (
{
layerId = "F961D97E-EEA9-4A8D-9339-D33FF8C656AD";
shapes = (
{
closed = 1;
nodes = (
(858,675,l),
(828,544,l),
(1252,544,l),
(1182,218,l),
(1081,161,o),
(992,121,o),
(787,121,cs),
(531,121,o),
(314,298,o),
(314,595,cs),
(314,998,o),
(662,1236,o),
(929,1236,cs),
(1135,1236,o),
(1277,1173,o),
(1326,1127,c),
(1426,1243,l),
(1380,1292,o),
(1215,1381,o),
(952,1381,cs),
(623,1381,o),
(136,1163,o),
(136,564,cs),
(136,227,o),
(381,-26,o),
(807,-26,cs),
(1054,-26,o),
(1260,87,o),
(1313,137,c),
(1432,675,l)
);
}
);
width = 1479;
},
{
layerId = "459F892D-0193-436C-99B7-2A4FAD43389C";
shapes = (
{
closed = 1;
nodes = (
(909,732,l),
(862,492,l),
(1118,490,l),
(1092,328,l),
(1021,295,o),
(950,278,o),
(909,278,cs),
(636,278,o),
(508,354,o),
(508,619,cs),
(508,890,o),
(689,1078,o),
(1030,1078,cs),
(1161,1078,o),
(1283,1050,o),
(1413,993,c),
(1539,1269,l),
(1383,1363,o),
(1206,1383,o),
(1039,1383,cs),
(374,1383,o),
(133,962,o),
(133,560,cs),
(133,155,o),
(401,-28,o),
(792,-28,cs),
(968,-28,o),
(1077,-29,o),
(1321,89,c),
(1438,732,l)
);
}
);
width = 1479;
},
{
layerId = "DE55C86C-15D8-4D4C-BA82-540887FA286E";
shapes = (
{
closed = 1;
nodes = (
(892,713,l),
(851,509,l),
(1163,508,l),
(1122,291,l),
(1041,250,o),
(964,225,o),
(868,225,cs),
(601,225,o),
(443,335,o),
(443,611,cs),
(443,926,o),
(680,1131,o),
(996,1131,cs),
(1152,1131,o),
(1281,1091,o),
(1384,1038,c),
(1501,1260,l),
(1382,1339,o),
(1209,1382,o),
(1010,1382,cs),
(457,1382,o),
(134,1029,o),
(134,561,cs),
(134,179,o),
(394,-27,o),
(797,-27,cs),
(997,-27,o),
(1138,10,o),
(1318,105,c),
(1436,713,l)
);
}
);
width = 1479;
},
{
layerId = "5406E1A9-98D2-48B0-A3BF-3E9D89732E2E";
shapes = (
{
closed = 1;
nodes = (
(866,684,l),
(834,535,l),
(1230,535,l),
(1167,236,l),
(1071,183,o),
(985,146,o),
(807,146,cs),
(548,146,o),
(345,307,o),
(345,599,cs),
(345,980,o),
(666,1210,o),
(945,1210,cs),
(1139,1210,o),
(1278,1153,o),
(1340,1105,c),
(1444,1247,l),
(1380,1303,o),
(1213,1381,o),
(966,1381,cs),
(582,1381,o),
(135,1130,o),
(135,563,cs),
(135,215,o),
(384,-26,o),
(804,-26,c),
(1040,-26,o),
(1230,68,o),
(1314,129,c),
(1433,684,l)
);
}
);
width = 1479;
}
);
unicode = 71;
},
{
glyphname = H;
layers = (
{
layerId = "F961D97E-EEA9-4A8D-9339-D33FF8C656AD";
shapes = (
{
closed = 1;
nodes = (
(1115,621,l),
(979,0,l),
(1144,0,l),
(1439,1356,l),
(1275,1356,l),
(1147,765,l),
(448,765,l),
(576,1356,l),
(412,1356,l),
(116,0,l),
(281,0,l),
(416,621,l)
);
}
);
width = 1443;
},
{
layerId = "459F892D-0193-436C-99B7-2A4FAD43389C";
shapes = (
{
closed = 1;
nodes = (
(1160,529,l),
(1065,0,l),
(1414,0,l),
(1662,1356,l),
(1313,1356,l),
(1218,834,l),
(593,834,l),
(687,1356,l),
(340,1356,l),
(92,0,l),
(439,0,l),
(535,529,l)
);
}
);
width = 1669;
},
{
layerId = "DE55C86C-15D8-4D4C-BA82-540887FA286E";
shapes = (
{
closed = 1;
nodes = (
(1145,560,l),
(1036,0,l),
(1323,0,l),
(1587,1356,l),
(1300,1356,l),
(1194,811,l),
(544,811,l),
(650,1356,l),
(364,1356,l),
(100,0,l),
(386,0,l),
(495,560,l)
);
}
);
width = 1593;
},
{
layerId = "5406E1A9-98D2-48B0-A3BF-3E9D89732E2E";
shapes = (
{
closed = 1;
nodes = (
(1122,606,l),
(993,0,l),
(1187,0,l),
(1475,1356,l),
(1281,1356,l),
(1158,776,l),
(471,776,l),
(594,1356,l),
(400,1356,l),
(112,0,l),
(306,0,l),
(435,606,l)
);
}
);
width = 1479;
}
);
unicode = 72;
},
{
glyphname = I;
layers = (
{
layerId = "F961D97E-EEA9-4A8D-9339-D33FF8C656AD";
shapes = (
{
closed = 1;
nodes = (
(416,1356,l),
(120,0,l),
(285,0,l),
(582,1356,l)
);
}
);
width = 645;
},
{
layerId = "459F892D-0193-436C-99B7-2A4FAD43389C";
shapes = (
{
closed = 1;
nodes = (
(454,1356,l),
(211,0,l),
(553,0,l),
(796,1356,l)
);
}
);
width = 874;
},
{
layerId = "DE55C86C-15D8-4D4C-BA82-540887FA286E";
shapes = (
{
closed = 1;
nodes = (
(441,1356,l),
(180,0,l),
(463,0,l),
(724,1356,l)
);
}
);
width = 797;
},
{
layerId = "5406E1A9-98D2-48B0-A3BF-3E9D89732E2E";
shapes = (
{
closed = 1;
nodes = (
(422,1356,l),
(134,0,l),
(328,0,l),
(616,1356,l)
);
}
);
width = 682;
}
);
unicode = 73;
},
{
glyphname = J;
layers = (
{
layerId = "F961D97E-EEA9-4A8D-9339-D33FF8C656AD";
shapes = (
{
closed = 1;
nodes = (
(673,1356,l),
(452,340,ls),
(424,212,o),
(356,127,o),
(255,127,cs),
(165,127,o),
(117,172,o),
(101,191,c),
(-8,96,l),
(10,46,o),
(87,-17,o),
(221,-17,cs),
(432,-17,o),
(557,74,o),
(603,285,cs),
(836,1356,l)
);
}
);
width = 872;
},
{
layerId = "459F892D-0193-436C-99B7-2A4FAD43389C";
shapes = (
{
closed = 1;
nodes = (
(754,1356,l),
(595,479,ls),
(573,361,o),
(525,278,o),
(356,278,cs),
(294,278,o),
(212,297,o),
(148,346,c),
(10,60,l),
(167,-40,o),
(286,-31,o),
(370,-31,cs),
(716,-31,o),
(879,148,o),
(937,440,c),
(1102,1356,l)
);
}
);
width = 1101;
},
{
layerId = "DE55C86C-15D8-4D4C-BA82-540887FA286E";
shapes = (
{
closed = 1;
nodes = (
(727,1356,l),
(547,432,ls),
(523,311,o),
(468,227,o),
(322,227,cs),
(251,227,o),
(180,255,o),
(132,294,c),
(4,72,l),
(114,-11,o),
(219,-26,o),
(320,-26,cs),
(621,-26,o),
(771,123,o),
(825,388,cs),
(1013,1356,l)
);
}
);
width = 1024;
},
{
layerId = "5406E1A9-98D2-48B0-A3BF-3E9D89732E2E";
shapes = (
{
closed = 1;
nodes = (
(686,1356,l),
(475,362,ls),
(448,236,o),
(383,151,o),
(271,151,cs),
(186,151,o),
(132,192,o),
(108,216,c),
(-5,90,l),
(35,32,o),
(119,-19,o),
(245,-19,cs),
(478,-19,o),
(609,86,o),
(657,310,cs),
(879,1356,l)
);
}
);
width = 909;
}
);
unicode = 74;
},
{
glyphname = K;
layers = (
{
layerId = "F961D97E-EEA9-4A8D-9339-D33FF8C656AD";
shapes = (
{
closed = 1;
nodes = (
(498,630,l),
(1056,0,l),
(1272,0,l),
(724,614,l),
(662,691,l),
(750,752,l),
(1480,1356,l),
(1262,1356,l),
(530,750,l),
(444,723,l),
(582,1356,l),
(417,1356,l),
(121,0,l),
(286,0,l),
(423,630,l)
);
}
);
width = 1366;
},
{
layerId = "459F892D-0193-436C-99B7-2A4FAD43389C";
shapes = (
{
closed = 1;
nodes = (
(731,544,l),
(946,0,l),
(1358,0,l),
(1084,616,l),
(998,691,l),
(1108,774,l),
(1579,1356,l),
(1119,1356,l),
(718,809,l),
(579,777,l),
(685,1356,l),
(337,1356,l),
(89,0,l),
(437,0,l),
(534,544,l)
);
}
);
width = 1366;
},
{
layerId = "DE55C86C-15D8-4D4C-BA82-540887FA286E";
shapes = (
{
closed = 1;
nodes = (
(653,573,l),
(983,0,l),
(1329,0,l),
(963,615,l),
(885,691,l),
(988,767,l),
(1546,1356,l),
(1167,1356,l),
(655,789,l),
(534,759,l),
(650,1356,l),
(364,1356,l),
(100,0,l),
(386,0,l),
(497,573,l)
);
}
);
width = 1366;
},
{
layerId = "5406E1A9-98D2-48B0-A3BF-3E9D89732E2E";
shapes = (
{
closed = 1;
nodes = (
(536,616,l),
(1038,0,l),
(1286,0,l),
(782,614,l),
(716,691,l),
(808,756,l),
(1496,1356,l),
(1239,1356,l),
(560,759,l),
(466,732,l),
(598,1356,l),
(404,1356,l),
(116,0,l),
(310,0,l),
(441,616,l)
);
}
);
width = 1366;
}
);
unicode = 75;
},
{
glyphname = L;
layers = (
{
layerId = "F961D97E-EEA9-4A8D-9339-D33FF8C656AD";
shapes = (
{
closed = 1;
nodes = (
(1075,0,l),
(1107,144,l),
(320,144,l),
(584,1356,l),
(421,1356,l),
(125,0,l)
);
}
);
width = 1103;
},
{
layerId = "459F892D-0193-436C-99B7-2A4FAD43389C";
shapes = (
{
closed = 1;
nodes = (
(1212,0,l),
(1270,307,l),
(499,307,l),
(689,1356,l),
(341,1356,l),
(93,0,l)
);
}
);
width = 1326;
},
{
layerId = "DE55C86C-15D8-4D4C-BA82-540887FA286E";
shapes = (
{
closed = 1;
nodes = (
(1166,0,l),
(1215,252,l),
(439,252,l),
(654,1356,l),
(368,1356,l),
(104,0,l)
);
}
);
width = 1251;
},
{
layerId = "5406E1A9-98D2-48B0-A3BF-3E9D89732E2E";
shapes = (
{
closed = 1;
nodes = (
(1097,0,l),
(1133,170,l),
(349,170,l),
(601,1356,l),
(408,1356,l),
(120,0,l)
);
}
);
width = 1139;
}
);
unicode = 76;
},
{
glyphname = M;
layers = (
{
layerId = "F961D97E-EEA9-4A8D-9339-D33FF8C656AD";
shapes = (
{
closed = 1;
nodes = (
(1396,934,l),
(1194,0,l),
(1356,0,l),
(1652,1356,l),
(1522,1356,l),
(962,741,l),
(869,632,l),
(867,632,l),
(818,736,l),
(516,1356,l),
(420,1356,l),
(124,0,l),
(277,0,l),
(479,936,l),
(490,1050,l),
(501,1050,l),
(537,947,l),
(803,414,l),
(852,414,l),
(1333,945,l),
(1417,1052,l),
(1425,1052,l)
);
}
);
width = 1669;
},
{
layerId = "459F892D-0193-436C-99B7-2A4FAD43389C";
shapes = (
{
closed = 1;
nodes = (
(1440,567,l),
(1340,0,l),
(1690,0,l),
(1938,1356,l),
(1593,1356,l),
(1069,731,l),
(982,600,l),
(970,600,l),
(917,727,l),
(633,1356,l),
(314,1356,l),
(66,0,l),
(396,0,l),
(497,569,l),
(529,853,l),
(533,853,l),
(596,681,l),
(829,155,l),
(938,155,l),
(1371,679,l),
(1506,855,l),
(1512,855,l)
);
}
);
width = 1898;
},
{
layerId = "DE55C86C-15D8-4D4C-BA82-540887FA286E";
shapes = (
{
closed = 1;
nodes = (
(1425,690,l),
(1291,0,l),
(1578,0,l),
(1842,1356,l),
(1569,1356,l),
(1033,734,l),
(944,611,l),
(935,611,l),
(884,730,l),
(594,1356,l),
(349,1356,l),
(85,0,l),
(356,0,l),
(491,692,l),
(516,919,l),
(522,919,l),
(576,770,l),
(820,242,l),
(909,242,l),
(1358,768,l),
(1476,921,l),
(1483,921,l)
);
}
);
width = 1821;
},
{
layerId = "5406E1A9-98D2-48B0-A3BF-3E9D89732E2E";
shapes = (
{
closed = 1;
nodes = (
(1403,874,l),
(1217,0,l),
(1410,0,l),
(1698,1356,l),
(1533,1356,l),
(979,739,l),
(887,627,l),
(883,627,l),
(834,734,l),
(535,1356,l),
(402,1356,l),
(114,0,l),
(296,0,l),
(482,876,l),
(496,1018,l),
(506,1018,l),
(546,904,l),
(807,372,l),
(866,372,l),
(1339,902,l),
(1431,1020,l),
(1439,1020,l)
);
}
);
width = 1706;
}
);
unicode = 77;
},
{
glyphname = N;
layers = (
{
layerId = "F961D97E-EEA9-4A8D-9339-D33FF8C656AD";
shapes = (
{
closed = 1;
nodes = (
(535,872,l),
(999,0,l),
(1076,0,l),
(1372,1356,l),
(1217,1356,l),
(1028,481,l),
(1007,348,l),
(997,348,l),
(939,486,l),
(471,1356,l),
(394,1356,l),
(96,0,l),
(249,0,l),
(438,876,l),
(460,1029,l),
(466,1029,l)
);
}
);
width = 1330;
},
{
layerId = "459F892D-0193-436C-99B7-2A4FAD43389C";
shapes = (
{
closed = 1;
nodes = (
(643,635,l),
(1026,-2,l),
(1298,-2,l),
(1547,1356,l),
(1217,1356,l),
(1105,733,l),
(1086,499,l),
(1078,499,l),
(976,710,l),
(599,1356,l),
(327,1356,l),
(80,0,l),
(412,0,l),
(522,610,l),
(542,814,l),
(550,814,l)
);
}
);
width = 1554;
},
{
layerId = "DE55C86C-15D8-4D4C-BA82-540887FA286E";
shapes = (
{
closed = 1;
nodes = (
(609,714,l),
(1017,0,l),
(1224,0,l),
(1488,1356,l),
(1217,1356,l),
(1080,650,l),
(1060,450,l),
(1051,450,l),
(964,636,l),
(558,1356,l),
(351,1356,l),
(85,0,l),
(357,0,l),
(496,699,l),
(516,886,l),
(524,886,l)
);
}
);
width = 1479;
},
{
layerId = "5406E1A9-98D2-48B0-A3BF-3E9D89732E2E";
shapes = (
{
closed = 1;
nodes = (
(555,833,l),
(1003,0,l),
(1112,0,l),
(1400,1356,l),
(1217,1356,l),
(1041,522,l),
(1020,373,l),
(1010,373,l),
(945,522,l),
(494,1356,l),
(385,1356,l),
(93,0,l),
(275,0,l),
(454,833,l),
(475,994,l),
(482,994,l)
);
}
);
width = 1366;
}
);
unicode = 78;
},
{
glyphname = O;
layers = (
{
layerId = "F961D97E-EEA9-4A8D-9339-D33FF8C656AD";
shapes = (
{
closed = 1;
nodes = (
(146,156,o),
(386,-26,o),
(662,-26,cs),
(1165,-26,o),
(1447,387,o),
(1447,850,cs),
(1447,1176,o),
(1258,1381,o),
(943,1381,c),
(416,1383,o),
(147,929,o),
(145,509,cs)
);
},
{
closed = 1;
nodes = (
(323,821,o),
(514,1241,o),
(924,1241,cs),
(1123,1241,o),
(1269,1100,o),
(1269,850,cs),
(1269,388,o),
(986,116,o),
(684,116,cs),
(472,116,o),
(319,275,o),
(321,522,cs)
);
}
);
width = 1479;
},
{
layerId = "459F892D-0193-436C-99B7-2A4FAD43389C";
shapes = (
{
closed = 1;
nodes = (
(116,186,o),
(338,-29,o),
(740,-29,cs),
(1153,-29,o),
(1465,315,o),
(1465,810,cs),
(1465,1146,o),
(1261,1383,o),
(877,1383,c),
(370,1376,o),
(91,949,o),
(105,519,c)
);
},
{
closed = 1;
nodes = (
(464,809,o),
(585,1076,o),
(816,1076,cs),
(1021,1076,o),
(1090,925,o),
(1090,758,cs),
(1090,553,o),
(983,277,o),
(740,277,cs),
(575,277,o),
(486,400,o),
(478,556,cs)
);
}
);
width = 1479;
},
{
layerId = "DE55C86C-15D8-4D4C-BA82-540887FA286E";
shapes = (
{
closed = 1;
nodes = (
(126,176,o),
(354,-28,o),
(714,-28,cs),
(1157,-28,o),
(1459,339,o),
(1459,823,cs),
(1459,1156,o),
(1260,1382,o),
(899,1382,c),
(385,1378,o),
(110,942,o),
(118,516,cs)
);
},
{
closed = 1;
nodes = (
(417,813,o),
(561,1131,o),
(852,1131,cs),
(1055,1131,o),
(1150,984,o),
(1150,789,cs),
(1150,498,o),
(984,223,o),
(721,223,cs),
(540,223,o),
(430,358,o),
(425,545,cs)
);
}
);
width = 1479;
},
{
layerId = "5406E1A9-98D2-48B0-A3BF-3E9D89732E2E";
shapes = (
{
closed = 1;
nodes = (
(141,161,o),
(378,-26,o),
(675,-26,cs),
(1163,-26,o),
(1450,375,o),
(1450,843,cs),
(1450,1171,o),
(1258,1381,o),
(932,1381,cs),
(408,1381,o),
(138,932,o),
(138,511,c)
);
},
{
closed = 1;
nodes = (
(346,819,o),
(525,1214,o),
(906,1214,cs),
(1106,1214,o),
(1240,1072,o),
(1240,835,cs),
(1240,415,o),
(985,142,o),
(693,142,cs),
(488,142,o),
(346,295,o),
(346,528,cs)
);
}
);
width = 1479;
}
);
unicode = 79;
},
{
glyphname = P;
layers = (
{
layerId = "F961D97E-EEA9-4A8D-9339-D33FF8C656AD";
shapes = (
{
closed = 1;
nodes = (
(128,0,l),
(292,0,l),
(407,525,l),
(441,520,o),
(596,513,o),
(628,513,cs),
(944,513,o),
(1237,703,o),
(1237,979,cs),
(1237,1241,o),
(1090,1373,o),
(769,1373,cs),
(705,1373,o),
(533,1368,o),
(421,1342,c)
);
},
{
closed = 1;
nodes = (
(974,1234,o),
(1060,1127,o),
(1060,987,cs),
(1060,827,o),
(936,652,o),
(649,652,cs),
(617,652,o),
(463,658,o),
(437,662,c),
(558,1221,l),
(599,1234,o),
(663,1234,o),
(745,1234,cs)
);
}
);
width = 1251;
},
{
layerId = "459F892D-0193-436C-99B7-2A4FAD43389C";
shapes = (
{
closed = 1;
nodes = (
(96,0,l),
(445,0,l),
(522,423,l),
(548,418,o),
(589,417,o),
(612,417,cs),
(983,417,o),
(1305,569,o),
(1305,1018,cs),
(1305,1312,o),
(1010,1376,o),
(775,1376,cs),
(595,1376,o),
(467,1361,o),
(341,1342,c)
);
},
{
closed = 1;
nodes = (
(821,1067,o),
(925,1059,o),
(925,943,cs),
(925,719,o),
(757,726,o),
(642,726,cs),
(623,726,o),
(597,729,o),
(580,736,c),
(638,1060,l),
(665,1061,o),
(697,1067,o),
(741,1067,cs)
);
}
);
width = 1251;
},
{
layerId = "DE55C86C-15D8-4D4C-BA82-540887FA286E";
shapes = (
{
closed = 1;
nodes = (
(107,0,l),
(394,0,l),
(483,457,l),
(512,452,o),
(591,449,o),
(617,449,cs),
(970,449,o),
(1282,614,o),
(1282,1005,cs),
(1282,1288,o),
(1037,1375,o),
(773,1375,cs),
(632,1375,o),
(489,1363,o),
(368,1342,c)
);
},
{
closed = 1;
nodes = (
(872,1123,o),
(970,1082,o),
(970,958,cs),
(970,755,o),
(817,701,o),
(644,701,cs),
(621,701,o),
(552,705,o),
(532,711,c),
(611,1114,l),
(643,1119,o),
(686,1123,o),
(742,1123,cs)
);
}
);
width = 1251;
},
{
layerId = "5406E1A9-98D2-48B0-A3BF-3E9D89732E2E";
shapes = (
{
closed = 1;
nodes = (
(123,0,l),
(317,0,l),
(425,508,l),
(458,503,o),
(594,497,o),
(625,497,cs),
(950,497,o),
(1248,681,o),
(1248,985,cs),
(1248,1252,o),
(1077,1373,o),
(770,1373,cs),
(687,1373,o),
(522,1366,o),
(408,1342,c)
);
},
{
closed = 1;
nodes = (
(949,1207,o),
(1038,1116,o),
(1038,980,cs),
(1038,809,o),
(907,664,o),
(647,664,cs),
(618,664,o),
(485,669,o),
(460,674,c),
(571,1195,l),
(610,1206,o),
(669,1207,o),
(744,1207,cs)
);
}
);
width = 1251;
}
);
unicode = 80;
},
{
glyphname = Q;
layers = (
{
layerId = "F961D97E-EEA9-4A8D-9339-D33FF8C656AD";
shapes = (
{
closed = 1;
nodes = (
(146,238,o),
(289,65,o),
(484,1,cs),
(502,-5,o),
(520,-10,o),
(538,-14,c),
(523,-57,o),
(521,-92,o),
(521,-137,c),
(528,-284,o),
(627,-394,o),
(801,-394,cs),
(940,-394,o),
(1047,-370,o),
(1122,-334,c),
(1092,-205,l),
(1042,-233,o),
(981,-250,o),
(822,-250,cs),
(716,-250,o),
(679,-180,o),
(679,-123,cs),
(679,-90,o),
(684,-57,o),
(689,-25,c),
(763,-23,o),
(832,-13,o),
(895,7,cs),
(1251,117,o),
(1447,462,o),
(1447,850,cs),
(1447,1176,o),
(1258,1381,o),
(943,1381,c),
(416,1382,o),
(148,929,o),
(145,510,cs)
);
},
{
closed = 1;
nodes = (
(1123,1242,o),
(1270,1102,o),
(1270,851,cs),
(1270,388,o),
(986,115,o),
(684,115,cs),
(471,115,o),
(318,274,o),
(320,523,cs),
(323,821,o),
(513,1242,o),
(924,1242,cs)
);
}
);
width = 1479;
},
{
layerId = "459F892D-0193-436C-99B7-2A4FAD43389C";
shapes = (
{
closed = 1;
nodes = (
(112,306,o),
(201,140,o),
(378,46,cs),
(396,37,o),
(415,29,o),
(436,20,c),
(430,-23,o),
(425,-70,o),
(425,-113,c),
(422,-358,o),
(611,-454,o),
(827,-454,cs),
(894,-454,o),
(1070,-413,o),
(1157,-351,c),
(1056,-106,l),
(996,-139,o),
(936,-160,o),
(918,-160,cs),
(802,-160,o),
(766,-140,o),
(766,-54,cs),
(766,-44,o),
(765,-35,o),
(767,-28,c),
(826,-26,o),
(883,-16,o),
(939,1,c),
(1248,90,o),
(1465,396,o),
(1465,810,cs),
(1465,1146,o),
(1261,1383,o),
(877,1383,c),
(370,1376,o),
(91,949,o),
(105,519,cs)
);
},
{
closed = 1;
nodes = (
(1021,1076,o),
(1090,925,o),
(1090,758,cs),
(1090,553,o),
(983,277,o),
(740,277,cs),
(575,277,o),
(486,400,o),
(478,556,cs),
(464,809,o),
(585,1076,o),
(816,1076,cs)
);
}
);
width = 1479;
},
{
layerId = "DE55C86C-15D8-4D4C-BA82-540887FA286E";
shapes = (
{
closed = 1;
nodes = (
(123,283,o),
(230,115,o),
(413,31,cs),
(431,23,o),
(450,16,o),
(470,9,c),
(461,-34,o),
(457,-77,o),
(457,-121,cs),
(457,-333,o),
(616,-434,o),
(818,-434,cs),
(909,-434,o),
(1044,-400,o),
(1127,-347,c),
(1068,-139,l),
(1011,-170,o),
(951,-190,o),
(886,-190,cs),
(773,-190,o),
(737,-153,o),
(737,-77,c),
(737,-59,o),
(738,-42,o),
(741,-27,c),
(805,-25,o),
(866,-15,o),
(924,3,cs),
(1249,99,o),
(1459,418,o),
(1459,823,cs),
(1459,1156,o),
(1260,1382,o),
(899,1382,c),
(385,1378,o),
(110,942,o),
(118,516,cs)
);
},
{
closed = 1;
nodes = (
(1055,1131,o),
(1150,984,o),
(1150,789,cs),
(1150,498,o),
(984,223,o),
(721,223,cs),
(540,223,o),
(430,358,o),
(425,545,cs),
(417,813,o),
(561,1131,o),
(852,1131,cs)
);
}
);
width = 1479;
},
{
layerId = "5406E1A9-98D2-48B0-A3BF-3E9D89732E2E";
shapes = (
{
closed = 1;
nodes = (
(140,249,o),
(274,77,o),
(466,8,cs),
(484,2,o),
(502,-3,o),
(521,-8,c),
(507,-51,o),
(505,-88,o),
(505,-133,c),
(510,-296,o),
(624,-404,o),
(805,-404,cs),
(932,-404,o),
(1046,-377,o),
(1123,-337,c),
(1086,-188,l),
(1034,-217,o),
(973,-235,o),
(838,-235,cs),
(730,-235,o),
(693,-173,o),
(693,-111,cs),
(693,-82,o),
(697,-53,o),
(702,-25,c),
(773,-23,o),
(840,-13,o),
(902,6,cs),
(1250,112,o),
(1450,451,o),
(1450,843,cs),
(1450,1171,o),
(1258,1381,o),
(932,1381,cs),
(408,1381,o),
(138,932,o),
(138,511,c)
);
},
{
closed = 1;
nodes = (
(1106,1214,o),
(1240,1072,o),
(1240,835,cs),
(1240,415,o),
(985,142,o),
(693,142,cs),
(488,142,o),
(346,295,o),
(346,528,cs),
(346,819,o),
(525,1214,o),
(906,1214,cs)
);
}
);
width = 1479;
}
);
unicode = 81;
},
{
glyphname = R;
layers = (
{
layerId = "F961D97E-EEA9-4A8D-9339-D33FF8C656AD";
shapes = (
{
closed = 1;
nodes = (
(123,0,l),
(287,0,l),
(420,616,l),
(556,586,l),
(940,0,l),
(1127,0,l),
(786,536,l),
(726,611,l),
(967,664,o),
(1132,837,o),
(1132,1079,cs),
(1132,1297,o),
(934,1373,o),
(738,1373,cs),
(616,1373,o),
(529,1361,o),
(416,1342,c)
);
},
{
closed = 1;
nodes = (
(885,1234,o),
(952,1151,o),
(952,1044,cs),
(952,877,o),
(786,721,o),
(552,721,cs),
(444,721,l),
(553,1221,l),
(594,1233,o),
(633,1234,o),
(708,1234,cs)
);
}
);
width = 1214;
},
{
layerId = "459F892D-0193-436C-99B7-2A4FAD43389C";
shapes = (
{
closed = 1;
nodes = (
(89,0,l),
(436,0,l),
(530,514,l),
(733,494,l),
(984,0,l),
(1407,0,l),
(1124,502,l),
(1069,569,l),
(1253,610,o),
(1446,757,o),
(1446,1016,cs),
(1446,1255,o),
(1250,1376,o),
(843,1376,cs),
(753,1376,o),
(471,1364,o),
(334,1342,c)
);
},
{
closed = 1;
nodes = (
(899,1067,o),
(1065,1079,o),
(1065,933,cs),
(1065,742,o),
(848,751,o),
(754,751,cs),
(573,751,l),
(628,1063,l),
(662,1066,o),
(767,1067,o),
(819,1067,cs)
);
}
);
width = 1443;
},
{
layerId = "DE55C86C-15D8-4D4C-BA82-540887FA286E";
shapes = (
{
closed = 1;
nodes = (
(100,0,l),
(386,0,l),
(493,548,l),
(674,525,l),
(969,0,l),
(1313,0,l),
(1011,513,l),
(954,583,l),
(1157,628,o),
(1341,784,o),
(1341,1037,cs),
(1341,1269,o),
(1144,1375,o),
(808,1375,cs),
(707,1375,o),
(490,1363,o),
(361,1342,c)
);
},
{
closed = 1;
nodes = (
(894,1123,o),
(1027,1103,o),
(1027,970,cs),
(1027,787,o),
(827,741,o),
(686,741,cs),
(530,741,l),
(603,1116,l),
(639,1122,o),
(722,1123,o),
(782,1123,cs)
);
}
);
width = 1366;
},
{
layerId = "5406E1A9-98D2-48B0-A3BF-3E9D89732E2E";
shapes = (
{
closed = 1;
nodes = (
(117,0,l),
(311,0,l),
(438,599,l),
(585,571,l),
(947,0,l),
(1172,0,l),
(841,530,l),
(781,604,l),
(1013,655,o),
(1183,824,o),
(1183,1069,cs),
(1183,1290,o),
(985,1373,o),
(755,1373,cs),
(638,1373,o),
(519,1361,o),
(402,1342,c)
);
},
{
closed = 1;
nodes = (
(887,1207,o),
(970,1139,o),
(970,1026,cs),
(970,855,o),
(796,726,o),
(584,726,cs),
(465,726,l),
(565,1195,l),
(605,1206,o),
(655,1207,o),
(726,1207,cs)
);
}
);
width = 1251;
}
);
unicode = 82;
},
{
glyphname = S;
layers = (
{
layerId = "F961D97E-EEA9-4A8D-9339-D33FF8C656AD";
shapes = (
{
closed = 1;
nodes = (
(781,213,o),
(661,117,o),
(442,117,cs),
(329,117,o),
(218,141,o),
(95,220,c),
(18,84,l),
(101,23,o),
(213,-26,o),
(409,-26,cs),
(815,-26,o),
(952,178,o),
(952,374,cs),
(952,718,o),
(415,739,o),
(415,1027,cs),
(415,1168,o),
(591,1240,o),
(721,1240,cs),
(814,1240,o),
(894,1239,o),
(1005,1179,c),
(1060,1311,l),
(1029,1334,o),
(950,1381,o),
(726,1381,cs),
(481,1381,o),
(244,1231,o),
(244,1019,cs),
(244,670,o),
(781,617,o),
(781,372,cs)
);
}
);
width = 987;
},
{
layerId = "459F892D-0193-436C-99B7-2A4FAD43389C";
shapes = (
{
closed = 1;
nodes = (
(757,311,o),
(667,272,o),
(541,272,cs),
(329,272,o),
(190,350,o),
(175,387,c),
(9,118,l),
(67,77,o),
(237,-28,o),
(531,-28,cs),
(851,-28,o),
(1119,120,o),
(1119,418,cs),
(1119,828,o),
(538,837,o),
(538,969,cs),
(538,1034,o),
(579,1082,o),
(731,1082,cs),
(907,1082,o),
(1052,997,o),
(1080,972,c),
(1250,1251,l),
(1079,1349,o),
(904,1383,o),
(771,1383,cs),
(389,1383,o),
(178,1216,o),
(178,937,cs),
(178,520,o),
(757,581,o),
(757,375,cs)
);
}
);
width = 1216;
},
{
layerId = "DE55C86C-15D8-4D4C-BA82-540887FA286E";
shapes = (
{
closed = 1;
nodes = (
(765,278,o),
(665,220,o),
(508,220,cs),
(329,220,o),
(199,280,o),
(148,331,c),
(12,107,l),
(78,59,o),
(229,-27,o),
(490,-27,cs),
(839,-27,o),
(1063,139,o),
(1063,403,cs),
(1063,791,o),
(497,804,o),
(497,988,cs),
(497,1079,o),
(583,1135,o),
(728,1135,cs),
(876,1135,o),
(999,1078,o),
(1055,1041,c),
(1186,1271,l),
(1062,1344,o),
(919,1382,o),
(756,1382,cs),
(420,1382,o),
(200,1221,o),
(200,964,cs),
(200,570,o),
(765,593,o),
(765,374,cs)
);
}
);
width = 1139;
},
{
layerId = "5406E1A9-98D2-48B0-A3BF-3E9D89732E2E";
shapes = (
{
closed = 1;
nodes = (
(777,229,o),
(662,142,o),
(458,142,cs),
(329,142,o),
(213,175,o),
(108,247,c),
(16,90,l),
(95,32,o),
(217,-26,o),
(429,-26,cs),
(821,-26,o),
(979,168,o),
(979,381,cs),
(979,736,o),
(435,755,o),
(435,1017,cs),
(435,1146,o),
(589,1214,o),
(723,1214,cs),
(829,1214,o),
(919,1200,o),
(1017,1145,c),
(1090,1301,l),
(1037,1336,o),
(942,1381,o),
(733,1381,cs),
(466,1381,o),
(233,1228,o),
(233,1005,cs),
(233,645,o),
(777,611,o),
(777,372,cs)
);
}
);
width = 1024;
}
);
unicode = 83;
},
{
glyphname = T;
layers = (
{
layerId = "F961D97E-EEA9-4A8D-9339-D33FF8C656AD";
shapes = (
{
closed = 1;
nodes = (
(1334,1211,l),
(1366,1356,l),
(229,1356,l),
(197,1211,l),
(684,1211,l),
(421,0,l),
(583,0,l),
(847,1211,l)
);
}
);
width = 1103;
},
{
layerId = "459F892D-0193-436C-99B7-2A4FAD43389C";
shapes = (
{
closed = 1;
nodes = (
(1340,1050,l),
(1398,1356,l),
(199,1356,l),
(141,1050,l),
(565,1050,l),
(375,0,l),
(724,0,l),
(915,1050,l)
);
}
);
width = 1326;
},
{
layerId = "DE55C86C-15D8-4D4C-BA82-540887FA286E";
shapes = (
{
closed = 1;
nodes = (
(1338,1104,l),
(1387,1356,l),
(209,1356,l),
(160,1104,l),
(605,1104,l),
(390,0,l),
(677,0,l),
(892,1104,l)
);
}
);
width = 1251;
},
{
layerId = "5406E1A9-98D2-48B0-A3BF-3E9D89732E2E";
shapes = (
{
closed = 1;
nodes = (
(1335,1185,l),
(1371,1356,l),
(224,1356,l),
(188,1185,l),
(665,1185,l),
(413,0,l),
(606,0,l),
(858,1185,l)
);
}
);
width = 1139;
}
);
unicode = 84;
},
{
glyphname = U;
layers = (
{
layerId = "F961D97E-EEA9-4A8D-9339-D33FF8C656AD";
shapes = (
{
closed = 1;
nodes = (
(1362,1356,l),
(1177,505,ls),
(1128,281,o),
(972,129,o),
(742,129,cs),
(531,129,o),
(424,199,o),
(421,372,cs),
(421,412,o),
(424,455,o),
(437,506,c),
(623,1356,l),
(457,1356,l),
(281,550,ls),
(259,445,o),
(252,355,o),
(250,329,c),
(244,101,o),
(404,-15,o),
(711,-15,cs),
(988,-15,o),
(1240,98,o),
(1321,466,cs),
(1515,1356,l)
);
}
);
width = 1479;
},
{
layerId = "459F892D-0193-436C-99B7-2A4FAD43389C";
shapes = (
{
closed = 1;
nodes = (
(1109,1356,l),
(964,552,l),
(921,325,o),
(831,280,o),
(691,280,cs),
(551,280,o),
(493,333,o),
(490,434,c),
(489,456,o),
(492,481,o),
(496,506,cs),
(650,1356,l),
(305,1356,l),
(150,506,l),
(142,457,o),
(124,393,o),
(133,314,c),
(164,103,o),
(341,-29,o),
(639,-29,cs),
(1014,-29,o),
(1222,152,o),
(1285,496,cs),
(1441,1356,l)
);
}
);
width = 1479;
},
{
layerId = "DE55C86C-15D8-4D4C-BA82-540887FA286E";
shapes = (
{
closed = 1;
nodes = (
(1194,1356,l),
(1035,536,ls),
(990,310,o),
(878,229,o),
(708,229,cs),
(544,229,o),
(470,288,o),
(467,413,cs),
(466,441,o),
(469,472,o),
(476,506,cs),
(641,1356,l),
(356,1356,l),
(194,521,ls),
(181,453,o),
(167,380,o),
(172,319,cs),
(191,102,o),
(362,-24,o),
(663,-24,cs),
(1005,-24,o),
(1228,134,o),
(1297,486,cs),
(1466,1356,l)
);
}
);
width = 1479;
},
{
layerId = "5406E1A9-98D2-48B0-A3BF-3E9D89732E2E";
shapes = (
{
closed = 1;
nodes = (
(1321,1356,l),
(1142,512,ls),
(1094,288,o),
(949,153,o),
(733,153,cs),
(534,153,o),
(435,221,o),
(432,382,c),
(432,419,o),
(435,459,o),
(446,506,c),
(627,1356,l),
(432,1356,l),
(260,543,ls),
(240,447,o),
(231,361,o),
(231,326,cs),
(231,101,o),
(394,-17,o),
(699,-17,cs),
(992,-17,o),
(1237,107,o),
(1315,471,cs),
(1503,1356,l)
);
}
);
width = 1479;
}
);
unicode = 85;
},
{
glyphname = V;
layers = (
{
layerId = "F961D97E-EEA9-4A8D-9339-D33FF8C656AD";
shapes = (
{
closed = 1;
nodes = (
(572,367,l),
(377,1356,l),
(220,1356,l),
(509,-22,l),
(572,-22,l),
(1455,1356,l),
(1277,1356,l),
(675,371,l),
(591,226,l),
(588,226,l)
);
}
);
width = 1214;
},
{
layerId = "459F892D-0193-436C-99B7-2A4FAD43389C";
shapes = (
{
closed = 1;
nodes = (
(685,677,l),
(544,1356,l),
(158,1356,l),
(497,-2,l),
(774,-2,l),
(1589,1356,l),
(1203,1356,l),
(821,678,l),
(725,476,l),
(713,476,l)
);
}
);
width = 1443;
},
{
layerId = "DE55C86C-15D8-4D4C-BA82-540887FA286E";
shapes = (
{
closed = 1;
nodes = (
(647,573,l),
(488,1356,l),
(179,1356,l),
(501,-9,l),
(706,-9,l),
(1544,1356,l),
(1228,1356,l),
(772,575,l),
(680,392,l),
(671,392,l)
);
}
);
width = 1366;
},
{
layerId = "5406E1A9-98D2-48B0-A3BF-3E9D89732E2E";
shapes = (
{
closed = 1;
nodes = (
(590,417,l),
(404,1356,l),
(210,1356,l),
(507,-19,l),
(604,-19,l),
(1477,1356,l),
(1265,1356,l),
(698,421,l),
(613,266,l),
(608,266,l)
);
}
);
width = 1251;
}
);
unicode = 86;
},
{
glyphname = W;
layers = (
{
layerId = "F961D97E-EEA9-4A8D-9339-D33FF8C656AD";
shapes = (
{
closed = 1;
nodes = (
(428,428,l),
(391,1356,l),
(226,1356,l),
(309,-22,l),
(392,-22,l),
(929,903,l),
(1000,1065,l),
(1008,1065,l),
(1013,904,l),
(1146,-22,l),
(1229,-22,l),
(1905,1356,l),
(1735,1356,l),
(1304,415,l),
(1245,255,l),
(1244,255,l),
(1241,408,l),
(1099,1356,l),
(1032,1356,l),
(485,410,l),
(419,255,l),
(416,255,l)
);
}
);
width = 1669;
},
{
layerId = "459F892D-0193-436C-99B7-2A4FAD43389C";
shapes = (
{
closed = 1;
nodes = (
(605,702,l),
(516,1356,l),
(172,1356,l),
(355,-2,l),
(619,-2,l),
(952,637,l),
(1026,769,l),
(1040,769,l),
(1065,639,l),
(1172,-2,l),
(1420,-2,l),
(2090,1356,l),
(1734,1356,l),
(1435,715,l),
(1378,533,l),
(1367,533,l),
(1354,712,l),
(1272,1356,l),
(1028,1356,l),
(708,717,l),
(624,533,l),
(615,533,l)
);
}
);
width = 1898;
},
{
layerId = "DE55C86C-15D8-4D4C-BA82-540887FA286E";
shapes = (
{
closed = 1;
nodes = (
(534,610,l),
(463,1356,l),
(179,1356,l),
(328,-9,l),
(532,-9,l),
(933,726,l),
(1006,868,l),
(1018,868,l),
(1036,728,l),
(1152,-9,l),
(1345,-9,l),
(2017,1356,l),
(1723,1356,l),
(1380,614,l),
(1329,440,l),
(1321,440,l),
(1305,610,l),
(1203,1356,l),
(1018,1356,l),
(622,614,l),
(544,440,l),
(537,440,l)
);
}
);
width = 1821;
},
{
layerId = "5406E1A9-98D2-48B0-A3BF-3E9D89732E2E";
shapes = (
{
closed = 1;
nodes = (
(461,472,l),
(416,1356,l),
(222,1356,l),
(321,-19,l),
(434,-19,l),
(937,860,l),
(1009,1017,l),
(1018,1017,l),
(1026,861,l),
(1155,-19,l),
(1265,-19,l),
(1940,1356,l),
(1740,1356,l),
(1330,463,l),
(1269,300,l),
(1266,300,l),
(1264,457,l),
(1132,1356,l),
(1036,1356,l),
(526,460,l),
(457,300,l),
(453,300,l)
);
}
);
width = 1706;
}
);
unicode = 87;
},
{
glyphname = X;
layers = (
{
layerId = "F961D97E-EEA9-4A8D-9339-D33FF8C656AD";
shapes = (
{
closed = 1;
nodes = (
(637,689,l),
(-5,0,l),
(194,0,l),
(654,518,l),
(725,604,l),
(761,518,l),
(983,0,l),
(1155,0,l),
(831,702,l),
(1434,1356,l),
(1232,1356,l),
(808,875,l),
(742,789,l),
(709,866,l),
(513,1356,l),
(337,1356,l)
);
}
);
width = 1214;
},
{
layerId = "459F892D-0193-436C-99B7-2A4FAD43389C";
shapes = (
{
closed = 1;
nodes = (
(511,689,l),
(-96,0,l),
(307,0,l),
(620,366,l),
(716,473,l),
(771,366,l),
(976,0,l),
(1364,0,l),
(984,708,l),
(1573,1356,l),
(1176,1356,l),
(889,1018,l),
(796,906,l),
(748,1023,l),
(570,1356,l),
(179,1356,l)
);
}
);
width = 1443;
},
{
layerId = "DE55C86C-15D8-4D4C-BA82-540887FA286E";
shapes = (
{
closed = 1;
nodes = (
(553,689,l),
(-65,0,l),
(269,0,l),
(631,417,l),
(719,517,l),
(768,417,l),
(978,0,l),
(1294,0,l),
(933,706,l),
(1526,1356,l),
(1195,1356,l),
(862,970,l),
(778,867,l),
(735,970,l),
(551,1356,l),
(232,1356,l)
);
}
);
width = 1366;
},
{
layerId = "5406E1A9-98D2-48B0-A3BF-3E9D89732E2E";
shapes = (
{
closed = 1;
nodes = (
(616,689,l),
(-19,0,l),
(212,0,l),
(648,493,l),
(723,583,l),
(763,493,l),
(981,0,l),
(1189,0,l),
(856,703,l),
(1456,1356,l),
(1223,1356,l),
(821,898,l),
(751,808,l),
(715,891,l),
(522,1356,l),
(311,1356,l)
);
}
);
width = 1251;
}
);
unicode = 88;
},
{
glyphname = Y;
layers = (
{
layerId = "F961D97E-EEA9-4A8D-9339-D33FF8C656AD";
shapes = (
{
closed = 1;
nodes = (
(578,540,l),
(460,0,l),
(623,0,l),
(741,542,l),
(1391,1356,l),
(1206,1356,l),
(723,732,l),
(678,652,l),
(674,652,l),
(664,713,l),
(433,1356,l),
(261,1356,l)
);
}
);
width = 1103;
},
{
layerId = "459F892D-0193-436C-99B7-2A4FAD43389C";
shapes = (
{
closed = 1;
nodes = (
(472,478,l),
(385,0,l),
(734,0,l),
(822,480,l),
(1518,1356,l),
(1090,1356,l),
(797,938,l),
(705,801,l),
(696,801,l),
(649,943,l),
(490,1356,l),
(94,1356,l)
);
}
);
width = 1326;
},
{
layerId = "DE55C86C-15D8-4D4C-BA82-540887FA286E";
shapes = (
{
closed = 1;
nodes = (
(507,499,l),
(410,0,l),
(697,0,l),
(795,501,l),
(1475,1356,l),
(1129,1356,l),
(772,869,l),
(696,751,l),
(689,751,l),
(654,866,l),
(471,1356,l),
(150,1356,l)
);
}
);
width = 1251;
},
{
layerId = "5406E1A9-98D2-48B0-A3BF-3E9D89732E2E";
shapes = (
{
closed = 1;
nodes = (
(560,530,l),
(448,0,l),
(641,0,l),
(754,532,l),
(1411,1356,l),
(1187,1356,l),
(735,765,l),
(682,676,l),
(678,676,l),
(661,750,l),
(442,1356,l),
(234,1356,l)
);
}
);
width = 1139;
}
);
unicode = 89;
},
{
glyphname = Z;
layers = (
{
layerId = "F961D97E-EEA9-4A8D-9339-D33FF8C656AD";
shapes = (
{
closed = 1;
nodes = (
(55,144,l),
(23,0,l),
(955,0,l),
(987,144,l),
(234,144,l),
(316,215,l),
(1224,1211,l),
(1256,1356,l),
(309,1356,l),
(277,1211,l),
(1047,1211,l),
(959,1134,l)
);
}
);
width = 1103;
},
{
layerId = "459F892D-0193-436C-99B7-2A4FAD43389C";
shapes = (
{
closed = 1;
nodes = (
(52,307,l),
(-5,0,l),
(1179,0,l),
(1237,307,l),
(455,307,l),
(560,380,l),
(1341,1050,l),
(1399,1356,l),
(293,1356,l),
(235,1050,l),
(909,1050,l),
(796,969,l)
);
}
);
width = 1326;
},
{
layerId = "DE55C86C-15D8-4D4C-BA82-540887FA286E";
shapes = (
{
closed = 1;
nodes = (
(53,252,l),
(4,0,l),
(1104,0,l),
(1153,252,l),
(381,252,l),
(478,325,l),
(1302,1104,l),
(1351,1356,l),
(298,1356,l),
(249,1104,l),
(955,1104,l),
(851,1024,l)
);
}
);
width = 1251;
},
{
layerId = "5406E1A9-98D2-48B0-A3BF-3E9D89732E2E";
shapes = (
{
closed = 1;
nodes = (
(54,170,l),
(18,0,l),
(991,0,l),
(1027,170,l),
(270,170,l),
(355,242,l),
(1243,1185,l),
(1279,1356,l),
(306,1356,l),
(270,1185,l),
(1024,1185,l),
(933,1107,l)
);
}
);
width = 1139;
}
);
unicode = 90;
},
{
glyphname = bracketleft;
layers = (
{
layerId = "F961D97E-EEA9-4A8D-9339-D33FF8C656AD";
shapes = (
{
closed = 1;
nodes = (
(524,1356,l),
(131,-445,l),
(501,-445,l),
(530,-313,l),
(314,-313,l),
(648,1224,l),
(865,1224,l),
(894,1356,l)
);
}
);
width = 834;
},
{
layerId = "459F892D-0193-436C-99B7-2A4FAD43389C";
shapes = (
{
closed = 1;
nodes = (
(238,1356,l),
(-90,-445,l),
(462,-445,l),
(514,-170,l),
(275,-170,l),
(501,1081,l),
(739,1081,l),
(790,1356,l)
);
}
);
width = 605;
},
{
layerId = "DE55C86C-15D8-4D4C-BA82-540887FA286E";
shapes = (
{
closed = 1;
nodes = (
(334,1356,l),
(-16,-445,l),
(475,-445,l),
(519,-218,l),
(288,-218,l),
(550,1129,l),
(781,1129,l),
(825,1356,l)
);
}
);
width = 682;
},
{
layerId = "5406E1A9-98D2-48B0-A3BF-3E9D89732E2E";
shapes = (
{
closed = 1;
nodes = (
(478,1356,l),
(95,-445,l),
(494,-445,l),
(527,-290,l),
(307,-290,l),
(624,1201,l),
(844,1201,l),
(877,1356,l)
);
}
);
width = 797;
}
);
unicode = 91;
},
{
glyphname = backslash;
layers = (
{
layerId = "F961D97E-EEA9-4A8D-9339-D33FF8C656AD";
shapes = (
{
closed = 1;
nodes = (
(480,-180,l),
(172,1346,l),
(37,1308,l),
(347,-213,l)
);
}
);
width = 569;
},
{
layerId = "459F892D-0193-436C-99B7-2A4FAD43389C";
shapes = (
{
closed = 1;
nodes = (
(737,-320,l),
(407,1376,l),
(136,1314,l),
(457,-383,l)
);
}
);
width = 569;
},
{
layerId = "DE55C86C-15D8-4D4C-BA82-540887FA286E";
shapes = (
{
closed = 1;
nodes = (
(655,-275,l),
(332,1367,l),
(105,1312,l),
(422,-329,l)
);
}
);
width = 569;
},
{
layerId = "5406E1A9-98D2-48B0-A3BF-3E9D89732E2E";
shapes = (
{
closed = 1;
nodes = (
(532,-209,l),
(220,1352,l),
(57,1309,l),
(369,-247,l)
);
}
);
width = 569;
}
);
unicode = 92;
},
{
glyphname = bracketright;
layers = (
{
layerId = "F961D97E-EEA9-4A8D-9339-D33FF8C656AD";
shapes = (
{
closed = 1;
nodes = (
(376,-445,l),
(770,1356,l),
(401,1356,l),
(371,1224,l),
(587,1224,l),
(253,-313,l),
(37,-313,l),
(7,-445,l)
);
}
);
width = 834;
},
{
layerId = "459F892D-0193-436C-99B7-2A4FAD43389C";
shapes = (
{
closed = 1;
nodes = (
(426,-445,l),
(754,1356,l),
(200,1356,l),
(148,1081,l),
(388,1081,l),
(163,-170,l),
(-77,-170,l),
(-128,-445,l)
);
}
);
width = 605;
},
{
layerId = "DE55C86C-15D8-4D4C-BA82-540887FA286E";
shapes = (
{
closed = 1;
nodes = (
(409,-445,l),
(759,1356,l),
(267,1356,l),
(223,1129,l),
(455,1129,l),
(193,-218,l),
(-39,-218,l),
(-83,-445,l)
);
}
);
width = 682;
},
{
layerId = "5406E1A9-98D2-48B0-A3BF-3E9D89732E2E";
shapes = (
{
closed = 1;
nodes = (
(384,-445,l),
(767,1356,l),
(368,1356,l),
(335,1201,l),
(555,1201,l),
(238,-290,l),
(18,-290,l),
(-15,-445,l)
);
}
);
width = 797;
}
);
unicode = 93;
},
{
glyphname = asciicircum;
layers = (
{
layerId = "F961D97E-EEA9-4A8D-9339-D33FF8C656AD";
shapes = (
{
closed = 1;
nodes = (
(463,1378,l),
(71,845,l),
(216,845,l),
(425,1109,l),
(486,1248,l),
(534,1111,l),
(707,845,l),
(869,845,l),
(514,1378,l)
);
}
);
width = 766;
},
{
layerId = "459F892D-0193-436C-99B7-2A4FAD43389C";
shapes = (
{
closed = 1;
nodes = (
(699,1358,l),
(277,771,l),
(598,771,l),
(719,966,l),
(784,1089,l),
(846,968,l),
(967,771,l),
(1299,771,l),
(893,1358,l)
);
}
);
width = 1369;
},
{
layerId = "DE55C86C-15D8-4D4C-BA82-540887FA286E";
shapes = (
{
closed = 1;
nodes = (
(620,1365,l),
(208,796,l),
(470,796,l),
(620,1014,l),
(684,1142,l),
(741,1016,l),
(880,796,l),
(1155,796,l),
(766,1365,l)
);
}
);
width = 1167;
},
{
layerId = "5406E1A9-98D2-48B0-A3BF-3E9D89732E2E";
shapes = (
{
closed = 1;
nodes = (
(501,1375,l),
(104,833,l),
(278,833,l),
(472,1086,l),
(534,1222,l),
(584,1088,l),
(749,833,l),
(939,833,l),
(575,1375,l)
);
}
);
width = 864;
}
);
unicode = 94;
},
{
glyphname = underscore;
layers = (
{
layerId = "F961D97E-EEA9-4A8D-9339-D33FF8C656AD";
shapes = (
{
closed = 1;
nodes = (
(41,-265,l),
(41,-394,l),
(879,-394,l),
(879,-265,l)
);
}
);
width = 1024;
},
{
layerId = "459F892D-0193-436C-99B7-2A4FAD43389C";
shapes = (
{
closed = 1;
nodes = (
(-126,-195,l),
(-126,-460,l),
(948,-460,l),
(948,-195,l)
);
}
);
width = 1024;
},
{
layerId = "DE55C86C-15D8-4D4C-BA82-540887FA286E";
shapes = (
{
closed = 1;
nodes = (
(-70,-218,l),
(-70,-438,l),
(925,-438,l),
(925,-218,l)
);
}
);
width = 1024;
},
{
layerId = "5406E1A9-98D2-48B0-A3BF-3E9D89732E2E";
shapes = (
{
closed = 1;
nodes = (
(14,-253,l),
(14,-405,l),
(890,-405,l),
(890,-253,l)
);
}
);
width = 1024;
}
);
unicode = 95;
},
{
glyphname = grave;
layers = (
{
layerId = "F961D97E-EEA9-4A8D-9339-D33FF8C656AD";
shapes = (
{
closed = 1;
nodes = (
(779,1064,l),
(699,1353,l),
(500,1353,l),
(490,1312,l),
(683,1064,l)
);
}
);
width = 682;
},
{
layerId = "459F892D-0193-436C-99B7-2A4FAD43389C";
shapes = (
{
closed = 1;
nodes = (
(505,1100,l),
(448,1371,l),
(169,1371,l),
(158,1305,l),
(360,1100,l)
);
}
);
width = 682;
},
{
layerId = "DE55C86C-15D8-4D4C-BA82-540887FA286E";
shapes = (
{
closed = 1;
nodes = (
(597,1088,l),
(532,1365,l),
(280,1365,l),
(269,1307,l),
(468,1088,l)
);
}
);
width = 682;
},
{
layerId = "5406E1A9-98D2-48B0-A3BF-3E9D89732E2E";
shapes = (
{
closed = 1;
nodes = (
(735,1070,l),
(658,1356,l),
(446,1356,l),
(436,1310,l),
(630,1070,l)
);
}
);
width = 682;
}
);
unicode = 96;
},
{
glyphname = a;
layers = (
{
layerId = "F961D97E-EEA9-4A8D-9339-D33FF8C656AD";
shapes = (
{
closed = 1;
nodes = (
(947,852,l),
(858,879,o),
(765,897,o),
(657,897,cs),
(318,897,o),
(90,615,o),
(90,283,cs),
(90,105,o),
(165,-20,o),
(326,-20,cs),
(471,-20,o),
(589,85,o),
(660,169,c),
(636,29,o),
(683,-8,o),
(740,-9,cs),
(819,-10,o),
(877,33,o),
(936,82,c),
(889,151,l),
(870,135,o),
(841,113,o),
(808,113,cs),
(785,113,o),
(761,124,o),
(809,313,cs)
);
},
{
closed = 1;
nodes = (
(294,89,o),
(232,162,o),
(232,269,cs),
(232,528,o),
(394,789,o),
(628,789,cs),
(687,789,o),
(736,781,o),
(776,766,c),
(663,296,l),
(612,215,o),
(478,89,o),
(372,89,cs)
);
}
);
width = 1024;
},
{
layerId = "459F892D-0193-436C-99B7-2A4FAD43389C";
shapes = (
{
closed = 1;
nodes = (
(998,899,l),
(885,921,o),
(755,939,o),
(671,939,cs),
(216,939,o),
(30,575,o),
(30,276,cs),
(30,89,o),
(135,-26,o),
(319,-26,cs),
(409,-26,o),
(541,40,o),
(587,108,c),
(607,17,o),
(705,-21,o),
(810,-21,cs),
(868,-21,o),
(944,-1,o),
(1005,22,c),
(976,202,l),
(960,196,o),
(944,187,o),
(919,187,cs),
(848,187,o),
(870,260,o),
(888,352,cs)
);
},
{
closed = 1;
nodes = (
(356,232,o),
(331,284,o),
(331,379,cs),
(331,518,o),
(420,679,o),
(576,679,cs),
(601,679,o),
(632,677,o),
(659,668,c),
(581,318,l),
(549,281,o),
(525,232,o),
(431,232,cs)
);
}
);
width = 1024;
},
{
layerId = "DE55C86C-15D8-4D4C-BA82-540887FA286E";
shapes = (
{
closed = 1;
nodes = (
(981,883,l),
(876,907,o),
(758,925,o),
(666,925,cs),
(250,925,o),
(50,588,o),
(50,278,cs),
(50,94,o),
(145,-24,o),
(321,-24,cs),
(429,-24,o),
(554,54,o),
(609,126,c),
(616,21,o),
(696,-17,o),
(786,-17,c),
(852,-18,o),
(927,10,o),
(987,41,c),
(956,184,l),
(937,174,o),
(918,161,o),
(884,161,cs),
(826,161,o),
(836,224,o),
(862,341,cs)
);
},
{
closed = 1;
nodes = (
(335,184,o),
(301,243,o),
(301,342,cs),
(301,513,o),
(405,716,o),
(593,716,cs),
(630,716,o),
(667,712,o),
(698,701,c),
(608,311,l),
(570,259,o),
(509,184,o),
(411,184,cs)
);
}
);
width = 1024;
},
{
layerId = "5406E1A9-98D2-48B0-A3BF-3E9D89732E2E";
shapes = (
{
closed = 1;
nodes = (
(955,859,l),
(862,886,o),
(763,904,o),
(659,904,cs),
(301,904,o),
(80,608,o),
(80,281,cs),
(80,102,o),
(160,-21,o),
(324,-21,cs),
(460,-21,o),
(574,74,o),
(643,154,c),
(630,26,o),
(682,-12,o),
(751,-12,cs),
(828,-13,o),
(902,26,o),
(959,70,c),
(925,156,l),
(902,141,o),
(879,121,o),
(831,121,cs),
(794,121,o),
(785,169,o),
(822,324,cs)
);
},
{
closed = 1;
nodes = (
(304,112,o),
(256,182,o),
(256,287,cs),
(256,506,o),
(383,771,o),
(619,771,cs),
(673,771,o),
(719,764,o),
(757,750,c),
(649,300,l),
(602,226,o),
(485,112,o),
(381,112,cs)
);
}
);
width = 1024;
}
);
unicode = 97;
},
{
glyphname = b;
layers = (
{
layerId = "F961D97E-EEA9-4A8D-9339-D33FF8C656AD";
shapes = (
{
closed = 1;
nodes = (
(396,1377,l),
(66,60,l),
(117,22,o),
(228,-13,o),
(408,-13,cs),
(717,-13,o),
(964,271,o),
(964,636,cs),
(964,773,o),
(885,896,o),
(721,896,cs),
(570,896,o),
(444,814,o),
(370,738,c),
(371,738,l),
(542,1377,l)
);
},
{
closed = 1;
nodes = (
(262,274,o),
(296,399,o),
(330,544,c),
(402,652,o),
(561,787,o),
(668,787,cs),
(739,787,o),
(811,729,o),
(811,594,cs),
(811,325,o),
(620,96,o),
(382,96,cs),
(323,96,o),
(268,109,o),
(228,129,c)
);
}
);
width = 1024;
},
{
layerId = "459F892D-0193-436C-99B7-2A4FAD43389C";
shapes = (
{
closed = 1;
nodes = (
(277,1377,l),
(-2,48,l),
(75,6,o),
(216,-25,o),
(366,-25,cs),
(669,-25,o),
(984,179,o),
(984,658,cs),
(984,836,o),
(882,934,o),
(748,934,cs),
(600,934,o),
(530,861,o),
(451,752,c),
(445,752,l),
(574,1377,l)
);
},
{
closed = 1;
nodes = (
(355,336,o),
(377,435,o),
(398,524,c),
(426,586,o),
(498,676,o),
(602,676,cs),
(645,676,o),
(683,661,o),
(683,594,cs),
(683,339,o),
(536,233,o),
(441,233,cs),
(391,233,o),
(355,234,o),
(335,246,c)
);
}
);
width = 1024;
},
{
layerId = "DE55C86C-15D8-4D4C-BA82-540887FA286E";
shapes = (
{
closed = 1;
nodes = (
(317,1377,l),
(21,52,l),
(89,11,o),
(220,-21,o),
(380,-21,cs),
(685,-21,o),
(977,210,o),
(977,651,cs),
(977,815,o),
(883,921,o),
(739,921,cs),
(590,921,o),
(501,845,o),
(424,747,c),
(420,747,l),
(563,1377,l)
);
},
{
closed = 1;
nodes = (
(324,315,o),
(350,423,o),
(375,531,c),
(418,608,o),
(519,713,o),
(624,713,cs),
(676,713,o),
(726,684,o),
(726,594,cs),
(726,334,o),
(564,187,o),
(421,187,cs),
(368,187,o),
(326,192,o),
(299,207,c)
);
}
);
width = 1024;
},
{
layerId = "5406E1A9-98D2-48B0-A3BF-3E9D89732E2E";
shapes = (
{
closed = 1;
nodes = (
(377,1377,l),
(55,58,l),
(110,19,o),
(226,-15,o),
(401,-15,cs),
(709,-15,o),
(967,256,o),
(967,640,cs),
(967,783,o),
(884,902,o),
(725,902,cs),
(575,902,o),
(458,821,o),
(383,740,c),
(383,740,l),
(547,1377,l)
);
},
{
closed = 1;
nodes = (
(277,284,o),
(309,405,o),
(341,541,c),
(406,641,o),
(551,769,o),
(657,769,cs),
(723,769,o),
(790,718,o),
(790,594,cs),
(790,327,o),
(606,118,o),
(391,118,cs),
(334,118,o),
(282,129,o),
(245,148,c)
);
}
);
width = 1024;
}
);
unicode = 98;
},
{
glyphname = c;
layers = (
{
layerId = "F961D97E-EEA9-4A8D-9339-D33FF8C656AD";
shapes = (
{
closed = 1;
nodes = (
(767,219,l),
(682,145,o),
(556,92,o),
(465,92,cs),
(365,92,o),
(245,147,o),
(245,336,cs),
(245,554,o),
(407,783,o),
(641,783,cs),
(716,783,o),
(761,759,o),
(809,713,c),
(892,815,l),
(865,853,o),
(760,895,o),
(637,895,cs),
(344,895,o),
(94,657,o),
(94,341,cs),
(94,153,o),
(183,-20,o),
(429,-20,cs),
(587,-20,o),
(744,51,o),
(825,147,c)
);
}
);
width = 909;
},
{
layerId = "459F892D-0193-436C-99B7-2A4FAD43389C";
shapes = (
{
closed = 1;
nodes = (
(712,294,l),
(676,275,o),
(588,247,o),
(480,247,cs),
(345,247,o),
(336,320,o),
(336,373,cs),
(336,559,o),
(448,666,o),
(573,666,cs),
(668,666,o),
(754,638,o),
(809,599,c),
(924,842,l),
(833,912,o),
(678,940,o),
(573,940,cs),
(284,940,o),
(20,728,o),
(20,370,cs),
(20,126,o),
(143,-26,o),
(393,-26,cs),
(536,-26,o),
(692,24,o),
(765,67,c)
);
}
);
width = 909;
},
{
layerId = "DE55C86C-15D8-4D4C-BA82-540887FA286E";
shapes = (
{
closed = 1;
nodes = (
(731,267,l),
(679,241,o),
(577,193,o),
(475,193,cs),
(352,193,o),
(305,262,o),
(305,370,cs),
(305,554,o),
(442,707,o),
(598,707,cs),
(684,707,o),
(763,661,o),
(809,637,c),
(913,833,l),
(844,892,o),
(714,925,o),
(606,925,cs),
(323,925,o),
(45,701,o),
(45,354,cs),
(45,135,o),
(156,-24,o),
(404,-24,cs),
(553,-24,o),
(709,33,o),
(785,94,c)
);
}
);
width = 909;
},
{
layerId = "5406E1A9-98D2-48B0-A3BF-3E9D89732E2E";
shapes = (
{
closed = 1;
nodes = (
(760,226,l),
(683,163,o),
(561,112,o),
(467,112,cs),
(362,112,o),
(259,175,o),
(259,337,cs),
(259,547,o),
(433,769,o),
(640,769,cs),
(708,769,o),
(761,745,o),
(809,694,c),
(897,819,l),
(860,862,o),
(768,902,o),
(644,902,cs),
(341,902,o),
(82,661,o),
(82,341,cs),
(82,148,o),
(176,-21,o),
(423,-21,cs),
(578,-21,o),
(735,46,o),
(815,134,c)
);
}
);
width = 909;
}
);
unicode = 99;
},
{
glyphname = d;
layers = (
{
layerId = "F961D97E-EEA9-4A8D-9339-D33FF8C656AD";
shapes = (
{
closed = 1;
nodes = (
(658,296,l),
(610,216,o),
(472,89,o),
(361,89,cs),
(261,89,o),
(220,172,o),
(220,252,cs),
(220,499,o),
(361,779,o),
(588,779,cs),
(681,779,o),
(732,772,o),
(775,749,c)
);
},
{
closed = 1;
nodes = (
(1072,1377,l),
(930,1377,l),
(805,863,l),
(746,877,o),
(706,890,o),
(614,890,cs),
(286,890,o),
(77,566,o),
(77,273,cs),
(77,48,o),
(181,-20,o),
(317,-20,cs),
(461,-20,o),
(593,66,o),
(660,166,c),
(636,27,o),
(683,-11,o),
(740,-12,cs),
(819,-13,o),
(877,31,o),
(936,80,c),
(889,149,l),
(870,133,o),
(841,110,o),
(808,110,cs),
(785,110,o),
(761,122,o),
(809,312,cs)
);
}
);
width = 1024;
},
{
layerId = "459F892D-0193-436C-99B7-2A4FAD43389C";
shapes = (
{
closed = 1;
nodes = (
(580,318,l),
(552,275,o),
(494,232,o),
(424,232,cs),
(378,232,o),
(325,267,o),
(325,379,cs),
(325,557,o),
(423,680,o),
(526,680,cs),
(582,680,o),
(624,673,o),
(649,662,c)
);
},
{
closed = 1;
nodes = (
(1104,1377,l),
(804,1377,l),
(699,910,l),
(656,931,o),
(596,937,o),
(530,937,cs),
(220,937,o),
(23,644,o),
(23,330,cs),
(23,187,o),
(79,-26,o),
(308,-26,cs),
(393,-26,o),
(541,48,o),
(580,108,c),
(600,17,o),
(698,-21,o),
(803,-21,cs),
(861,-21,o),
(937,-1,o),
(998,22,c),
(969,202,l),
(953,196,o),
(937,187,o),
(912,187,cs),
(841,187,o),
(866,269,o),
(886,361,cs)
);
}
);
width = 1024;
},
{
layerId = "DE55C86C-15D8-4D4C-BA82-540887FA286E";
shapes = (
{
closed = 1;
nodes = (
(606,311,l),
(571,255,o),
(487,184,o),
(403,184,cs),
(339,184,o),
(293,235,o),
(293,336,cs),
(293,520,o),
(390,713,o),
(547,713,cs),
(615,713,o),
(660,706,o),
(691,691,c)
);
},
{
closed = 1;
nodes = (
(1093,1377,l),
(846,1377,l),
(734,894,l),
(686,913,o),
(633,921,o),
(558,921,cs),
(242,921,o),
(41,618,o),
(41,311,cs),
(41,140,o),
(113,-24,o),
(311,-24,cs),
(416,-24,o),
(558,58,o),
(608,132,c),
(615,27,o),
(693,-16,o),
(783,-17,cs),
(849,-17,o),
(924,10,o),
(984,41,c),
(953,184,l),
(934,174,o),
(915,161,o),
(881,161,cs),
(823,161,o),
(834,229,o),
(860,346,cs)
);
}
);
width = 1024;
},
{
layerId = "5406E1A9-98D2-48B0-A3BF-3E9D89732E2E";
shapes = (
{
closed = 1;
nodes = (
(645,300,l),
(600,225,o),
(476,112,o),
(371,112,cs),
(280,112,o),
(245,187,o),
(245,272,cs),
(245,465,o),
(340,763,o),
(578,763,cs),
(665,763,o),
(714,756,o),
(754,735,c)
);
},
{
closed = 1;
nodes = (
(1077,1377,l),
(909,1377,l),
(787,870,l),
(731,886,o),
(688,897,o),
(600,897,cs),
(275,897,o),
(68,579,o),
(68,282,cs),
(68,70,o),
(164,-21,o),
(315,-21,cs),
(450,-21,o),
(576,60,o),
(643,154,c),
(630,26,o),
(682,-12,o),
(751,-12,cs),
(828,-13,o),
(902,26,o),
(959,70,c),
(925,156,l),
(902,141,o),
(879,121,o),
(831,121,cs),
(794,121,o),
(785,169,o),
(822,324,cs)
);
}
);
width = 1024;
}
);
unicode = 100;
},
{
glyphname = e;
layers = (
{
layerId = "F961D97E-EEA9-4A8D-9339-D33FF8C656AD";
shapes = (
{
closed = 1;
nodes = (
(751,246,l),
(659,154,o),
(527,89,o),
(418,89,cs),
(279,89,o),
(219,184,o),
(219,310,cs),
(219,338,o),
(226,381,o),
(234,427,c),
(275,424,o),
(308,424,o),
(343,424,cs),
(702,424,o),
(873,535,o),
(873,696,cs),
(873,803,o),
(799,895,o),
(608,895,cs),
(341,895,o),
(75,666,o),
(75,282,cs),
(75,93,o),
(173,-20,o),
(392,-20,cs),
(553,-20,o),
(723,68,o),
(812,164,c)
);
},
{
closed = 1;
nodes = (
(699,785,o),
(722,746,o),
(722,700,cs),
(722,573,o),
(531,512,o),
(269,533,c),
(331,706,o),
(444,785,o),
(588,785,cs)
);
}
);
width = 909;
},
{
layerId = "459F892D-0193-436C-99B7-2A4FAD43389C";
shapes = (
{
closed = 1;
nodes = (
(699,270,l),
(677,273,o),
(601,232,o),
(477,232,cs),
(374,232,o),
(305,255,o),
(305,337,cs),
(305,346,o),
(301,354,o),
(308,353,c),
(322,354,o),
(332,352,o),
(343,352,cs),
(662,352,o),
(891,465,o),
(891,692,cs),
(891,833,o),
(802,940,o),
(566,940,cs),
(297,940,o),
(19,700,o),
(19,332,cs),
(19,107,o),
(187,-26,o),
(402,-26,cs),
(575,-26,o),
(669,22,o),
(754,66,c)
);
},
{
closed = 1;
nodes = (
(615,691,o),
(618,652,o),
(618,632,cs),
(618,575,o),
(588,559,o),
(349,548,c),
(378,614,o),
(437,691,o),
(528,691,cs)
);
}
);
width = 909;
},
{
layerId = "DE55C86C-15D8-4D4C-BA82-540887FA286E";
shapes = (
{
closed = 1;
nodes = (
(716,262,l),
(671,233,o),
(576,184,o),
(457,184,cs),
(342,184,o),
(276,231,o),
(276,328,cs),
(276,343,o),
(276,363,o),
(283,378,c),
(306,377,o),
(324,376,o),
(343,376,cs),
(675,376,o),
(885,488,o),
(885,693,cs),
(885,823,o),
(801,925,o),
(580,925,cs),
(312,925,o),
(38,689,o),
(38,315,cs),
(38,102,o),
(182,-24,o),
(399,-24,cs),
(568,-24,o),
(687,37,o),
(773,99,c)
);
},
{
closed = 1;
nodes = (
(643,722,o),
(653,683,o),
(653,655,cs),
(653,574,o),
(569,543,o),
(322,543,c),
(362,645,o),
(439,722,o),
(548,722,cs)
);
}
);
width = 909;
},
{
layerId = "5406E1A9-98D2-48B0-A3BF-3E9D89732E2E";
shapes = (
{
closed = 1;
nodes = (
(742,250,l),
(662,173,o),
(539,112,o),
(427,112,cs),
(294,112,o),
(233,195,o),
(233,314,cs),
(233,339,o),
(238,376,o),
(246,415,c),
(282,412,o),
(312,412,o),
(343,412,cs),
(695,412,o),
(876,523,o),
(876,695,cs),
(876,808,o),
(799,902,o),
(601,902,cs),
(334,902,o),
(66,672,o),
(66,290,cs),
(66,95,o),
(175,-21,o),
(394,-21,cs),
(557,-21,o),
(714,60,o),
(802,148,c)
);
},
{
closed = 1;
nodes = (
(685,769,o),
(705,730,o),
(705,689,cs),
(705,573,o),
(540,519,o),
(282,535,c),
(338,691,o),
(442,769,o),
(578,769,cs)
);
}
);
width = 909;
}
);
unicode = 101;
},
{
glyphname = f;
layers = (
{
layerId = "F961D97E-EEA9-4A8D-9339-D33FF8C656AD";
shapes = (
{
closed = 1;
nodes = (
(429,766,l),
(597,766,l),
(622,876,l),
(447,876,l),
(473,1004,ls),
(492,1106,o),
(530,1273,o),
(655,1273,cs),
(698,1273,o),
(758,1264,o),
(833,1240,c),
(882,1341,l),
(809,1368,o),
(720,1382,o),
(678,1382,cs),
(489,1382,o),
(397,1301,o),
(325,966,cs),
(307,876,l),
(158,876,l),
(130,766,l),
(287,766,l),
(142,9,ls),
(107,-192,o),
(59,-266,o),
(-25,-266,cs),
(-89,-266,o),
(-125,-264,o),
(-189,-245,c),
(-235,-337,l),
(-169,-364,o),
(-102,-372,o),
(-25,-372,cs),
(159,-372,o),
(231,-231,o),
(260,-81,cs)
);
}
);
width = 533;
},
{
layerId = "459F892D-0193-436C-99B7-2A4FAD43389C";
shapes = (
{
closed = 1;
nodes = (
(532,655,l),
(728,655,l),
(779,912,l),
(569,912,l),
(584,992,ls),
(615,1151,o),
(645,1126,o),
(730,1126,cs),
(781,1126,o),
(847,1101,o),
(895,1085,c),
(968,1317,l),
(880,1356,o),
(794,1385,o),
(636,1385,cs),
(473,1385,o),
(351,1292,o),
(325,1192,c),
(261,912,l),
(149,912,l),
(91,655,l),
(225,655,l),
(110,21,l),
(100,-45,o),
(43,-105,o),
(-59,-105,cs),
(-104,-105,o),
(-140,-94,o),
(-173,-75,c),
(-257,-315,l),
(-181,-366,o),
(-110,-378,o),
(-18,-378,cs),
(252,-378,o),
(358,-243,o),
(403,17,c)
);
}
);
width = 757;
},
{
layerId = "DE55C86C-15D8-4D4C-BA82-540887FA286E";
shapes = (
{
closed = 1;
nodes = (
(497,692,l),
(684,692,l),
(726,900,l),
(528,900,l),
(547,996,ls),
(574,1136,o),
(606,1175,o),
(705,1175,cs),
(753,1175,o),
(817,1156,o),
(874,1137,c),
(939,1325,l),
(856,1360,o),
(769,1384,o),
(650,1384,cs),
(478,1384,o),
(366,1295,o),
(325,1116,cs),
(276,900,l),
(152,900,l),
(104,692,l),
(246,692,l),
(121,17,ls),
(102,-94,o),
(48,-159,o),
(-48,-159,cs),
(-99,-159,o),
(-135,-151,o),
(-178,-132,c),
(-250,-322,l),
(-177,-365,o),
(-107,-376,o),
(-20,-376,cs),
(221,-376,o),
(315,-239,o),
(355,-16,c)
);
}
);
width = 682;
},
{
layerId = "5406E1A9-98D2-48B0-A3BF-3E9D89732E2E";
shapes = (
{
closed = 1;
nodes = (
(445,748,l),
(618,748,l),
(647,882,l),
(467,882,l),
(491,1002,ls),
(512,1113,o),
(548,1249,o),
(667,1249,cs),
(711,1249,o),
(772,1238,o),
(843,1215,c),
(896,1337,l),
(820,1366,o),
(732,1382,o),
(671,1382,cs),
(486,1382,o),
(389,1299,o),
(325,1002,cs),
(299,882,l),
(156,882,l),
(123,748,l),
(277,748,l),
(137,11,ls),
(105,-168,o),
(56,-240,o),
(-31,-240,cs),
(-91,-240,o),
(-127,-236,o),
(-186,-217,c),
(-239,-333,l),
(-171,-364,o),
(-103,-373,o),
(-23,-373,cs),
(174,-373,o),
(251,-233,o),
(283,-65,cs)
);
}
);
width = 569;
}
);
unicode = 102;
},
{
glyphname = g;
layers = (
{
layerId = "F961D97E-EEA9-4A8D-9339-D33FF8C656AD";
shapes = (
{
closed = 1;
nodes = (
(1003,834,l),
(922,866,o),
(826,890,o),
(684,890,cs),
(305,890,o),
(118,538,o),
(118,273,cs),
(118,120,o),
(211,-22,o),
(362,-22,cs),
(507,-22,o),
(607,36,o),
(700,140,c),
(699,140,l),
(659,-1,ls),
(598,-212,o),
(498,-264,o),
(374,-264,cs),
(257,-264,o),
(154,-199,o),
(98,-158,c),
(29,-248,l),
(140,-334,o),
(251,-371,o),
(364,-371,cs),
(586,-371,o),
(727,-271,o),
(781,-57,cs)
);
},
{
closed = 1;
nodes = (
(727,306,l),
(653,191,o),
(544,90,o),
(419,90,cs),
(339,90,o),
(261,160,o),
(261,289,c),
(263,519,o),
(440,779,o),
(654,779,cs),
(720,779,o),
(795,777,o),
(836,759,c)
);
}
);
width = 1024;
},
{
layerId = "459F892D-0193-436C-99B7-2A4FAD43389C";
shapes = (
{
closed = 1;
nodes = (
(969,873,l),
(895,904,o),
(740,937,o),
(570,937,cs),
(243,937,o),
(4,679,o),
(4,273,cs),
(4,51,o),
(139,-44,o),
(335,-2,cs),
(433,19,o),
(500,94,o),
(529,152,c),
(534,152,l),
(509,45,l),
(496,-17,o),
(420,-123,o),
(287,-123,cs),
(158,-123,o),
(96,-112,o),
(38,-78,c),
(-81,-316,l),
(-59,-316,o),
(66,-381,o),
(278,-381,cs),
(542,-381,o),
(727,-273,o),
(796,45,c)
);
},
{
closed = 1;
nodes = (
(575,396,l),
(552,334,o),
(459,248,o),
(380,248,cs),
(332,248,o),
(306,273,o),
(305,351,cs),
(304,547,o),
(389,680,o),
(535,680,cs),
(568,680,o),
(612,675,o),
(637,667,c)
);
}
);
width = 1024;
},
{
layerId = "DE55C86C-15D8-4D4C-BA82-540887FA286E";
shapes = (
{
closed = 1;
nodes = (
(980,860,l),
(904,891,o),
(769,921,o),
(608,921,cs),
(264,921,o),
(42,632,o),
(42,273,cs),
(42,86,o),
(156,-40,o),
(344,-9,cs),
(456,9,o),
(539,78,o),
(586,148,c),
(589,148,l),
(559,30,ls),
(530,-82,o),
(446,-170,o),
(316,-170,cs),
(191,-170,o),
(115,-141,o),
(58,-105,c),
(-44,-293,l),
(8,-322,o),
(128,-378,o),
(307,-378,cs),
(557,-378,o),
(727,-272,o),
(791,11,cs)
);
},
{
closed = 1;
nodes = (
(628,374,l),
(591,299,o),
(492,195,o),
(393,195,cs),
(334,195,o),
(294,235,o),
(294,330,cs),
(294,538,o),
(406,713,o),
(575,713,cs),
(619,713,o),
(673,709,o),
(704,698,c)
);
}
);
width = 1024;
},
{
layerId = "5406E1A9-98D2-48B0-A3BF-3E9D89732E2E";
shapes = (
{
closed = 1;
nodes = (
(997,840,l),
(917,872,o),
(812,897,o),
(665,897,cs),
(295,897,o),
(99,561,o),
(99,273,cs),
(99,102,o),
(194,-19,o),
(357,-19,cs),
(493,-19,o),
(597,54,o),
(672,142,c),
(672,142,l),
(634,7,ls),
(581,-180,o),
(485,-241,o),
(360,-241,cs),
(241,-241,o),
(144,-185,o),
(88,-145,c),
(11,-259,l),
(108,-331,o),
(221,-373,o),
(350,-373,cs),
(579,-373,o),
(727,-271,o),
(783,-40,cs)
);
},
{
closed = 1;
nodes = (
(707,341,l),
(650,247,o),
(542,115,o),
(412,115,cs),
(337,115,o),
(276,178,o),
(277,299,cs),
(280,524,o),
(431,763,o),
(635,763,cs),
(695,763,o),
(765,760,o),
(804,744,c)
);
}
);
width = 1024;
}
);
unicode = 103;
},
{
glyphname = h;
layers = (
{
layerId = "F961D97E-EEA9-4A8D-9339-D33FF8C656AD";
shapes = (
{
closed = 1;
nodes = (
(44,0,l),
(188,0,l),
(323,556,l),
(384,672,o),
(532,789,o),
(668,789,cs),
(755,789,o),
(780,758,o),
(780,680,cs),
(780,635,o),
(761,578,o),
(742,501,c),
(654,178,ls),
(648,157,o),
(644,137,o),
(644,112,cs),
(644,13,o),
(704,-13,o),
(795,-13,cs),
(840,-13,o),
(946,25,o),
(1015,88,c),
(969,154,l),
(923,128,o),
(887,96,o),
(830,96,cs),
(790,96,o),
(788,129,o),
(798,166,cs),
(893,518,ls),
(911,587,o),
(927,647,o),
(927,700,cs),
(927,833,o),
(864,895,o),
(720,895,cs),
(562,895,o),
(442,819,o),
(372,747,c),
(536,1377,l),
(391,1377,l)
);
}
);
width = 987;
},
{
layerId = "459F892D-0193-436C-99B7-2A4FAD43389C";
shapes = (
{
closed = 1;
nodes = (
(22,0,l),
(319,0,l),
(421,497,l),
(450,554,o),
(566,666,o),
(680,666,cs),
(704,666,o),
(762,648,o),
(762,586,cs),
(762,567,o),
(764,558,o),
(756,521,cs),
(713,320,ls),
(696,243,o),
(692,187,o),
(692,167,cs),
(692,34,o),
(816,-21,o),
(941,-21,cs),
(996,-21,o),
(1078,-7,o),
(1137,20,c),
(1132,210,l),
(1106,201,o),
(1079,187,o),
(1050,187,cs),
(967,187,o),
(1009,315,o),
(1018,361,cs),
(1063,569,ls),
(1076,629,o),
(1078,679,o),
(1078,720,cs),
(1078,889,o),
(950,940,o),
(830,940,cs),
(672,940,o),
(546,825,o),
(471,747,c),
(610,1377,l),
(313,1377,l)
);
}
);
width = 1216;
},
{
layerId = "DE55C86C-15D8-4D4C-BA82-540887FA286E";
shapes = (
{
closed = 1;
nodes = (
(29,0,l),
(275,0,l),
(386,510,l),
(426,587,o),
(555,707,o),
(676,707,cs),
(721,707,o),
(768,685,o),
(768,617,cs),
(768,590,o),
(763,565,o),
(751,514,cs),
(695,277,l),
(681,217,o),
(677,172,o),
(677,150,cs),
(677,28,o),
(777,-19,o),
(891,-19,cs),
(945,-19,o),
(1038,4,o),
(1100,42,c),
(1080,193,l),
(1047,179,o),
(1017,159,o),
(978,159,cs),
(909,159,o),
(937,262,o),
(946,302,c),
(1006,552,ls),
(1021,615,o),
(1027,668,o),
(1027,713,cs),
(1027,870,o),
(921,925,o),
(793,925,cs),
(635,925,o),
(511,823,o),
(438,747,c),
(585,1377,l),
(339,1377,l)
);
}
);
width = 1139;
},
{
layerId = "5406E1A9-98D2-48B0-A3BF-3E9D89732E2E";
shapes = (
{
closed = 1;
nodes = (
(40,0,l),
(209,0,l),
(334,529,l),
(390,636,o),
(538,769,o),
(670,769,cs),
(746,769,o),
(777,740,o),
(777,664,cs),
(777,624,o),
(761,575,o),
(744,504,c),
(667,212,l),
(659,178,o),
(655,149,o),
(655,125,cs),
(655,18,o),
(718,-15,o),
(817,-15,cs),
(869,-15,o),
(979,20,o),
(1044,74,c),
(1002,168,l),
(959,145,o),
(923,118,o),
(870,118,cs),
(822,118,o),
(830,182,o),
(838,213,cs),
(920,526,ls),
(938,594,o),
(951,652,o),
(951,703,cs),
(951,842,o),
(878,902,o),
(738,902,cs),
(580,902,o),
(458,820,o),
(388,747,c),
(548,1377,l),
(378,1377,l)
);
}
);
width = 1024;
}
);
unicode = 104;
},
{
glyphname = i;
layers = (
{
layerId = "F961D97E-EEA9-4A8D-9339-D33FF8C656AD";
shapes = (
{
closed = 1;
nodes = (
(288,876,l),
(99,178,ls),
(93,157,o),
(90,137,o),
(90,112,cs),
(90,13,o),
(149,-13,o),
(240,-13,cs),
(291,-13,o),
(410,29,o),
(477,94,c),
(423,157,l),
(374,130,o),
(336,96,o),
(275,96,cs),
(255,96,o),
(240,111,o),
(240,148,cs),
(240,151,o),
(240,153,o),
(243,166,cs),
(432,876,l)
);
},
{
closed = 1;
nodes = (
(340,1218,o),
(387,1172,o),
(446,1172,cs),
(505,1172,o),
(554,1218,o),
(554,1273,cs),
(554,1326,o),
(505,1377,o),
(446,1377,cs),
(387,1377,o),
(340,1326,o),
(340,1273,cs)
);
}
);
width = 569;
},
{
layerId = "459F892D-0193-436C-99B7-2A4FAD43389C";
shapes = (
{
closed = 1;
nodes = (
(248,910,l),
(114,321,ls),
(97,244,o),
(93,188,o),
(93,168,cs),
(93,35,o),
(219,-21,o),
(344,-21,cs),
(399,-21,o),
(481,-7,o),
(540,20,c),
(535,210,l),
(509,201,o),
(482,187,o),
(453,187,cs),
(420,187,o),
(404,202,o),
(404,232,cs),
(404,267,o),
(403,283,o),
(421,361,cs),
(545,910,l)
);
},
{
closed = 1;
nodes = (
(270,1111,o),
(348,1053,o),
(443,1053,cs),
(532,1053,o),
(616,1111,o),
(616,1219,cs),
(616,1333,o),
(532,1383,o),
(443,1383,cs),
(348,1383,o),
(270,1333,o),
(270,1219,cs)
);
}
);
width = 569;
},
{
layerId = "DE55C86C-15D8-4D4C-BA82-540887FA286E";
shapes = (
{
closed = 1;
nodes = (
(261,899,l),
(110,277,l),
(96,218,o),
(93,172,o),
(93,151,cs),
(93,28,o),
(193,-19,o),
(308,-19,cs),
(362,-19,o),
(455,4,o),
(516,42,c),
(497,193,l),
(464,179,o),
(433,159,o),
(395,159,cs),
(366,159,o),
(350,174,o),
(350,206,cs),
(350,232,o),
(350,247,o),
(363,302,cs),
(507,899,l)
);
},
{
closed = 1;
nodes = (
(293,1147,o),
(361,1093,o),
(444,1093,cs),
(523,1093,o),
(595,1147,o),
(595,1237,cs),
(595,1330,o),
(523,1381,o),
(444,1381,cs),
(361,1381,o),
(293,1330,o),
(293,1237,cs)
);
}
);
width = 569;
},
{
layerId = "5406E1A9-98D2-48B0-A3BF-3E9D89732E2E";
shapes = (
{
closed = 1;
nodes = (
(281,882,l),
(104,212,ls),
(95,178,o),
(92,149,o),
(92,125,cs),
(92,18,o),
(155,-15,o),
(254,-15,cs),
(306,-15,o),
(416,20,o),
(481,74,c),
(439,168,l),
(396,145,o),
(360,118,o),
(307,118,cs),
(284,118,o),
(269,133,o),
(269,168,cs),
(269,179,o),
(270,194,o),
(275,213,cs),
(450,882,l)
);
},
{
closed = 1;
nodes = (
(328,1201,o),
(380,1154,o),
(445,1154,cs),
(509,1154,o),
(564,1201,o),
(564,1264,cs),
(564,1326,o),
(509,1377,o),
(445,1377,cs),
(380,1377,o),
(328,1326,o),
(328,1264,cs)
);
}
);
width = 569;
}
);
unicode = 105;
},
{
glyphname = j;
layers = (
{
layerId = "F961D97E-EEA9-4A8D-9339-D33FF8C656AD";
shapes = (
{
closed = 1;
nodes = (
(338,876,l),
(112,-11,ls),
(73,-174,o),
(17,-259,o),
(-135,-262,c),
(-165,-377,l),
(-133,-380,o),
(-123,-379,o),
(-109,-379,cs),
(83,-379,o),
(188,-285,o),
(241,-64,cs),
(481,876,l)
);
},
{
closed = 1;
nodes = (
(388,1218,o),
(430,1172,o),
(492,1172,cs),
(557,1172,o),
(601,1218,o),
(601,1273,cs),
(601,1326,o),
(557,1377,o),
(492,1377,cs),
(430,1377,o),
(388,1327,o),
(388,1273,cs)
);
}
);
width = 569;
},
{
layerId = "459F892D-0193-436C-99B7-2A4FAD43389C";
shapes = (
{
closed = 1;
nodes = (
(230,910,l),
(30,49,l),
(-2,-68,o),
(-51,-137,o),
(-182,-119,c),
(-240,-349,l),
(-189,-360,o),
(-129,-367,o),
(-77,-367,cs),
(139,-367,o),
(268,-237,o),
(319,-25,c),
(540,910,l)
);
},
{
closed = 1;
nodes = (
(242,1111,o),
(324,1053,o),
(417,1053,cs),
(503,1053,o),
(589,1111,o),
(589,1219,cs),
(589,1333,o),
(503,1383,o),
(417,1383,cs),
(324,1383,o),
(242,1332,o),
(242,1219,cs)
);
}
);
width = 569;
},
{
layerId = "DE55C86C-15D8-4D4C-BA82-540887FA286E";
shapes = (
{
closed = 1;
nodes = (
(266,899,l),
(57,29,ls),
(23,-103,o),
(-28,-178,o),
(-166,-167,c),
(-215,-358,l),
(-170,-367,o),
(-127,-371,o),
(-88,-371,cs),
(120,-371,o),
(241,-253,o),
(293,-38,cs),
(520,899,l)
);
},
{
closed = 1;
nodes = (
(291,1148,o),
(359,1096,o),
(442,1096,cs),
(521,1096,o),
(593,1148,o),
(593,1237,cs),
(593,1329,o),
(521,1378,o),
(442,1378,cs),
(359,1378,o),
(291,1329,o),
(291,1237,cs)
);
}
);
width = 569;
},
{
layerId = "5406E1A9-98D2-48B0-A3BF-3E9D89732E2E";
shapes = (
{
closed = 1;
nodes = (
(320,882,l),
(98,-1,ls),
(61,-156,o),
(6,-239,o),
(-142,-239,c),
(-177,-372,l),
(-142,-377,o),
(-124,-377,o),
(-104,-377,cs),
(92,-377,o),
(201,-277,o),
(254,-57,cs),
(490,882,l)
);
},
{
closed = 1;
nodes = (
(364,1201,o),
(412,1154,o),
(480,1154,cs),
(548,1154,o),
(599,1201,o),
(599,1264,cs),
(599,1326,o),
(548,1377,o),
(480,1377,cs),
(412,1377,o),
(364,1327,o),
(364,1264,cs)
);
}
);
width = 569;
}
);
unicode = 106;
},
{
glyphname = k;
layers = (
{
layerId = "F961D97E-EEA9-4A8D-9339-D33FF8C656AD";
shapes = (
{
closed = 1;
nodes = (
(384,395,l),
(618,0,l),
(777,0,l),
(541,403,l),
(492,468,l),
(555,513,l),
(933,876,l),
(749,876,l),
(381,503,l),
(319,485,l),
(540,1377,l),
(396,1377,l),
(57,0,l),
(198,0,l),
(298,395,l)
);
}
);
width = 872;
},
{
layerId = "459F892D-0193-436C-99B7-2A4FAD43389C";
shapes = (
{
closed = 1;
nodes = (
(503,343,l),
(674,0,l),
(1010,0,l),
(794,417,l),
(769,456,l),
(827,513,l),
(1174,912,l),
(818,912,l),
(524,566,l),
(424,551,l),
(597,1377,l),
(300,1377,l),
(9,0,l),
(308,0,l),
(381,343,l)
);
}
);
width = 1101;
},
{
layerId = "DE55C86C-15D8-4D4C-BA82-540887FA286E";
shapes = (
{
closed = 1;
nodes = (
(463,360,l),
(655,0,l),
(932,0,l),
(709,412,l),
(676,460,l),
(736,513,l),
(1093,900,l),
(795,900,l),
(476,545,l),
(389,529,l),
(578,1377,l),
(332,1377,l),
(25,0,l),
(271,0,l),
(353,360,l)
);
}
);
width = 1024;
},
{
layerId = "5406E1A9-98D2-48B0-A3BF-3E9D89732E2E";
shapes = (
{
closed = 1;
nodes = (
(403,386,l),
(627,0,l),
(815,0,l),
(582,405,l),
(537,466,l),
(599,513,l),
(972,882,l),
(760,882,l),
(404,513,l),
(336,496,l),
(549,1377,l),
(380,1377,l),
(49,0,l),
(216,0,l),
(311,386,l)
);
}
);
width = 909;
}
);
unicode = 107;
},
{
glyphname = l;
layers = (
{
layerId = "F961D97E-EEA9-4A8D-9339-D33FF8C656AD";
shapes = (
{
closed = 1;
nodes = (
(551,1377,l),
(407,1377,l),
(117,178,ls),
(112,157,o),
(108,137,o),
(108,112,cs),
(108,13,o),
(167,-13,o),
(258,-13,cs),
(303,-13,o),
(409,25,o),
(478,88,c),
(432,154,l),
(386,128,o),
(350,96,o),
(293,96,cs),
(273,96,o),
(258,111,o),
(258,148,cs),
(258,151,o),
(258,153,o),
(261,166,cs)
);
}
);
width = 569;
},
{
layerId = "459F892D-0193-436C-99B7-2A4FAD43389C";
shapes = (
{
closed = 1;
nodes = (
(605,1377,l),
(308,1377,l),
(45,320,ls),
(26,243,o),
(24,187,o),
(24,167,cs),
(24,34,o),
(148,-21,o),
(273,-21,cs),
(328,-21,o),
(410,-7,o),
(469,20,c),
(464,210,l),
(438,201,o),
(411,187,o),
(382,187,cs),
(349,187,o),
(333,202,o),
(333,232,cs),
(333,267,o),
(331,284,o),
(350,361,cs)
);
}
);
width = 569;
},
{
layerId = "DE55C86C-15D8-4D4C-BA82-540887FA286E";
shapes = (
{
closed = 1;
nodes = (
(587,1377,l),
(341,1377,l),
(70,277,ls),
(56,217,o),
(53,172,o),
(53,150,cs),
(53,28,o),
(152,-19,o),
(267,-19,cs),
(321,-19,o),
(414,4,o),
(475,42,c),
(456,193,l),
(423,179,o),
(392,159,o),
(354,159,cs),
(325,159,o),
(309,174,o),
(309,206,cs),
(309,232,o),
(308,248,o),
(322,302,cs)
);
}
);
width = 569;
},
{
layerId = "5406E1A9-98D2-48B0-A3BF-3E9D89732E2E";
shapes = (
{
closed = 1;
nodes = (
(560,1377,l),
(391,1377,l),
(108,212,ls),
(100,178,o),
(96,149,o),
(96,125,cs),
(96,18,o),
(159,-15,o),
(258,-15,cs),
(310,-15,o),
(420,20,o),
(485,74,c),
(443,168,l),
(400,145,o),
(364,118,o),
(311,118,cs),
(288,118,o),
(273,133,o),
(273,168,cs),
(273,179,o),
(274,194,o),
(279,213,cs)
);
}
);
width = 569;
}
);
unicode = 108;
},
{
glyphname = m;
layers = (
{
layerId = "F961D97E-EEA9-4A8D-9339-D33FF8C656AD";
shapes = (
{
closed = 1;
nodes = (
(46,0,l),
(189,0,l),
(330,575,l),
(392,662,o),
(493,789,o),
(628,789,cs),
(778,789,o),
(706,588,o),
(687,504,c),
(558,0,l),
(704,0,l),
(841,563,l),
(903,655,o),
(1021,789,o),
(1136,789,cs),
(1282,789,o),
(1227,622,o),
(1205,535,cs),
(1111,178,ls),
(1106,157,o),
(1102,137,o),
(1102,112,cs),
(1102,13,o),
(1162,-13,o),
(1252,-13,cs),
(1297,-13,o),
(1403,25,o),
(1473,88,c),
(1426,154,l),
(1381,128,o),
(1345,96,o),
(1287,96,cs),
(1268,96,o),
(1253,111,o),
(1253,148,cs),
(1253,150,o),
(1253,158,o),
(1255,164,cs),
(1346,520,ls),
(1366,600,o),
(1377,666,o),
(1377,711,cs),
(1377,851,o),
(1297,895,o),
(1169,895,cs),
(1042,895,o),
(936,808,o),
(852,734,c),
(846,836,o),
(784,895,o),
(680,895,cs),
(505,895,o),
(427,795,o),
(346,732,c),
(367,876,l),
(266,876,l)
);
}
);
width = 1443;
},
{
layerId = "459F892D-0193-436C-99B7-2A4FAD43389C";
shapes = (
{
closed = 1;
nodes = (
(2,0,l),
(302,0,l),
(412,553,l),
(442,599,o),
(547,666,o),
(624,666,cs),
(720,666,o),
(678,542,o),
(665,484,c),
(568,0,l),
(862,0,l),
(976,551,l),
(997,596,o),
(1096,666,o),
(1168,666,cs),
(1273,666,o),
(1251,583,o),
(1235,511,cs),
(1193,320,ls),
(1176,243,o),
(1172,187,o),
(1172,167,cs),
(1172,34,o),
(1298,-21,o),
(1423,-21,cs),
(1478,-21,o),
(1560,-7,o),
(1619,20,c),
(1614,210,l),
(1588,201,o),
(1561,187,o),
(1532,187,cs),
(1499,187,o),
(1483,202,o),
(1483,232,cs),
(1483,267,o),
(1484,283,o),
(1500,361,cs),
(1539,540,ls),
(1555,615,o),
(1562,680,o),
(1562,747,cs),
(1562,893,o),
(1484,940,o),
(1363,940,cs),
(1221,940,o),
(1059,859,o),
(986,737,c),
(989,860,o),
(935,940,o),
(831,940,cs),
(693,940,o),
(534,890,o),
(426,754,c),
(429,911,l),
(196,911,l)
);
}
);
width = 1669;
},
{
layerId = "DE55C86C-15D8-4D4C-BA82-540887FA286E";
shapes = (
{
closed = 1;
nodes = (
(17,0,l),
(264,0,l),
(383,555,l),
(424,615,o),
(529,707,o),
(625,707,cs),
(739,707,o),
(687,557,o),
(672,491,cs),
(565,0,l),
(809,0,l),
(929,550,l),
(964,611,o),
(1071,707,o),
(1157,707,cs),
(1276,707,o),
(1243,596,o),
(1225,519,cs),
(1167,277,ls),
(1154,217,o),
(1150,172,o),
(1150,150,cs),
(1150,28,o),
(1251,-19,o),
(1365,-19,cs),
(1419,-19,o),
(1512,4,o),
(1574,42,c),
(1554,193,l),
(1521,179,o),
(1491,159,o),
(1452,159,cs),
(1423,159,o),
(1407,174,o),
(1407,206,cs),
(1407,231,o),
(1407,245,o),
(1419,298,cs),
(1474,533,ls),
(1492,610,o),
(1500,675,o),
(1500,735,cs),
(1500,879,o),
(1421,925,o),
(1298,925,cs),
(1161,925,o),
(1018,842,o),
(941,736,c),
(941,852,o),
(884,925,o),
(780,925,cs),
(630,925,o),
(498,858,o),
(399,747,c),
(408,899,l),
(219,899,l)
);
}
);
width = 1593;
},
{
layerId = "5406E1A9-98D2-48B0-A3BF-3E9D89732E2E";
shapes = (
{
closed = 1;
nodes = (
(39,0,l),
(207,0,l),
(340,558,l),
(397,639,o),
(502,769,o),
(627,769,cs),
(768,769,o),
(701,580,o),
(683,501,cs),
(560,0,l),
(729,0,l),
(859,548,l),
(915,633,o),
(1033,769,o),
(1141,769,cs),
(1280,769,o),
(1231,615,o),
(1210,531,cs),
(1129,212,ls),
(1120,178,o),
(1117,149,o),
(1117,125,cs),
(1117,18,o),
(1180,-15,o),
(1279,-15,cs),
(1331,-15,o),
(1441,20,o),
(1506,74,c),
(1464,168,l),
(1421,145,o),
(1385,118,o),
(1332,118,cs),
(1309,118,o),
(1294,133,o),
(1294,168,cs),
(1294,177,o),
(1295,189,o),
(1298,203,cs),
(1377,523,ls),
(1396,602,o),
(1407,668,o),
(1407,717,cs),
(1407,858,o),
(1327,902,o),
(1200,902,cs),
(1071,902,o),
(956,816,o),
(874,734,c),
(869,840,o),
(808,902,o),
(704,902,cs),
(535,902,o),
(444,810,o),
(359,736,c),
(377,882,l),
(254,882,l)
);
}
);
width = 1479;
}
);
unicode = 109;
},
{
glyphname = n;
layers = (
{
layerId = "F961D97E-EEA9-4A8D-9339-D33FF8C656AD";
shapes = (
{
closed = 1;
nodes = (
(44,0,l),
(185,0,l),
(328,576,l),
(393,676,o),
(520,789,o),
(655,789,cs),
(753,789,o),
(771,745,o),
(771,678,cs),
(771,646,o),
(761,602,o),
(749,556,cs),
(649,178,ls),
(643,157,o),
(639,137,o),
(639,112,cs),
(639,13,o),
(699,-13,o),
(790,-13,cs),
(835,-13,o),
(941,25,o),
(1010,88,c),
(964,154,l),
(918,128,o),
(882,96,o),
(825,96,cs),
(805,96,o),
(790,111,o),
(790,148,cs),
(790,151,o),
(791,165,o),
(793,166,c),
(899,572,ls),
(913,624,o),
(919,666,o),
(919,701,cs),
(919,846,o),
(842,895,o),
(699,895,cs),
(577,895,o),
(454,848,o),
(354,738,c),
(361,876,l),
(262,876,l)
);
}
);
width = 987;
},
{
layerId = "459F892D-0193-436C-99B7-2A4FAD43389C";
shapes = (
{
closed = 1;
nodes = (
(22,0,l),
(322,0,l),
(433,527,l),
(476,595,o),
(609,666,o),
(691,666,cs),
(738,666,o),
(805,649,o),
(805,616,cs),
(805,602,o),
(805,586,o),
(800,559,c),
(748,320,ls),
(731,243,o),
(727,187,o),
(727,167,cs),
(727,34,o),
(849,-21,o),
(974,-21,cs),
(1029,-21,o),
(1111,-7,o),
(1170,20,c),
(1165,210,l),
(1139,201,o),
(1112,187,o),
(1083,187,cs),
(1050,187,o),
(1034,202,o),
(1034,232,cs),
(1034,267,o),
(1035,283,o),
(1051,361,c),
(1110,616,ls),
(1118,651,o),
(1118,693,o),
(1118,728,cs),
(1118,878,o),
(993,940,o),
(884,940,cs),
(670,940,o),
(486,804,o),
(432,752,c),
(441,911,l),
(216,911,l)
);
}
);
width = 1216;
},
{
layerId = "DE55C86C-15D8-4D4C-BA82-540887FA286E";
shapes = (
{
closed = 1;
nodes = (
(29,0,l),
(276,0,l),
(396,538,l),
(446,617,o),
(579,707,o),
(679,707,cs),
(743,707,o),
(794,681,o),
(794,637,cs),
(794,617,o),
(790,591,o),
(783,558,cs),
(716,277,ls),
(703,217,o),
(699,172,o),
(699,150,cs),
(699,28,o),
(797,-19,o),
(912,-19,cs),
(966,-19,o),
(1059,4,o),
(1120,42,c),
(1101,193,l),
(1068,179,o),
(1037,159,o),
(999,159,cs),
(970,159,o),
(954,174,o),
(954,206,cs),
(954,232,o),
(955,247,o),
(967,302,c),
(1039,601,ls),
(1049,642,o),
(1051,684,o),
(1051,719,cs),
(1051,867,o),
(942,925,o),
(822,925,cs),
(639,925,o),
(475,819,o),
(406,747,c),
(414,899,l),
(231,899,l)
);
}
);
width = 1139;
},
{
layerId = "5406E1A9-98D2-48B0-A3BF-3E9D89732E2E";
shapes = (
{
closed = 1;
nodes = (
(40,0,l),
(207,0,l),
(340,555,l),
(401,650,o),
(534,769,o),
(661,769,cs),
(750,769,o),
(777,729,o),
(777,668,cs),
(777,639,o),
(768,599,o),
(757,556,cs),
(669,212,l),
(661,178,o),
(657,149,o),
(657,125,cs),
(657,18,o),
(720,-15,o),
(819,-15,cs),
(871,-15,o),
(981,20,o),
(1046,74,c),
(1004,168,l),
(961,145,o),
(925,118,o),
(872,118,cs),
(849,118,o),
(834,133,o),
(834,168,cs),
(834,179,o),
(835,194,o),
(840,213,cs),
(933,579,ls),
(945,628,o),
(951,670,o),
(951,705,cs),
(951,851,o),
(866,902,o),
(729,902,cs),
(592,902,o),
(459,841,o),
(367,740,c),
(374,882,l),
(254,882,l)
);
}
);
width = 1024;
}
);
unicode = 110;
},
{
glyphname = o;
layers = (
{
layerId = "F961D97E-EEA9-4A8D-9339-D33FF8C656AD";
shapes = (
{
closed = 1;
nodes = (
(87,95,o),
(208,-20,o),
(427,-20,cs),
(719,-20,o),
(959,261,o),
(959,586,cs),
(959,764,o),
(848,895,o),
(646,895,cs),
(337,895,o),
(87,632,o),
(87,288,cs)
);
},
{
closed = 1;
nodes = (
(230,556,o),
(416,787,o),
(620,787,cs),
(716,787,o),
(817,736,o),
(817,603,cs),
(817,355,o),
(629,89,o),
(433,89,cs),
(306,89,o),
(230,161,o),
(230,297,cs)
);
}
);
width = 1024;
},
{
layerId = "459F892D-0193-436C-99B7-2A4FAD43389C";
shapes = (
{
closed = 1;
nodes = (
(41,200,o),
(146,-26,o),
(454,-26,cs),
(764,-26,o),
(971,215,o),
(971,518,cs),
(971,734,o),
(841,940,o),
(580,940,cs),
(279,940,o),
(41,730,o),
(41,386,cs)
);
},
{
closed = 1;
nodes = (
(343,538,o),
(438,681,o),
(558,681,cs),
(660,681,o),
(667,608,o),
(667,537,cs),
(667,355,o),
(578,232,o),
(457,232,cs),
(397,232,o),
(343,296,o),
(343,380,cs)
);
}
);
width = 1024;
},
{
layerId = "DE55C86C-15D8-4D4C-BA82-540887FA286E";
shapes = (
{
closed = 1;
nodes = (
(56,165,o),
(167,-24,o),
(445,-24,cs),
(749,-24,o),
(967,230,o),
(967,541,cs),
(967,744,o),
(843,925,o),
(602,925,cs),
(298,925,o),
(56,697,o),
(56,353,cs)
);
},
{
closed = 1;
nodes = (
(308,544,o),
(431,716,o),
(579,716,cs),
(679,716,o),
(714,651,o),
(714,559,cs),
(714,355,o),
(595,184,o),
(449,184,cs),
(366,184,o),
(308,251,o),
(308,352,cs)
);
}
);
width = 1024;
},
{
layerId = "5406E1A9-98D2-48B0-A3BF-3E9D89732E2E";
shapes = (
{
closed = 1;
nodes = (
(79,112,o),
(198,-21,o),
(431,-21,cs),
(726,-21,o),
(961,253,o),
(961,575,cs),
(961,759,o),
(846,902,o),
(635,902,cs),
(327,902,o),
(79,648,o),
(79,304,cs)
);
},
{
closed = 1;
nodes = (
(256,553,o),
(420,769,o),
(610,769,cs),
(707,769,o),
(784,715,o),
(784,592,cs),
(784,355,o),
(620,112,o),
(437,112,cs),
(320,112,o),
(256,183,o),
(256,310,cs)
);
}
);
width = 1024;
}
);
unicode = 111;
},
{
glyphname = p;
layers = (
{
layerId = "F961D97E-EEA9-4A8D-9339-D33FF8C656AD";
shapes = (
{
closed = 1;
nodes = (
(280,876,l),
(-32,-367,l),
(115,-367,l),
(210,20,l),
(243,5,o),
(304,-20,o),
(398,-20,cs),
(728,-20,o),
(954,285,o),
(954,628,cs),
(954,835,o),
(830,895,o),
(705,895,cs),
(567,895,o),
(455,836,o),
(366,734,c),
(383,876,l)
);
},
{
closed = 1;
nodes = (
(343,567,l),
(399,659,o),
(526,787,o),
(666,787,cs),
(742,787,o),
(813,719,o),
(813,628,cs),
(813,321,o),
(607,89,o),
(382,89,cs),
(331,89,o),
(283,101,o),
(239,126,c)
);
}
);
width = 1024;
},
{
layerId = "459F892D-0193-436C-99B7-2A4FAD43389C";
shapes = (
{
closed = 1;
nodes = (
(198,911,l),
(-77,-367,l),
(218,-367,l),
(306,9,l),
(336,-12,o),
(402,-26,o),
(455,-26,cs),
(746,-26,o),
(996,231,o),
(996,652,cs),
(996,843,o),
(892,940,o),
(747,940,cs),
(585,940,o),
(497,852,o),
(423,754,c),
(413,911,l)
);
},
{
closed = 1;
nodes = (
(423,573,l),
(460,627,o),
(502,681,o),
(604,681,cs),
(680,681,o),
(695,649,o),
(695,598,cs),
(695,428,o),
(611,232,o),
(441,232,cs),
(400,232,o),
(370,240,o),
(349,253,c)
);
}
);
width = 1024;
},
{
layerId = "DE55C86C-15D8-4D4C-BA82-540887FA286E";
shapes = (
{
closed = 1;
nodes = (
(225,900,l),
(-62,-367,l),
(183,-367,l),
(272,9,l),
(303,-10,o),
(369,-24,o),
(436,-24,cs),
(740,-24,o),
(982,249,o),
(982,644,cs),
(982,840,o),
(871,925,o),
(733,925,cs),
(585,925,o),
(477,832,o),
(403,747,c),
(403,900,l)
);
},
{
closed = 1;
nodes = (
(394,561,l),
(437,633,o),
(510,716,o),
(625,716,cs),
(701,716,o),
(731,672,o),
(731,608,cs),
(731,383,o),
(602,184,o),
(421,184,cs),
(377,184,o),
(341,193,o),
(312,210,c)
);
}
);
width = 1024;
},
{
layerId = "5406E1A9-98D2-48B0-A3BF-3E9D89732E2E";
shapes = (
{
closed = 1;
nodes = (
(266,882,l),
(-39,-367,l),
(131,-367,l),
(221,9,l),
(253,-7,o),
(320,-21,o),
(407,-21,cs),
(731,-21,o),
(961,276,o),
(961,632,cs),
(961,836,o),
(840,902,o),
(712,902,cs),
(576,902,o),
(463,834,o),
(373,737,c),
(388,882,l)
);
},
{
closed = 1;
nodes = (
(350,543,l),
(403,630,o),
(522,769,o),
(656,769,cs),
(732,769,o),
(785,707,o),
(785,623,cs),
(785,315,o),
(589,112,o),
(391,112,cs),
(342,112,o),
(297,123,o),
(257,146,c)
);
}
);
width = 1024;
}
);
unicode = 112;
},
{
glyphname = q;
layers = (
{
layerId = "F961D97E-EEA9-4A8D-9339-D33FF8C656AD";
shapes = (
{
closed = 1;
nodes = (
(675,-367,l),
(974,831,l),
(922,860,o),
(803,890,o),
(694,890,c),
(377,884,o),
(106,571,o),
(106,250,cs),
(106,89,o),
(169,-20,o),
(349,-20,cs),
(487,-20,o),
(593,75,o),
(660,147,c),
(659,147,l),
(532,-367,l)
);
},
{
closed = 1;
nodes = (
(709,354,l),
(656,265,o),
(512,89,o),
(373,89,cs),
(303,89,o),
(249,140,o),
(249,253,cs),
(249,527,o),
(458,779,o),
(664,779,cs),
(703,779,o),
(771,775,o),
(814,760,c)
);
}
);
width = 1024;
},
{
layerId = "459F892D-0193-436C-99B7-2A4FAD43389C";
shapes = (
{
closed = 1;
nodes = (
(725,-367,l),
(992,870,l),
(913,904,o),
(764,937,o),
(626,937,c),
(234,940,o),
(8,649,o),
(8,276,cs),
(8,125,o),
(89,-26,o),
(263,-26,cs),
(391,-26,o),
(490,67,o),
(538,141,c),
(543,141,l),
(436,-367,l)
);
},
{
closed = 1;
nodes = (
(598,388,l),
(540,273,o),
(482,232,o),
(399,232,cs),
(321,232,o),
(310,283,o),
(310,334,cs),
(310,495,o),
(392,680,o),
(548,680,cs),
(601,680,o),
(621,676,o),
(649,666,c)
);
}
);
width = 1024;
},
{
layerId = "DE55C86C-15D8-4D4C-BA82-540887FA286E";
shapes = (
{
closed = 1;
nodes = (
(708,-367,l),
(986,857,l),
(916,889,o),
(777,921,o),
(649,921,cs),
(282,921,o),
(41,623,o),
(41,267,cs),
(41,113,o),
(116,-24,o),
(292,-24,cs),
(423,-24,o),
(523,63,o),
(577,136,c),
(580,136,l),
(468,-367,l)
);
},
{
closed = 1;
nodes = (
(635,377,l),
(579,270,o),
(492,184,o),
(390,184,cs),
(315,184,o),
(293,235,o),
(293,307,cs),
(293,506,o),
(414,713,o),
(587,713,cs),
(635,713,o),
(671,709,o),
(704,697,c)
);
}
);
width = 1024;
},
{
layerId = "5406E1A9-98D2-48B0-A3BF-3E9D89732E2E";
shapes = (
{
closed = 1;
nodes = (
(683,-367,l),
(977,837,l),
(920,867,o),
(796,897,o),
(683,897,c),
(354,893,o),
(90,584,o),
(90,254,cs),
(90,95,o),
(156,-21,o),
(335,-21,cs),
(471,-21,o),
(572,57,o),
(636,129,c),
(636,129,l),
(516,-367,l)
);
},
{
closed = 1;
nodes = (
(691,360,l),
(637,266,o),
(507,112,o),
(377,112,cs),
(306,112,o),
(267,163,o),
(267,266,cs),
(267,522,o),
(447,763,o),
(645,763,cs),
(686,763,o),
(746,759,o),
(787,744,c)
);
}
);
width = 1024;
}
);
unicode = 113;
},
{
glyphname = r;
layers = (
{
layerId = "F961D97E-EEA9-4A8D-9339-D33FF8C656AD";
shapes = (
{
closed = 1;
nodes = (
(403,875,l),
(302,875,l),
(83,0,l),
(226,0,l),
(369,576,l),
(434,684,o),
(530,768,o),
(662,768,cs),
(728,768,o),
(775,737,o),
(802,708,c),
(854,817,l),
(818,853,o),
(743,887,o),
(677,887,cs),
(577,887,o),
(495,843,o),
(435,783,c),
(423,767,o),
(412,753,o),
(401,737,c)
);
}
);
width = 797;
},
{
layerId = "459F892D-0193-436C-99B7-2A4FAD43389C";
shapes = (
{
closed = 1;
nodes = (
(406,911,l),
(191,911,l),
(-3,0,l),
(295,0,l),
(405,537,l),
(437,599,o),
(521,661,o),
(622,661,cs),
(668,661,o),
(685,660,o),
(718,637,c),
(822,889,l),
(786,923,o),
(723,927,o),
(665,927,cs),
(529,927,o),
(467,832,o),
(411,728,c),
(413,736,o),
(414,744,o),
(415,752,c)
);
}
);
width = 797;
},
{
layerId = "DE55C86C-15D8-4D4C-BA82-540887FA286E";
shapes = (
{
closed = 1;
nodes = (
(405,899,l),
(228,899,l),
(26,0,l),
(272,0,l),
(393,549,l),
(436,627,o),
(524,696,o),
(635,696,cs),
(688,696,o),
(715,685,o),
(746,660,c),
(833,864,l),
(797,899,o),
(730,913,o),
(669,913,cs),
(545,913,o),
(476,835,o),
(419,746,c),
(416,746,o),
(413,746,o),
(410,746,c)
);
}
);
width = 797;
},
{
layerId = "5406E1A9-98D2-48B0-A3BF-3E9D89732E2E";
shapes = (
{
closed = 1;
nodes = (
(403,881,l),
(284,881,l),
(69,0,l),
(237,0,l),
(375,569,l),
(434,670,o),
(528,750,o),
(655,750,cs),
(718,750,o),
(760,724,o),
(788,696,c),
(849,828,l),
(813,864,o),
(740,893,o),
(675,893,cs),
(569,893,o),
(490,841,o),
(431,774,cs),
(421,762,o),
(412,751,o),
(403,739,c)
);
}
);
width = 797;
}
);
unicode = 114;
},
{
glyphname = s;
layers = (
{
layerId = "F961D97E-EEA9-4A8D-9339-D33FF8C656AD";
shapes = (
{
closed = 1;
nodes = (
(47,161,o),
(6,102,o),
(-5,86,c),
(54,25,o),
(176,-19,o),
(350,-19,cs),
(469,-19,o),
(677,34,o),
(677,262,cs),
(677,363,o),
(594,426,o),
(513,481,cs),
(435,534,o),
(351,596,o),
(351,662,cs),
(351,763,o),
(440,787,o),
(514,787,cs),
(614,787,o),
(687,763,o),
(746,712,c),
(761,732,o),
(806,790,o),
(817,803,c),
(752,873,o),
(653,895,o),
(525,895,cs),
(363,895,o),
(204,833,o),
(204,662,cs),
(204,531,o),
(295,464,o),
(380,404,cs),
(454,353,o),
(532,290,o),
(532,217,cs),
(532,139,o),
(434,90,o),
(326,90,cs),
(233,90,o),
(114,132,o),
(63,187,c)
);
}
);
width = 797;
},
{
layerId = "459F892D-0193-436C-99B7-2A4FAD43389C";
shapes = (
{
closed = 1;
nodes = (
(43,276,o),
(-18,120,o),
(-39,66,c),
(32,30,o),
(114,-26,o),
(276,-26,cs),
(570,-26,o),
(695,93,o),
(695,274,cs),
(695,415,o),
(607,488,o),
(520,536,cs),
(437,583,o),
(355,607,o),
(355,647,cs),
(355,664,o),
(393,681,o),
(482,681,cs),
(552,681,o),
(645,651,o),
(690,638,c),
(705,685,o),
(750,828,o),
(765,871,c),
(700,903,o),
(594,940,o),
(431,940,cs),
(184,940,o),
(53,803,o),
(53,644,cs),
(53,495,o),
(150,436,o),
(241,396,cs),
(320,361,o),
(394,341,o),
(394,288,cs),
(394,244,o),
(359,232,o),
(275,232,cs),
(181,232,o),
(111,274,o),
(53,305,c)
);
}
);
width = 797;
},
{
layerId = "DE55C86C-15D8-4D4C-BA82-540887FA286E";
shapes = (
{
closed = 1;
nodes = (
(44,237,o),
(-10,114,o),
(-28,73,c),
(39,35,o),
(135,-24,o),
(301,-24,cs),
(536,-24,o),
(689,73,o),
(689,270,cs),
(689,400,o),
(603,469,o),
(518,520,cs),
(436,569,o),
(356,600,o),
(356,652,cs),
(356,697,o),
(409,716,o),
(493,716,cs),
(573,716,o),
(659,681,o),
(709,663,c),
(724,701,o),
(769,815,o),
(782,848,c),
(717,880,o),
(614,925,o),
(462,925,cs),
(244,925,o),
(104,813,o),
(104,650,cs),
(104,504,o),
(199,443,o),
(288,396,cs),
(365,356,o),
(437,327,o),
(437,264,cs),
(437,209,o),
(384,184,o),
(292,184,cs),
(198,184,o),
(112,233,o),
(56,265,c)
);
}
);
width = 797;
},
{
layerId = "5406E1A9-98D2-48B0-A3BF-3E9D89732E2E";
shapes = (
{
closed = 1;
nodes = (
(46,180,o),
(2,105,o),
(-11,83,c),
(50,27,o),
(166,-20,o),
(338,-20,cs),
(486,-20,o),
(680,44,o),
(680,264,cs),
(680,372,o),
(596,437,o),
(514,491,cs),
(435,543,o),
(352,597,o),
(352,659,cs),
(352,746,o),
(432,769,o),
(509,769,cs),
(604,769,o),
(680,742,o),
(737,700,c),
(752,724,o),
(797,796,o),
(808,814,c),
(743,875,o),
(643,902,o),
(509,902,cs),
(333,902,o),
(179,828,o),
(179,659,cs),
(179,524,o),
(271,459,o),
(357,402,cs),
(432,354,o),
(508,299,o),
(508,229,cs),
(508,156,o),
(421,113,o),
(317,113,cs),
(224,113,o),
(113,157,o),
(61,206,c)
);
}
);
width = 797;
}
);
unicode = 115;
},
{
glyphname = t;
layers = (
{
layerId = "F961D97E-EEA9-4A8D-9339-D33FF8C656AD";
shapes = (
{
closed = 1;
nodes = (
(165,876,l),
(135,767,l),
(248,767,l),
(95,201,l),
(88,171,o),
(86,146,o),
(86,126,cs),
(86,28,o),
(141,-20,o),
(229,-20,cs),
(345,-20,o),
(439,26,o),
(499,118,c),
(446,177,l),
(404,132,o),
(357,89,o),
(280,89,cs),
(264,89,o),
(237,104,o),
(237,153,cs),
(237,167,o),
(239,181,o),
(247,217,c),
(393,767,l),
(585,767,l),
(616,876,l),
(422,876,l),
(469,1060,l),
(314,1021,l),
(278,876,l)
);
}
);
width = 569;
},
{
layerId = "459F892D-0193-436C-99B7-2A4FAD43389C";
shapes = (
{
closed = 1;
nodes = (
(97,910,l),
(36,651,l),
(119,651,l),
(43,252,l),
(36,227,o),
(35,200,o),
(35,176,cs),
(35,38,o),
(125,-26,o),
(285,-26,cs),
(353,-26,o),
(423,-22,o),
(477,-9,c),
(504,247,l),
(481,238,o),
(432,232,o),
(415,232,cs),
(359,232,o),
(347,243,o),
(347,280,cs),
(347,298,o),
(354,326,o),
(360,354,cs),
(420,651,l),
(515,651,l),
(574,910,l),
(472,910,l),
(556,1278,l),
(242,1203,l),
(170,910,l)
);
}
);
width = 569;
},
{
layerId = "DE55C86C-15D8-4D4C-BA82-540887FA286E";
shapes = (
{
closed = 1;
nodes = (
(120,899,l),
(69,690,l),
(162,690,l),
(60,235,l),
(53,208,o),
(52,182,o),
(52,159,cs),
(52,35,o),
(130,-24,o),
(266,-24,cs),
(350,-24,o),
(402,-13,o),
(458,7,c),
(458,197,l),
(437,186,o),
(407,184,o),
(370,184,cs),
(327,184,o),
(310,196,o),
(310,237,cs),
(310,254,o),
(315,277,o),
(322,308,cs),
(411,690,l),
(538,690,l),
(588,899,l),
(455,899,l),
(527,1205,l),
(266,1142,l),
(206,899,l)
);
}
);
width = 569;
},
{
layerId = "5406E1A9-98D2-48B0-A3BF-3E9D89732E2E";
shapes = (
{
closed = 1;
nodes = (
(154,882,l),
(119,748,l),
(227,748,l),
(86,209,ls),
(79,180,o),
(77,155,o),
(77,134,cs),
(77,30,o),
(138,-21,o),
(238,-21,cs),
(346,-21,o),
(430,16,o),
(489,91,c),
(449,182,l),
(412,145,o),
(369,112,o),
(302,112,cs),
(279,112,o),
(255,126,o),
(255,173,cs),
(255,188,o),
(257,204,o),
(265,239,c),
(397,748,l),
(573,748,l),
(609,882,l),
(430,882,l),
(483,1095,l),
(302,1050,l),
(260,882,l)
);
}
);
width = 569;
}
);
unicode = 116;
},
{
glyphname = u;
layers = (
{
layerId = "F961D97E-EEA9-4A8D-9339-D33FF8C656AD";
shapes = (
{
closed = 1;
nodes = (
(428,-20,o),
(553,73,o),
(637,160,c),
(619,30,o),
(658,-10,o),
(719,-10,c),
(800,-12,o),
(875,33,o),
(932,81,c),
(893,152,l),
(868,136,o),
(843,113,o),
(789,113,cs),
(761,113,o),
(734,140,o),
(798,365,cs),
(950,875,l),
(808,875,l),
(640,303,l),
(564,198,o),
(431,89,o),
(301,89,cs),
(231,89,o),
(210,128,o),
(210,182,cs),
(210,203,o),
(212,229,o),
(221,260,cs),
(397,875,l),
(259,875,l),
(89,294,ls),
(75,245,o),
(72,198,o),
(72,165,cs),
(72,20,o),
(158,-20,o),
(277,-20,cs)
);
}
);
width = 995;
},
{
layerId = "459F892D-0193-436C-99B7-2A4FAD43389C";
shapes = (
{
closed = 1;
nodes = (
(510,-26,o),
(643,31,o),
(704,138,c),
(713,25,o),
(825,-21,o),
(932,-21,cs),
(987,-21,o),
(1058,-2,o),
(1117,20,c),
(1092,202,l),
(1078,195,o),
(1064,187,o),
(1041,187,cs),
(959,187,o),
(1000,312,o),
(1009,360,cs),
(1111,911,l),
(814,911,l),
(715,369,ls),
(703,304,o),
(600,262,o),
(519,262,cs),
(457,262,o),
(408,286,o),
(408,351,cs),
(408,392,o),
(420,422,o),
(427,455,cs),
(518,911,l),
(219,911,l),
(118,413,ls),
(109,367,o),
(90,298,o),
(90,226,cs),
(90,44,o),
(233,-26,o),
(359,-26,cs)
);
}
);
width = 1216;
},
{
layerId = "DE55C86C-15D8-4D4C-BA82-540887FA286E";
shapes = (
{
closed = 1;
nodes = (
(480,-24,o),
(609,45,o),
(678,145,c),
(678,27,o),
(766,-17,o),
(858,-17,c),
(922,-18,o),
(994,9,o),
(1052,40,c),
(1024,184,l),
(1006,173,o),
(988,161,o),
(955,161,cs),
(891,161,o),
(909,256,o),
(936,362,c),
(1054,899,l),
(808,899,l),
(687,352,l),
(654,274,o),
(542,202,o),
(445,202,cs),
(380,202,o),
(342,234,o),
(342,295,cs),
(342,330,o),
(351,359,o),
(358,391,cs),
(477,899,l),
(231,899,l),
(107,374,ls),
(97,327,o),
(83,265,o),
(83,206,cs),
(83,36,o),
(206,-24,o),
(329,-24,cs)
);
}
);
width = 1113;
},
{
layerId = "5406E1A9-98D2-48B0-A3BF-3E9D89732E2E";
shapes = (
{
closed = 1;
nodes = (
(436,-21,o),
(559,65,o),
(639,156,c),
(626,29,o),
(678,-12,o),
(747,-12,cs),
(824,-13,o),
(898,26,o),
(955,70,c),
(921,156,l),
(898,141,o),
(875,121,o),
(827,121,cs),
(789,121,o),
(773,171,o),
(826,364,cs),
(969,881,l),
(799,881,l),
(645,327,l),
(581,229,o),
(455,112,o),
(334,112,cs),
(265,112,o),
(243,156,o),
(243,212,cs),
(243,237,o),
(247,264,o),
(255,295,cs),
(416,881,l),
(249,881,l),
(91,315,ls),
(78,267,o),
(72,216,o),
(72,176,cs),
(72,24,o),
(165,-21,o),
(285,-21,cs)
);
}
);
width = 1024;
}
);
unicode = 117;
},
{
glyphname = v;
layers = (
{
layerId = "F961D97E-EEA9-4A8D-9339-D33FF8C656AD";
shapes = (
{
closed = 1;
nodes = (
(400,350,l),
(289,875,l),
(150,875,l),
(344,-22,l),
(395,-22,l),
(946,875,l),
(791,875,l),
(495,351,l),
(415,199,l)
);
}
);
width = 909;
},
{
layerId = "459F892D-0193-436C-99B7-2A4FAD43389C";
shapes = (
{
closed = 1;
nodes = (
(410,507,l),
(358,911,l),
(21,911,l),
(236,-2,l),
(425,-2,l),
(1053,911,l),
(697,911,l),
(482,505,l),
(416,342,l)
);
}
);
width = 909;
},
{
layerId = "DE55C86C-15D8-4D4C-BA82-540887FA286E";
shapes = (
{
closed = 1;
nodes = (
(407,454,l),
(335,899,l),
(64,899,l),
(272,-9,l),
(415,-9,l),
(1017,899,l),
(728,899,l),
(485,454,l),
(413,333,l)
);
}
);
width = 909;
},
{
layerId = "5406E1A9-98D2-48B0-A3BF-3E9D89732E2E";
shapes = (
{
closed = 1;
nodes = (
(402,375,l),
(300,881,l),
(129,881,l),
(326,-19,l),
(400,-19,l),
(963,881,l),
(775,881,l),
(490,378,l),
(412,231,l)
);
}
);
width = 909;
}
);
unicode = 118;
},
{
glyphname = w;
layers = (
{
layerId = "F961D97E-EEA9-4A8D-9339-D33FF8C656AD";
shapes = (
{
closed = 1;
nodes = (
(281,-22,l),
(334,-22,l),
(698,544,l),
(747,657,l),
(752,540,l),
(812,-22,l),
(871,-22,l),
(1408,875,l),
(1249,875,l),
(949,347,l),
(901,237,l),
(896,334,l),
(845,875,l),
(741,875,l),
(422,331,l),
(388,238,l),
(388,333,l),
(330,875,l),
(185,875,l)
);
}
);
width = 1366;
},
{
layerId = "459F892D-0193-436C-99B7-2A4FAD43389C";
shapes = (
{
closed = 1;
nodes = (
(192,-2,l),
(441,-2,l),
(692,446,l),
(746,553,l),
(763,450,l),
(850,-2,l),
(1081,-2,l),
(1558,911,l),
(1267,911,l),
(1093,505,l),
(1033,342,l),
(1020,497,l),
(934,911,l),
(722,911,l),
(499,528,l),
(400,343,l),
(412,508,l),
(395,911,l),
(90,911,l)
);
}
);
width = 1366;
},
{
layerId = "DE55C86C-15D8-4D4C-BA82-540887FA286E";
shapes = (
{
closed = 1;
nodes = (
(235,-9,l),
(418,-9,l),
(707,479,l),
(759,588,l),
(772,480,l),
(850,-9,l),
(1024,-9,l),
(1521,899,l),
(1274,899,l),
(1058,452,l),
(1002,307,l),
(991,442,l),
(917,899,l),
(741,899,l),
(486,462,l),
(410,308,l),
(417,449,l),
(386,899,l),
(135,899,l)
);
}
);
width = 1366;
},
{
layerId = "5406E1A9-98D2-48B0-A3BF-3E9D89732E2E";
shapes = (
{
closed = 1;
nodes = (
(254,-19,l),
(339,-19,l),
(684,528,l),
(734,640,l),
(741,525,l),
(805,-19,l),
(893,-19,l),
(1420,881,l),
(1239,881,l),
(960,372,l),
(910,254,l),
(903,360,l),
(847,881,l),
(725,881,l),
(422,363,l),
(380,255,l),
(379,361,l),
(328,881,l),
(157,881,l)
);
}
);
width = 1366;
}
);
unicode = 119;
},
{
glyphname = x;
layers = (
{
layerId = "F961D97E-EEA9-4A8D-9339-D33FF8C656AD";
shapes = (
{
closed = 1;
nodes = (
(378,459,l),
(-57,0,l),
(111,0,l),
(356,261,l),
(423,340,l),
(457,262,l),
(584,0,l),
(736,0,l),
(520,430,l),
(909,875,l),
(741,875,l),
(527,615,l),
(474,544,l),
(437,631,l),
(323,875,l),
(169,875,l)
);
}
);
width = 872;
},
{
layerId = "459F892D-0193-436C-99B7-2A4FAD43389C";
shapes = (
{
closed = 1;
nodes = (
(330,468,l),
(-54,0,l),
(316,0,l),
(440,171,l),
(559,348,l),
(588,192,l),
(662,0,l),
(998,0,l),
(808,478,l),
(1177,911,l),
(809,911,l),
(701,774,l),
(580,607,l),
(559,747,l),
(508,911,l),
(165,911,l)
);
}
);
width = 1101;
},
{
layerId = "DE55C86C-15D8-4D4C-BA82-540887FA286E";
shapes = (
{
closed = 1;
nodes = (
(346,464,l),
(-55,0,l),
(247,0,l),
(419,209,l),
(511,345,l),
(544,215,l),
(636,0,l),
(910,0,l),
(711,462,l),
(1087,899,l),
(786,899,l),
(635,711,l),
(547,585,l),
(518,707,l),
(446,899,l),
(166,899,l)
);
}
);
width = 1024;
},
{
layerId = "5406E1A9-98D2-48B0-A3BF-3E9D89732E2E";
shapes = (
{
closed = 1;
nodes = (
(370,460,l),
(-56,0,l),
(144,0,l),
(388,266,l),
(439,341,l),
(478,250,l),
(597,0,l),
(778,0,l),
(566,437,l),
(952,881,l),
(752,881,l),
(536,618,l),
(498,554,l),
(457,649,l),
(353,881,l),
(168,881,l)
);
}
);
width = 909;
}
);
unicode = 120;
},
{
glyphname = y;
layers = (
{
layerId = "F961D97E-EEA9-4A8D-9339-D33FF8C656AD";
shapes = (
{
closed = 1;
nodes = (
(441,150,l),
(274,875,l),
(127,875,l),
(328,5,l),
(236,-157,o),
(141,-250,o),
(65,-250,cs),
(55,-250,o),
(36,-245,o),
(12,-241,c),
(-38,-361,l),
(-3,-375,o),
(30,-379,o),
(71,-379,cs),
(239,-379,o),
(424,-146,o),
(536,78,cs),
(938,875,l),
(782,875,l)
);
}
);
width = 909;
},
{
layerId = "459F892D-0193-436C-99B7-2A4FAD43389C";
shapes = (
{
closed = 1;
nodes = (
(423,343,l),
(397,911,l),
(55,911,l),
(246,25,l),
(156,-109,o),
(138,-112,o),
(75,-112,cs),
(52,-112,o),
(36,-116,o),
(32,-107,c),
(-48,-337,l),
(-11,-365,o),
(36,-375,o),
(101,-375,cs),
(266,-375,o),
(394,-160,o),
(550,104,c),
(1033,911,l),
(707,911,l)
);
}
);
width = 909;
},
{
layerId = "DE55C86C-15D8-4D4C-BA82-540887FA286E";
shapes = (
{
closed = 1;
nodes = (
(429,278,l),
(356,899,l),
(79,899,l),
(273,18,l),
(183,-125,o),
(139,-158,o),
(72,-158,cs),
(53,-158,o),
(36,-159,o),
(25,-152,c),
(-45,-345,l),
(-8,-368,o),
(34,-376,o),
(91,-376,cs),
(257,-376,o),
(403,-155,o),
(545,95,cs),
(1001,899,l),
(732,899,l)
);
}
);
width = 909;
},
{
layerId = "5406E1A9-98D2-48B0-A3BF-3E9D89732E2E";
shapes = (
{
closed = 1;
nodes = (
(438,181,l),
(294,881,l),
(115,881,l),
(314,8,l),
(223,-149,o),
(140,-227,o),
(67,-227,cs),
(54,-227,o),
(36,-224,o),
(15,-219,c),
(-40,-357,l),
(-4,-373,o),
(31,-378,o),
(76,-378,cs),
(243,-378,o),
(419,-148,o),
(538,82,cs),
(953,881,l),
(770,881,l)
);
}
);
width = 909;
}
);
unicode = 121;
},
{
glyphname = z;
layers = (
{
layerId = "F961D97E-EEA9-4A8D-9339-D33FF8C656AD";
shapes = (
{
closed = 1;
nodes = (
(18,111,l),
(-8,0,l),
(601,0,l),
(629,117,l),
(189,117,l),
(243,169,l),
(791,762,l),
(822,875,l),
(212,875,l),
(181,758,l),
(628,758,l),
(576,705,l)
);
}
);
width = 797;
},
{
layerId = "459F892D-0193-436C-99B7-2A4FAD43389C";
shapes = (
{
closed = 1;
nodes = (
(-9,268,l),
(-64,0,l),
(651,0,l),
(710,268,l),
(338,268,l),
(398,304,l),
(787,646,l),
(842,911,l),
(128,911,l),
(67,645,l),
(449,645,l),
(361,600,l)
);
}
);
width = 797;
},
{
layerId = "DE55C86C-15D8-4D4C-BA82-540887FA286E";
shapes = (
{
closed = 1;
nodes = (
(0,215,l),
(-45,0,l),
(634,0,l),
(683,217,l),
(288,217,l),
(346,259,l),
(788,684,l),
(835,899,l),
(156,899,l),
(105,682,l),
(509,682,l),
(433,634,l)
);
}
);
width = 797;
},
{
layerId = "5406E1A9-98D2-48B0-A3BF-3E9D89732E2E";
shapes = (
{
closed = 1;
nodes = (
(13,136,l),
(-17,0,l),
(609,0,l),
(642,141,l),
(213,141,l),
(268,191,l),
(790,743,l),
(825,881,l),
(198,881,l),
(162,739,l),
(599,739,l),
(541,687,l)
);
}
);
width = 797;
}
);
unicode = 122;
},
{
glyphname = braceleft;
layers = (
{
layerId = "F961D97E-EEA9-4A8D-9339-D33FF8C656AD";
shapes = (
{
closed = 1;
nodes = (
(279,-200,l),
(278,-210,o),
(274,-221,o),
(272,-231,cs),
(237,-371,o),
(294,-445,o),
(423,-445,cs),
(598,-445,l),
(627,-314,l),
(519,-314,ls),
(438,-314,o),
(414,-275,o),
(431,-194,cs),
(530,262,ls),
(541,316,o),
(536,360,o),
(512,393,c),
(489,427,o),
(460,447,o),
(423,452,c),
(427,467,l),
(474,475,o),
(518,496,o),
(559,531,cs),
(573,544,o),
(584,558,o),
(591,576,c),
(603,600,o),
(612,628,o),
(617,660,cs),
(619,671,o),
(622,682,o),
(624,693,cs),
(715,1107,ls),
(732,1186,o),
(779,1227,o),
(853,1227,cs),
(963,1227,l),
(992,1358,l),
(805,1358,ls),
(793,1358,o),
(781,1357,o),
(769,1356,c),
(703,1344,o),
(650,1306,o),
(614,1255,cs),
(590,1221,o),
(575,1178,o),
(569,1132,c),
(565,1111,o),
(562,1089,o),
(557,1068,cs),
(473,684,ls),
(448,571,o),
(377,520,o),
(269,520,c),
(239,391,l),
(295,391,o),
(334,381,o),
(356,355,cs),
(379,327,o),
(385,285,o),
(371,219,cs)
);
}
);
width = 855;
},
{
layerId = "459F892D-0193-436C-99B7-2A4FAD43389C";
shapes = (
{
closed = 1;
nodes = (
(-27,-208,l),
(-31,-225,o),
(-32,-242,o),
(-32,-258,cs),
(-33,-377,o),
(36,-445,o),
(167,-445,c),
(456,-445,l),
(507,-170,l),
(405,-170,ls),
(330,-170,o),
(305,-134,o),
(319,-53,cs),
(374,258,l),
(385,312,o),
(377,356,o),
(353,390,cs),
(329,424,o),
(298,443,o),
(261,448,c),
(265,470,l),
(272,471,o),
(278,469,o),
(285,465,c),
(306,472,o),
(328,483,o),
(351,495,c),
(389,518,o),
(416,552,o),
(433,597,c),
(436,608,o),
(439,619,o),
(441,630,cs),
(501,966,ls),
(516,1051,o),
(553,1083,o),
(628,1083,cs),
(732,1083,l),
(784,1358,l),
(555,1358,ls),
(543,1358,o),
(531,1359,o),
(519,1359,c),
(435,1365,o),
(370,1350,o),
(322,1306,cs),
(290,1277,o),
(263,1244,o),
(242,1206,c),
(232,1186,o),
(223,1164,o),
(218,1140,c),
(146,741,l),
(124,628,o),
(56,577,o),
(-52,577,c),
(-97,334,l),
(-44,334,o),
(-5,321,o),
(22,297,c),
(46,273,o),
(52,227,o),
(38,161,c)
);
}
);
width = 642;
},
{
layerId = "DE55C86C-15D8-4D4C-BA82-540887FA286E";
shapes = (
{
closed = 1;
nodes = (
(75,-205,ls),
(72,-220,o),
(70,-235,o),
(69,-249,cs),
(57,-375,o),
(122,-445,o),
(252,-445,cs),
(503,-445,l),
(547,-218,l),
(443,-218,ls),
(366,-218,o),
(340,-181,o),
(356,-100,cs),
(426,259,ls),
(437,313,o),
(430,357,o),
(406,391,cs),
(382,425,o),
(352,444,o),
(315,449,c),
(319,469,l),
(339,472,o),
(358,478,o),
(376,487,cs),
(395,496,o),
(413,508,o),
(431,522,cs),
(460,545,o),
(481,577,o),
(494,618,cs),
(497,629,o),
(500,640,o),
(502,651,cs),
(572,1013,ls),
(588,1096,o),
(628,1131,o),
(703,1131,cs),
(809,1131,l),
(853,1358,l),
(638,1358,ls),
(626,1358,o),
(614,1358,o),
(602,1358,cs),
(524,1358,o),
(463,1335,o),
(419,1289,cs),
(390,1258,o),
(367,1222,o),
(351,1181,cs),
(343,1161,o),
(336,1139,o),
(331,1116,c),
(255,722,ls),
(232,609,o),
(163,558,o),
(55,558,c),
(15,353,l),
(69,353,o),
(108,341,o),
(133,316,cs),
(157,291,o),
(163,246,o),
(149,180,c)
);
}
);
width = 713;
},
{
layerId = "5406E1A9-98D2-48B0-A3BF-3E9D89732E2E";
shapes = (
{
closed = 1;
nodes = (
(228,-201,ls),
(226,-212,o),
(223,-224,o),
(221,-235,cs),
(192,-372,o),
(251,-445,o),
(380,-445,cs),
(574,-445,l),
(607,-290,l),
(500,-290,ls),
(420,-290,o),
(395,-251,o),
(412,-170,cs),
(504,261,ls),
(515,315,o),
(509,359,o),
(485,392,c),
(462,426,o),
(433,446,o),
(396,451,c),
(400,467,l),
(440,474,o),
(478,491,o),
(513,520,cs),
(528,532,o),
(541,545,o),
(551,562,c),
(567,586,o),
(579,615,o),
(586,649,cs),
(588,660,o),
(591,671,o),
(593,682,cs),
(679,1083,ls),
(696,1163,o),
(741,1203,o),
(815,1203,cs),
(924,1203,l),
(957,1358,l),
(763,1358,ls),
(751,1358,o),
(739,1357,o),
(727,1356,cs),
(658,1347,o),
(603,1313,o),
(565,1263,cs),
(540,1230,o),
(523,1189,o),
(514,1144,c),
(509,1123,o),
(505,1101,o),
(500,1080,c),
(418,693,ls),
(394,580,o),
(323,529,o),
(215,529,c),
(183,381,l),
(238,381,o),
(277,371,o),
(300,345,cs),
(323,318,o),
(329,275,o),
(315,209,cs)
);
}
);
width = 819;
}
);
unicode = 123;
},
{
glyphname = bar;
layers = (
{
layerId = "F961D97E-EEA9-4A8D-9339-D33FF8C656AD";
shapes = (
{
closed = 1;
nodes = (
(222,1356,l),
(222,-504,l),
(354,-504,l),
(354,1356,l)
);
}
);
width = 599;
},
{
layerId = "459F892D-0193-436C-99B7-2A4FAD43389C";
shapes = (
{
closed = 1;
nodes = (
(112,1356,l),
(112,-125,l),
(384,-125,l),
(384,1356,l)
);
}
);
width = 376;
},
{
layerId = "DE55C86C-15D8-4D4C-BA82-540887FA286E";
shapes = (
{
closed = 1;
nodes = (
(149,1356,l),
(149,-252,l),
(374,-252,l),
(374,1356,l)
);
}
);
width = 451;
},
{
layerId = "5406E1A9-98D2-48B0-A3BF-3E9D89732E2E";
shapes = (
{
closed = 1;
nodes = (
(204,1356,l),
(204,-442,l),
(359,-442,l),
(359,1356,l)
);
}
);
width = 563;
}
);
unicode = 124;
},
{
glyphname = braceright;
layers = (
{
layerId = "F961D97E-EEA9-4A8D-9339-D33FF8C656AD";
shapes = (
{
closed = 1;
nodes = (
(690,1111,l),
(691,1121,o),
(695,1132,o),
(697,1142,cs),
(732,1283,o),
(673,1358,o),
(545,1358,cs),
(375,1358,l),
(346,1227,l),
(450,1227,ls),
(523,1227,o),
(555,1187,o),
(538,1107,cs),
(438,651,ls),
(426,596,o),
(432,552,o),
(454,519,cs),
(477,486,o),
(507,466,o),
(543,461,c),
(540,446,l),
(496,439,o),
(452,417,o),
(409,381,c),
(395,368,o),
(384,354,o),
(376,338,cs),
(364,314,o),
(357,286,o),
(352,254,cs),
(350,243,o),
(347,232,o),
(345,221,cs),
(254,-194,ls),
(236,-272,o),
(190,-314,o),
(117,-314,cs),
(10,-314,l),
(-20,-445,l),
(161,-445,ls),
(173,-445,o),
(184,-444,o),
(194,-443,cs),
(249,-436,o),
(294,-413,o),
(329,-376,cs),
(342,-362,o),
(353,-347,o),
(363,-331,cs),
(382,-300,o),
(393,-264,o),
(400,-222,cs),
(404,-201,o),
(407,-179,o),
(412,-159,c),
(496,228,ls),
(522,346,o),
(595,394,o),
(704,394,c),
(732,520,l),
(678,520,o),
(637,530,o),
(613,557,c),
(590,585,o),
(584,627,o),
(598,694,cs)
);
}
);
width = 855;
},
{
layerId = "459F892D-0193-436C-99B7-2A4FAD43389C";
shapes = (
{
closed = 1;
nodes = (
(615,1119,l),
(619,1136,o),
(620,1153,o),
(621,1168,c),
(618,1285,o),
(555,1358,o),
(442,1358,c),
(131,1358,l),
(79,1083,l),
(182,1083,ls),
(265,1083,o),
(285,1046,o),
(271,966,cs),
(216,653,l),
(206,599,o),
(213,555,o),
(238,522,cs),
(263,489,o),
(293,469,o),
(329,463,c),
(326,442,l),
(318,441,o),
(311,443,o),
(304,449,c),
(283,442,o),
(261,432,o),
(238,418,cs),
(202,395,o),
(174,361,o),
(157,314,cs),
(154,305,o),
(151,294,o),
(149,281,cs),
(89,-53,ls),
(74,-140,o),
(34,-170,o),
(-42,-170,cs),
(-146,-170,l),
(-197,-445,l),
(26,-445,ls),
(38,-445,o),
(49,-446,o),
(62,-446,c),
(111,-450,o),
(156,-446,o),
(197,-433,c),
(219,-425,o),
(239,-413,o),
(258,-399,c),
(295,-368,o),
(327,-332,o),
(348,-291,cs),
(358,-270,o),
(367,-248,o),
(370,-222,c),
(442,171,l),
(464,282,o),
(532,336,o),
(640,336,c),
(684,580,l),
(630,580,o),
(592,593,o),
(568,617,cs),
(544,641,o),
(538,687,o),
(550,751,c)
);
}
);
width = 642;
},
{
layerId = "DE55C86C-15D8-4D4C-BA82-540887FA286E";
shapes = (
{
closed = 1;
nodes = (
(640,1116,ls),
(643,1131,o),
(645,1146,o),
(646,1159,cs),
(656,1284,o),
(594,1358,o),
(462,1358,c),
(212,1358,l),
(168,1131,l),
(271,1131,ls),
(351,1131,o),
(376,1093,o),
(360,1013,cs),
(290,652,ls),
(280,598,o),
(286,554,o),
(310,521,cs),
(334,488,o),
(364,468,o),
(400,462,c),
(397,443,l),
(377,440,o),
(358,434,o),
(339,426,cs),
(320,417,o),
(302,406,o),
(284,391,cs),
(256,368,o),
(235,336,o),
(222,294,cs),
(219,284,o),
(216,273,o),
(214,261,cs),
(144,-100,ls),
(128,-184,o),
(86,-218,o),
(11,-218,cs),
(-94,-218,l),
(-138,-445,l),
(71,-445,ls),
(83,-445,o),
(94,-445,o),
(106,-445,cs),
(157,-445,o),
(202,-435,o),
(241,-414,cs),
(260,-404,o),
(277,-391,o),
(293,-376,cs),
(324,-345,o),
(349,-309,o),
(365,-268,cs),
(373,-247,o),
(380,-225,o),
(384,-201,c),
(460,190,ls),
(483,303,o),
(553,355,o),
(661,355,c),
(700,560,l),
(646,560,o),
(607,572,o),
(583,597,cs),
(559,622,o),
(553,667,o),
(566,732,cs)
);
}
);
width = 713;
},
{
layerId = "5406E1A9-98D2-48B0-A3BF-3E9D89732E2E";
shapes = (
{
closed = 1;
nodes = (
(677,1112,ls),
(679,1123,o),
(682,1135,o),
(684,1146,cs),
(713,1283,o),
(653,1358,o),
(524,1358,cs),
(334,1358,l),
(301,1203,l),
(405,1203,ls),
(480,1203,o),
(510,1163,o),
(493,1083,cs),
(401,651,ls),
(389,596,o),
(395,552,o),
(418,519,cs),
(441,486,o),
(471,466,o),
(507,461,c),
(504,445,l),
(466,439,o),
(428,421,o),
(391,392,cs),
(376,380,o),
(363,367,o),
(353,351,cs),
(337,327,o),
(326,298,o),
(319,264,cs),
(317,253,o),
(314,242,o),
(312,231,cs),
(226,-170,ls),
(209,-250,o),
(164,-290,o),
(90,-290,cs),
(-16,-290,l),
(-49,-445,l),
(138,-445,ls),
(150,-445,o),
(161,-444,o),
(172,-443,cs),
(226,-438,o),
(271,-418,o),
(307,-385,cs),
(321,-372,o),
(334,-358,o),
(345,-342,cs),
(367,-311,o),
(382,-275,o),
(391,-233,cs),
(396,-212,o),
(400,-190,o),
(405,-169,c),
(487,218,ls),
(512,335,o),
(584,384,o),
(693,384,c),
(724,530,l),
(670,530,o),
(629,540,o),
(605,567,cs),
(582,594,o),
(576,637,o),
(590,703,cs)
);
}
);
width = 819;
}
);
unicode = 125;
},
{
glyphname = asciitilde;
layers = (
{
layerId = "F961D97E-EEA9-4A8D-9339-D33FF8C656AD";
shapes = (
{
closed = 1;
nodes = (
(190,584,l),
(287,650,o),
(357,679,o),
(421,679,cs),
(488,679,o),
(546,652,o),
(604,625,cs),
(663,598,o),
(722,572,o),
(798,572,cs),
(866,572,o),
(944,596,o),
(1053,661,c),
(990,775,l),
(920,721,o),
(865,705,o),
(812,705,cs),
(750,705,o),
(691,731,o),
(628,757,cs),
(566,783,o),
(502,809,o),
(423,809,cs),
(342,809,o),
(250,783,o),
(128,698,c)
);
}
);
width = 1089;
},
{
layerId = "459F892D-0193-436C-99B7-2A4FAD43389C";
shapes = (
{
closed = 1;
nodes = (
(265,506,l),
(355,587,o),
(437,609,o),
(508,609,cs),
(581,609,o),
(647,582,o),
(715,550,cs),
(782,518,o),
(851,490,o),
(929,490,cs),
(1003,490,o),
(1085,512,o),
(1182,587,c),
(1065,844,l),
(1011,807,o),
(960,792,o),
(910,792,cs),
(841,792,o),
(780,820,o),
(715,846,cs),
(649,872,o),
(577,898,o),
(497,898,cs),
(404,898,o),
(297,858,o),
(160,755,c)
);
}
);
width = 1206;
},
{
layerId = "DE55C86C-15D8-4D4C-BA82-540887FA286E";
shapes = (
{
closed = 1;
nodes = (
(240,532,l),
(332,608,o),
(410,632,o),
(479,632,cs),
(550,632,o),
(613,605,o),
(678,575,cs),
(742,545,o),
(808,517,o),
(885,517,cs),
(957,517,o),
(1038,540,o),
(1139,612,c),
(1040,821,l),
(980,778,o),
(928,763,o),
(877,763,cs),
(810,763,o),
(750,790,o),
(686,816,cs),
(621,842,o),
(552,868,o),
(472,868,cs),
(383,868,o),
(281,833,o),
(149,736,c)
);
}
);
width = 1167;
},
{
layerId = "5406E1A9-98D2-48B0-A3BF-3E9D89732E2E";
shapes = (
{
closed = 1;
nodes = (
(202,571,l),
(298,640,o),
(370,667,o),
(435,667,cs),
(503,667,o),
(562,640,o),
(622,613,cs),
(682,585,o),
(743,558,o),
(819,558,cs),
(888,558,o),
(967,582,o),
(1074,649,c),
(1002,786,l),
(934,735,o),
(880,719,o),
(828,719,cs),
(764,719,o),
(705,745,o),
(642,771,cs),
(579,797,o),
(514,823,o),
(435,823,cs),
(352,823,o),
(257,795,o),
(133,707,c)
);
}
);
width = 1108;
}
);
unicode = 126;
},
{
glyphname = cent;
layers = (
{
layerId = "F961D97E-EEA9-4A8D-9339-D33FF8C656AD";
shapes = (
{
closed = 1;
nodes = (
(689,836,l),
(754,831,o),
(823,817,o),
(878,787,c),
(945,895,l),
(886,923,o),
(821,941,o),
(727,945,c),
(764,1108,l),
(656,1108,l),
(620,943,l),
(292,907,o),
(115,667,o),
(115,321,cs),
(115,128,o),
(228,-12,o),
(408,-23,c),
(374,-189,l),
(481,-189,l),
(517,-20,l),
(614,-7,o),
(703,18,o),
(781,57,c),
(761,149,l),
(694,115,o),
(613,84,o),
(525,81,c)
);
},
{
closed = 1;
nodes = (
(445,86,l),
(285,102,o),
(249,235,o),
(249,364,cs),
(249,604,o),
(359,801,o),
(606,832,c)
);
}
);
width = 1024;
},
{
layerId = "459F892D-0193-436C-99B7-2A4FAD43389C";
shapes = (
{
closed = 1;
nodes = (
(790,613,l),
(823,608,o),
(861,599,o),
(888,590,c),
(1004,843,l),
(969,863,o),
(910,879,o),
(849,889,c),
(877,1050,l),
(582,1050,l),
(554,891,l),
(292,844,o),
(106,639,o),
(106,327,cs),
(106,146,o),
(221,4,o),
(388,-19,c),
(359,-173,l),
(654,-173,l),
(686,-5,l),
(751,0,o),
(840,40,o),
(880,72,c),
(856,312,l),
(825,288,o),
(771,271,o),
(730,262,c)
);
},
{
closed = 1;
nodes = (
(499,263,l),
(436,284,o),
(426,350,o),
(426,409,cs),
(426,508,o),
(474,594,o),
(560,609,c)
);
}
);
width = 1024;
},
{
layerId = "DE55C86C-15D8-4D4C-BA82-540887FA286E";
shapes = (
{
closed = 1;
nodes = (
(756,688,l),
(800,683,o),
(848,672,o),
(885,656,c),
(984,860,l),
(941,883,o),
(880,900,o),
(808,908,c),
(839,1069,l),
(607,1069,l),
(576,908,l),
(292,865,o),
(109,648,o),
(109,325,cs),
(109,140,o),
(223,-1,o),
(395,-20,c),
(364,-178,l),
(596,-178,l),
(629,-10,l),
(705,-2,o),
(794,33,o),
(847,67,c),
(824,257,l),
(781,230,o),
(718,208,o),
(661,201,c)
);
},
{
closed = 1;
nodes = (
(481,204,l),
(385,223,o),
(367,311,o),
(367,394,cs),
(367,540,o),
(435,663,o),
(575,684,c)
);
}
);
width = 1024;
},
{
layerId = "5406E1A9-98D2-48B0-A3BF-3E9D89732E2E";
shapes = (
{
closed = 1;
nodes = (
(705,800,l),
(765,795,o),
(829,782,o),
(880,755,c),
(954,886,l),
(899,913,o),
(835,931,o),
(747,936,c),
(782,1098,l),
(644,1098,l),
(609,934,l),
(292,897,o),
(113,662,o),
(113,322,cs),
(113,131,o),
(226,-9,o),
(405,-22,c),
(371,-186,l),
(509,-186,l),
(544,-17,l),
(636,-5,o),
(725,22,o),
(797,59,c),
(776,175,l),
(715,143,o),
(638,114,o),
(558,110,c)
);
},
{
closed = 1;
nodes = (
(454,115,l),
(309,131,o),
(278,253,o),
(278,371,cs),
(278,588,o),
(377,767,o),
(598,796,c)
);
}
);
width = 1024;
}
);
unicode = 162;
},
{
glyphname = sterling;
layers = (
{
layerId = "F961D97E-EEA9-4A8D-9339-D33FF8C656AD";
shapes = (
{
closed = 1;
nodes = (
(178,738,l),
(150,606,l),
(360,606,l),
(366,570,o),
(370,520,o),
(370,470,cs),
(370,302,o),
(254,200,o),
(36,136,c),
(39,137,o),
(41,137,o),
(45,138,c),
(14,0,l),
(918,0,l),
(949,138,l),
(450,138,l),
(323,111,l),
(325,122,l),
(415,185,l),
(514,273,o),
(552,398,o),
(545,529,c),
(542,553,o),
(537,590,o),
(535,606,c),
(813,606,l),
(841,738,l),
(493,738,l),
(478,797,o),
(468,859,o),
(468,927,cs),
(468,1146,o),
(602,1243,o),
(781,1243,cs),
(913,1243,o),
(970,1208,o),
(1025,1177,c),
(1104,1315,l),
(1053,1342,o),
(969,1381,o),
(818,1381,cs),
(497,1381,o),
(293,1203,o),
(293,892,cs),
(293,831,o),
(310,780,o),
(318,738,c)
);
}
);
width = 1024;
},
{
layerId = "459F892D-0193-436C-99B7-2A4FAD43389C";
shapes = (
{
closed = 1;
nodes = (
(154,782,l),
(104,518,l),
(374,518,l),
(372,528,o),
(370,529,o),
(370,544,c),
(370,401,o),
(278,326,o),
(213,307,c),
(189,301,o),
(167,296,o),
(143,291,c),
(88,0,l),
(872,0,l),
(927,291,l),
(615,291,l),
(475,258,l),
(475,266,l),
(565,317,l),
(601,342,o),
(648,386,o),
(686,429,c),
(701,460,o),
(713,485,o),
(717,518,c),
(870,518,l),
(921,782,l),
(673,782,l),
(652,805,o),
(621,867,o),
(621,927,cs),
(621,986,o),
(664,1069,o),
(796,1069,cs),
(865,1069,o),
(928,1028,o),
(974,991,c),
(1140,1291,l),
(1071,1338,o),
(989,1383,o),
(812,1383,cs),
(521,1383,o),
(299,1194,o),
(299,946,cs),
(299,905,o),
(303,815,o),
(324,782,c)
);
}
);
width = 1024;
},
{
layerId = "DE55C86C-15D8-4D4C-BA82-540887FA286E";
shapes = (
{
closed = 1;
nodes = (
(162,767,l),
(119,547,l),
(369,547,l),
(370,542,o),
(370,526,o),
(370,519,cs),
(370,368,o),
(270,284,o),
(154,250,cs),
(139,246,o),
(125,243,o),
(110,240,c),
(63,0,l),
(887,0,l),
(934,240,l),
(560,240,l),
(424,209,l),
(425,218,l),
(515,273,l),
(572,319,o),
(616,390,o),
(639,462,cs),
(648,491,o),
(654,520,o),
(656,547,c),
(851,547,l),
(894,767,l),
(613,767,l),
(594,802,o),
(570,864,o),
(570,927,cs),
(570,1039,o),
(643,1127,o),
(791,1127,cs),
(881,1127,o),
(942,1088,o),
(991,1053,c),
(1128,1299,l),
(1065,1339,o),
(982,1382,o),
(814,1382,cs),
(513,1382,o),
(297,1197,o),
(297,928,cs),
(297,877,o),
(304,814,o),
(322,767,c)
);
}
);
width = 1024;
},
{
layerId = "5406E1A9-98D2-48B0-A3BF-3E9D89732E2E";
shapes = (
{
closed = 1;
nodes = (
(174,745,l),
(142,591,l),
(362,591,l),
(367,563,o),
(370,521,o),
(370,482,cs),
(370,318,o),
(258,221,o),
(65,164,c),
(64,164,o),
(62,163,o),
(61,163,c),
(26,0,l),
(910,0,l),
(945,163,l),
(477,163,l),
(348,135,l),
(350,146,l),
(440,207,l),
(528,284,o),
(568,396,o),
(568,512,cs),
(568,537,o),
(566,572,o),
(565,591,c),
(822,591,l),
(854,745,l),
(523,745,l),
(507,798,o),
(493,860,o),
(493,927,cs),
(493,1119,o),
(612,1214,o),
(783,1214,cs),
(905,1214,o),
(963,1178,o),
(1016,1146,c),
(1110,1311,l),
(1056,1341,o),
(972,1381,o),
(817,1381,cs),
(501,1381,o),
(294,1201,o),
(294,901,c),
(294,842,o),
(308,788,o),
(319,745,c)
);
}
);
width = 1024;
}
);
unicode = 163;
},
{
glyphname = currency;
layers = (
{
layerId = "F961D97E-EEA9-4A8D-9339-D33FF8C656AD";
shapes = (
{
closed = 1;
nodes = (
(106,1161,l),
(18,1069,l),
(177,909,l),
(239,869,l),
(203,809,o),
(180,742,o),
(180,669,cs),
(180,596,o),
(199,528,o),
(240,469,c),
(177,429,l),
(15,266,l),
(103,174,l),
(266,336,l),
(309,401,l),
(365,359,o),
(432,338,o),
(513,338,cs),
(589,338,o),
(663,364,o),
(716,401,c),
(758,336,l),
(923,173,l),
(1011,265,l),
(848,429,l),
(782,471,l),
(825,524,o),
(846,591,o),
(846,669,cs),
(846,745,o),
(824,810,o),
(782,864,c),
(848,910,l),
(1006,1069,l),
(918,1160,l),
(758,1003,l),
(714,936,l),
(658,977,o),
(593,997,o),
(513,997,cs),
(437,997,o),
(362,978,o),
(309,936,c),
(266,1003,l)
);
},
{
closed = 1;
nodes = (
(308,789,o),
(390,879,o),
(512,876,c),
(632,876,o),
(720,787,o),
(717,669,c),
(717,548,o),
(634,462,o),
(512,459,c),
(387,459,o),
(308,549,o),
(308,669,cs)
);
}
);
width = 1024;
},
{
layerId = "5406E1A9-98D2-48B0-A3BF-3E9D89732E2E";
shapes = (
{
closed = 1;
nodes = (
(119,1166,l),
(14,1057,l),
(163,906,l),
(228,868,l),
(193,808,o),
(171,742,o),
(171,669,cs),
(171,594,o),
(190,528,o),
(228,471,c),
(163,432,l),
(14,281,l),
(119,172,l),
(269,322,l),
(310,388,l),
(365,347,o),
(432,327,o),
(511,327,cs),
(587,327,o),
(661,351,o),
(713,388,c),
(753,322,l),
(905,172,l),
(1010,281,l),
(860,432,l),
(792,471,l),
(833,523,o),
(853,590,o),
(853,669,cs),
(853,744,o),
(833,810,o),
(792,865,c),
(860,906,l),
(1010,1057,l),
(905,1166,l),
(753,1017,l),
(711,949,l),
(656,989,o),
(590,1009,o),
(511,1009,cs),
(435,1009,o),
(363,990,o),
(310,949,c),
(269,1017,l)
);
},
{
closed = 1;
nodes = (
(322,780,o),
(397,867,o),
(511,865,c),
(623,865,o),
(703,780,o),
(701,669,c),
(701,555,o),
(626,473,o),
(511,471,c),
(395,471,o),
(322,556,o),
(322,669,cs)
);
}
);
width = 1024;
},
{
layerId = "DE55C86C-15D8-4D4C-BA82-540887FA286E";
shapes = (
{
closed = 1;
nodes = (
(159,1182,l),
(3,1022,l),
(122,898,l),
(196,865,l),
(165,805,o),
(144,742,o),
(144,669,cs),
(144,589,o),
(164,528,o),
(192,477,c),
(122,442,l),
(11,326,l),
(167,167,l),
(279,281,l),
(314,351,l),
(367,313,o),
(432,294,o),
(507,294,cs),
(583,294,o),
(657,314,o),
(706,351,c),
(739,281,l),
(853,171,l),
(1008,330,l),
(896,442,l),
(824,473,l),
(859,520,o),
(875,589,o),
(875,669,cs),
(875,742,o),
(861,812,o),
(824,868,c),
(896,896,l),
(1022,1022,l),
(867,1184,l),
(739,1061,l),
(702,990,l),
(651,1026,o),
(583,1046,o),
(507,1046,cs),
(431,1046,o),
(367,1027,o),
(314,990,c),
(279,1061,l)
);
},
{
closed = 1;
nodes = (
(364,753,o),
(418,832,o),
(509,832,cs),
(597,832,o),
(654,761,o),
(654,669,cs),
(654,577,o),
(602,508,o),
(509,508,cs),
(421,508,o),
(364,579,o),
(364,669,cs)
);
}
);
width = 1024;
},
{
layerId = "459F892D-0193-436C-99B7-2A4FAD43389C";
shapes = (
{
closed = 1;
nodes = (
(186,1193,l),
(-4,999,l),
(95,893,l),
(175,863,l),
(146,803,o),
(126,742,o),
(126,669,cs),
(126,586,o),
(147,528,o),
(168,481,c),
(95,449,l),
(9,356,l),
(199,164,l),
(286,254,l),
(317,326,l),
(368,290,o),
(432,272,o),
(504,272,cs),
(580,272,o),
(654,289,o),
(701,326,c),
(730,254,l),
(818,170,l),
(1007,363,l),
(920,449,l),
(845,474,l),
(876,518,o),
(890,588,o),
(890,669,cs),
(890,741,o),
(880,813,o),
(845,870,c),
(920,889,l),
(1030,999,l),
(842,1196,l),
(730,1090,l),
(696,1017,l),
(648,1051,o),
(578,1071,o),
(504,1071,cs),
(428,1071,o),
(370,1052,o),
(317,1017,c),
(286,1090,l)
);
},
{
closed = 1;
nodes = (
(392,735,o),
(432,809,o),
(508,810,cs),
(580,810,o),
(621,748,o),
(623,669,c),
(623,592,o),
(586,531,o),
(508,533,c),
(438,533,o),
(392,594,o),
(392,669,cs)
);
}
);
width = 1024;
}
);
unicode = 164;
},
{
glyphname = yen;
layers = (
{
layerId = "F961D97E-EEA9-4A8D-9339-D33FF8C656AD";
shapes = (
{
closed = 1;
nodes = (
(222,637,l),
(198,526,l),
(457,526,l),
(425,376,l),
(166,376,l),
(141,265,l),
(400,265,l),
(343,0,l),
(507,0,l),
(564,265,l),
(824,265,l),
(848,376,l),
(589,376,l),
(621,526,l),
(881,526,l),
(904,637,l),
(705,637,l),
(1241,1356,l),
(1067,1356,l),
(645,754,l),
(572,610,l),
(570,610,l),
(552,744,l),
(381,1356,l),
(179,1356,l),
(414,637,l)
);
}
);
width = 1024;
},
{
layerId = "459F892D-0193-436C-99B7-2A4FAD43389C";
shapes = (
{
closed = 1;
nodes = (
(99,663,l),
(57,446,l),
(340,446,l),
(323,352,l),
(40,352,l),
(0,134,l),
(283,134,l),
(259,0,l),
(608,0,l),
(632,134,l),
(915,134,l),
(955,352,l),
(672,352,l),
(689,446,l),
(972,446,l),
(1014,663,l),
(816,663,l),
(1197,1356,l),
(828,1356,l),
(651,942,l),
(623,894,l),
(609,894,l),
(597,967,l),
(575,1356,l),
(223,1356,l),
(324,663,l)
);
}
);
width = 1024;
},
{
layerId = "DE55C86C-15D8-4D4C-BA82-540887FA286E";
shapes = (
{
closed = 1;
nodes = (
(140,654,l),
(104,473,l),
(379,473,l),
(357,360,l),
(82,360,l),
(47,178,l),
(322,178,l),
(287,0,l),
(574,0,l),
(609,178,l),
(884,178,l),
(919,360,l),
(644,360,l),
(666,473,l),
(941,473,l),
(977,654,l),
(779,654,l),
(1212,1356,l),
(908,1356,l),
(649,879,l),
(606,799,l),
(596,799,l),
(582,892,l),
(510,1356,l),
(208,1356,l),
(354,654,l)
);
}
);
width = 1024;
},
{
layerId = "5406E1A9-98D2-48B0-A3BF-3E9D89732E2E";
shapes = (
{
closed = 1;
nodes = (
(202,641,l),
(175,513,l),
(438,513,l),
(408,372,l),
(145,372,l),
(118,244,l),
(381,244,l),
(329,0,l),
(523,0,l),
(575,244,l),
(838,244,l),
(865,372,l),
(602,372,l),
(632,513,l),
(895,513,l),
(922,641,l),
(723,641,l),
(1234,1356,l),
(1028,1356,l),
(646,784,l),
(580,656,l),
(576,656,l),
(559,780,l),
(412,1356,l),
(186,1356,l),
(399,641,l)
);
}
);
width = 1024;
}
);
unicode = 165;
},
{
glyphname = brokenbar;
layers = (
{
layerId = "F961D97E-EEA9-4A8D-9339-D33FF8C656AD";
shapes = (
{
closed = 1;
nodes = (
(221,400,l),
(221,-252,l),
(353,-252,l),
(353,400,l)
);
},
{
closed = 1;
nodes = (
(353,704,l),
(353,1356,l),
(221,1356,l),
(221,704,l)
);
}
);
width = 599;
},
{
layerId = "459F892D-0193-436C-99B7-2A4FAD43389C";
shapes = (
{
closed = 1;
nodes = (
(113,418,l),
(113,-252,l),
(385,-252,l),
(385,418,l)
);
},
{
closed = 1;
nodes = (
(385,684,l),
(385,1356,l),
(113,1356,l),
(113,684,l)
);
}
);
width = 376;
},
{
layerId = "DE55C86C-15D8-4D4C-BA82-540887FA286E";
shapes = (
{
closed = 1;
nodes = (
(149,412,l),
(149,-252,l),
(374,-252,l),
(374,412,l)
);
},
{
closed = 1;
nodes = (
(374,691,l),
(374,1356,l),
(149,1356,l),
(149,691,l)
);
}
);
width = 451;
},
{
layerId = "5406E1A9-98D2-48B0-A3BF-3E9D89732E2E";
shapes = (
{
closed = 1;
nodes = (
(203,403,l),
(203,-252,l),
(358,-252,l),
(358,403,l)
);
},
{
closed = 1;
nodes = (
(358,701,l),
(358,1356,l),
(203,1356,l),
(203,701,l)
);
}
);
width = 563;
}
);
unicode = 166;
},
